<mxfile host="65bd71144e">
    <diagram id="VgvGQmXuMAsIbQdn3dlX" name="Page-1">
        <mxGraphModel dx="1958" dy="578" grid="1" gridSize="10" guides="1" tooltips="1" connect="1" arrows="1" fold="1" page="1" pageScale="1" pageWidth="850" pageHeight="1100" background="#ffffff" math="0" shadow="0">
            <root>
                <mxCell id="0"/>
                <mxCell id="1" parent="0"/>
                <mxCell id="33" style="edgeStyle=orthogonalEdgeStyle;curved=1;html=1;exitX=0.5;exitY=1;exitDx=0;exitDy=0;entryX=0.5;entryY=0;entryDx=0;entryDy=0;strokeColor=#00CC00;fontSize=14;fontColor=#000000;" parent="1" source="2" target="4" edge="1">
                    <mxGeometry relative="1" as="geometry"/>
                </mxCell>
                <mxCell id="34" style="edgeStyle=orthogonalEdgeStyle;curved=1;html=1;strokeColor=#00CC00;fontSize=14;fontColor=#000000;" parent="1" source="2" edge="1">
                    <mxGeometry relative="1" as="geometry">
                        <mxPoint x="700" y="380" as="targetPoint"/>
                    </mxGeometry>
                </mxCell>
                <mxCell id="35" style="edgeStyle=orthogonalEdgeStyle;curved=1;html=1;exitX=0.5;exitY=1;exitDx=0;exitDy=0;strokeColor=#00CC00;fontSize=14;fontColor=#000000;" parent="1" source="2" edge="1">
                    <mxGeometry relative="1" as="geometry">
                        <mxPoint x="420" y="380" as="targetPoint"/>
                    </mxGeometry>
                </mxCell>
                <mxCell id="75" style="edgeStyle=orthogonalEdgeStyle;curved=1;html=1;exitX=0;exitY=0.25;exitDx=0;exitDy=0;entryX=0.3;entryY=0.071;entryDx=0;entryDy=0;entryPerimeter=0;strokeColor=#00CC00;fontColor=#000000;" edge="1" parent="1" source="2" target="8">
                    <mxGeometry relative="1" as="geometry"/>
                </mxCell>
                <mxCell id="2" value="&lt;font style=&quot;font-size: 18px;&quot;&gt;Web プロジェクト&lt;br&gt;&lt;br&gt;&lt;br&gt;&lt;br&gt;&lt;br&gt;&lt;/font&gt;" style="rounded=0;whiteSpace=wrap;html=1;fillColor=none;fontColor=#333333;strokeColor=#666666;" parent="1" vertex="1">
                    <mxGeometry x="320" y="40" width="200" height="120" as="geometry"/>
                </mxCell>
                <mxCell id="4" value="&lt;font style=&quot;font-size: 18px;&quot;&gt;Application Core&lt;br&gt;&lt;/font&gt;&lt;span style=&quot;font-size: 18px;&quot;&gt;プロジェクト&lt;/span&gt;" style="rounded=0;whiteSpace=wrap;html=1;fillColor=none;fontColor=#333333;strokeColor=#666666;" parent="1" vertex="1">
                    <mxGeometry x="160" y="220" width="200" height="80" as="geometry"/>
                </mxCell>
                <mxCell id="39" style="edgeStyle=orthogonalEdgeStyle;curved=1;html=1;exitX=0;exitY=0.5;exitDx=0;exitDy=0;entryX=0;entryY=0.5;entryDx=0;entryDy=0;entryPerimeter=0;strokeColor=#00CC00;fontSize=14;fontColor=#000000;" parent="1" source="8" target="15" edge="1">
                    <mxGeometry relative="1" as="geometry"/>
                </mxCell>
                <mxCell id="8" value="&lt;font style=&quot;font-size: 18px;&quot;&gt;Infrastructure&amp;nbsp;&lt;br&gt;プロジェクト&lt;br&gt;&lt;br&gt;&lt;br&gt;&lt;br&gt;&lt;br&gt;&lt;/font&gt;" style="rounded=0;whiteSpace=wrap;html=1;fillColor=none;fontColor=#333333;strokeColor=#666666;" parent="1" vertex="1">
                    <mxGeometry x="50" y="380" width="200" height="140" as="geometry"/>
                </mxCell>
                <mxCell id="49" style="edgeStyle=orthogonalEdgeStyle;curved=1;html=1;exitX=0;exitY=0.5;exitDx=0;exitDy=0;entryX=0;entryY=0.5;entryDx=0;entryDy=0;strokeColor=#00CC00;fontSize=14;fontColor=#000000;" parent="1" source="9" target="19" edge="1">
                    <mxGeometry relative="1" as="geometry">
                        <Array as="points">
                            <mxPoint x="290" y="450"/>
                            <mxPoint x="290" y="610"/>
                        </Array>
                    </mxGeometry>
                </mxCell>
                <mxCell id="77" style="html=1;exitX=0.5;exitY=0;exitDx=0;exitDy=0;entryX=0.5;entryY=1;entryDx=0;entryDy=0;strokeColor=#808080;fontColor=#000000;dashed=1;" edge="1" parent="1" source="9" target="4">
                    <mxGeometry relative="1" as="geometry"/>
                </mxCell>
                <mxCell id="9" value="&lt;font style=&quot;font-size: 18px;&quot;&gt;ServiceXClient&amp;nbsp;&lt;br&gt;プロジェクト&lt;br&gt;&lt;br&gt;&lt;br&gt;&lt;br&gt;&lt;br&gt;&lt;/font&gt;" style="rounded=0;whiteSpace=wrap;html=1;fillColor=none;fontColor=#333333;strokeColor=#666666;" parent="1" vertex="1">
                    <mxGeometry x="320" y="380" width="200" height="140" as="geometry"/>
                </mxCell>
                <mxCell id="50" style="edgeStyle=orthogonalEdgeStyle;curved=1;html=1;exitX=0;exitY=0.5;exitDx=0;exitDy=0;entryX=0;entryY=0.5;entryDx=0;entryDy=0;strokeColor=#00CC00;fontSize=14;fontColor=#000000;" parent="1" source="10" target="20" edge="1">
                    <mxGeometry relative="1" as="geometry"/>
                </mxCell>
                <mxCell id="10" value="&lt;font style=&quot;font-size: 18px;&quot;&gt;Store&amp;nbsp;プロジェクト&lt;br&gt;&lt;br&gt;&lt;br&gt;&lt;br&gt;&lt;br&gt;&lt;/font&gt;" style="rounded=0;whiteSpace=wrap;html=1;fillColor=none;fontColor=#333333;strokeColor=#666666;" parent="1" vertex="1">
                    <mxGeometry x="600" y="380" width="200" height="140" as="geometry"/>
                </mxCell>
                <mxCell id="44" style="edgeStyle=orthogonalEdgeStyle;curved=1;html=1;exitX=1;exitY=0.5;exitDx=0;exitDy=0;entryX=1;entryY=0.5;entryDx=0;entryDy=0;strokeColor=#FF8000;fontSize=14;fontColor=#000000;" parent="1" source="13" target="19" edge="1">
                    <mxGeometry relative="1" as="geometry">
                        <Array as="points">
                            <mxPoint x="540" y="450"/>
                            <mxPoint x="540" y="610"/>
                        </Array>
                    </mxGeometry>
                </mxCell>
                <mxCell id="13" value="" style="shape=image;verticalLabelPosition=bottom;labelBackgroundColor=default;verticalAlign=top;aspect=fixed;imageAspect=0;image=data:image/png,iVBORw0KGgoAAAANSUhEUgAAANoAAADaCAYAAADAHVzbAAAAAXNSR0IArs4c6QAAAARnQU1BAACxjwv8YQUAAAAJcEhZcwAAFxEAABcRAcom8z8AAGmISURBVHhe7V0FeFRH1y7/V6HQFgtx3bi7uysxAoQIrsHd2RYvUrQUKVJaSksFKtRbaItDkZLiFhyChOA6/3ln76U3m00IZBOSct/nOc/u3r137pkz58ycsTMvyJAhQ4YMGTJkyJAhQ4YMGTJkyJAhQ4YMGTJkyJAhQ4YMGTJkyJAhQ4YMGTJkyJAhQ4aMZwTGWN3t27c3OHEiv/GJEyeI8CklXDvR+NixYw137dpVX6lUvkyP/Z9A/3sSondxou8yZDwfgMIfyc83HTtiRMh45cjM92bN6Ljg3Xc7zp8zs4OUFrw7i1+f886U3OED+iYmhAX5Kho1cjJuVN/JQlfXuULUsKFz/RdecG7bIsXt/OXzrg8fPmwqsCFDxn8TZGAvJYSGusWFBHVJDA+dGebjuTIq0O/X1NioDWlx0RvxqU64nhQZ9nuIl/s3zgqzjxS6Td43b9p4oaV+00UVIbp/kUmThovcrC0Wp8RGLm4eHzc5ISK4a4fsVpHTpk1rLLAmQ8Z/A+T2vdGlbdvIAHeX6e62VgdcFOYPbIz0H5IxMGtDvXLJykCXE92L+x8IhO8VJoWeDv90tVY8CPJyOxMfFvxlRmJ8m06dOhnn5+fDJZUho3aD3LX6PTt2zEmKjFjjYmlxGsZja6TPrMjILHSbMIumjRm1UvxTncTrZCj8fmsyuKchMjL+LltjA+ZkYQq6GujusjMzrdm0qRPHeAqsypBRO/Hjjz/WnzZ+fGh6fOyXvi6OD+1I0WE8MBwof3UT3isasJu1goX5ep1JT4wdFuHnZ0Ts1lFxLUNGLcOYkSPt22dlTg5wdT5ubYiWhQxMamT0nSs/WrYqIqQvNWzxN9xRauHue9hbrw31cs8NDQ19TWBbhozahXYtWyaE+XhvcVaY37No2ogpSPEfGRlX+ia8dTHTaVRlxN1PtfeC+DUyOGeF2VV/N6clbdq0shTYliGj9kCpVNaLDvTvQf2hC3AZeUsmtCy8FRMMAC2LnakRszczZvb41BI5COkhfdMmDZhJ4wbc6ERDE1s1R7rPz8Vp66DePZJOnz5dT2Bfhozagf7du5v4OTuOsTLUu4aBDFHBQWIL4+vsyFJjo1lWeirLbp6mVcrJSOefSD/Y0405mBtz45LywY2NPr0d7Q7mdWg7aNWqFeYC+zJk1A7EhQdYOpoaT1ToN7kuGhpvycjIQJ72NmxI3z7sp+/WsLW//MzW/fqLVun3337ln0h/6cL5rE2rDOZqZfGoNRX5ATmamRyP9POZ1D47w0FgX4aM2gFbvQbmCr2m4xT6TYvFIXYoNfpN+B4TFMA+W/Exqw5cvXKFzZs9i0UH+XMeTMmNBA8guI8WTZscN2n4xtv6r70mG5qM2gWzBq+YmzdtUsrQTJs0ZDZG+iwpKpx99cXngilULW7euMFWfrycNU+M43wYN3qjhKEpdHWOm+k0ftu0cWPZ0GTULui98oK5aaMGpVs0MjRMWieEh1Zbi3bh/Hk2d9YMFhMcWKJFw3fiDxPYxyOD/GTXUUbtQ0qor7mTuek4SwPd4hJ9NOofYfQv0N2FLVkwXzCFqsWJggI2euhg6hfa8v6hueC+cn7ot4+T3fG8zu0nffrhh7Khyahd2Llzp3lKbPQ4GyODYukkNZTb4I363H2cMflt9vDhQ8Ecqg4Fx4+zkYMGMHdb69KGBqN3czk+YnD/SZv/+EM2NBlPDlLiV7p0adHAx8rqDWWvXm+Qzr0o/FXloHeZ53VoN87exKhYHOUTSbd+Xd5PenvsmGoxtHJbNOIt2MOt4M3hw6bs2rDBSWBfhozyMV+prNe9XTuTAd27e6fGRqZ4OFhl2xobZPm5OWS1TIxL6NOpk1tmZrJhv379XhUeqRKQAVkM7Jk3wd60tKHpvfYqHxSZMn5cjTA0f1eno4P79h67/tdfbQX2qwTESp05c+a8lhoZ2cRFoaerW7++notCods6KUkHOxzof3lzam1A/saNjTvktE5Njo6YG+Hr9bubtcU26iPtIoXaSa7aThdL8y1+Lo6/RAcHzspMS0iMjnapLzyqdZDSKAb17lmmoWGY/1kbGicyNlcriz2ZyUk93n//fUOBfa2D2KizYsUKm7xO7VtG+vkMszU2nGjU+I3JjubmE2NCgkZ3yclprxw+3A33CY/IqImYoBxq1SE7s1dEgO+3/i6OV73tbZi9iSFXJAxGgLBNxEVhxrwc7K4Ee7mvigj06Tmsf387IQmtghRGJzs9tT8Z+BVpH62mGRrfSmOou9XdxrJVdlzcGwL7WkXXru2sU6OiWscEB04L8/X60cPe+oCVod5pU51G52yMDc94O9ofCfP2+jPMx2tukLtLbpvM5o7E9kvC4zJqAqhAUFOadMxuPSomOOCAo4XZXa5AwqZJfBdH/bjB0TWQs4XpnUAP15OtmydPWLHiAxshOa2CDL0ltaaFNsSLqNigmmJoVgYqQ1Po62wy122Y4mlgoNW1jitXrvzf9EmT7NPiY9/0dXLcaWNscJ1kf5fKBhtRBR5g6FRWhnr3bY31b7hYWuyNDwuZMmPKW97bt2+Xja2mYNmCBRYdc7NHRwf673W1VvCCE1esow8iFqhIWDFvoduYQfldrS1YgLvTkZgQ3xFWZIVCklqDTr2Xk4iPC9joKeWhphmahV6TjaY6ryeZvfBCXYF1raBfz56u2RnpM4M8XA/ZmRhx70JBshfLBWWFT95XJL6s9HWYLXkhXva2BVGBvrOiQtzthaRkPEsohw5VdM7JGhYd5H8IRoa+EApMVGheiPQb19WNjv8msjM1pD6K+d/BPu5d+3bubCAkXWk8fHjwFQ87m070rkvihLVIGHXEavrqGnXkw/uDBzLip5ShQdmtDHX/crYyy0ry9NRaixbq42wcHxr6ZqiP53m466j8NFV8JYj/r8NdfkcL05P2ZkZvmurqKoQkZTwLrBLdxaCAg84Ks4eWeirjkRYmvkOxuHJpMkLhfirQ+0GertuyUpO7HTlypIHwiqcG6fZLysH9fCL9vedRH+16TeijjRoySPNgCJGdieFRf1fHCckREVqZR0uLjTUIdHPuQ5XfX9gCBNdQWi4gXgEKJL0OQsVEFQC5lzqHya0dZWnYyERIWkZ1YuG0aVad2uSMjAkM2Ist+Sgc6V4r1NIoQCw1otqa7/Uy02nIDBu8xgtcdFlAuA+K4GJl8SAmyH9jz84du/7yyyY94VVPDNLrlye8Ncq7dXryFDLeQ2Ro90Vl4oZN3zGHRn0RNnfmDJUlVDFOnTzJJrw5mvm7OvP8QhZi/sETGcN1bwe7XQmhwSNnTB7vQsb/ipCdJ8aGDRvMenXq1MvP2WEzVX63NXkT4AEtuuEb9bks8FtaJrxiEp5R6DXdq9DVGWlp3NRKeIWM6oByyBDTTtmth8cEBx50tVJodEnQWsDIsPGxRVI865fXnbVKSWLOlubMhApWunodxA2B0vB2sGXx4aGb22S2yPH09Kxwy3b27Nn6A3v1smyVkhJA78lKjAiZFezlftDdzoobsdTQ8G5cS4wIY59/skIwharF5UuX2IdLFrPkqEguL+NGrz/KO3hCH9JFYU6G6Ph3WlzUtLwObXOTIiO9MxITjcjoKjzfuGjRoqYDenbPS4+N2UoV1z31ssF3lA0+Xags/FwcmZuNJecJ5SLeV4r0mh600NUZrjBoZCq8SkZVQjW62Gp0dGDAATIahF17pMQi4bdRw9f5UH5GQhz79KNl7PChQ+yXH35gXdvkwk1iBq/XK6UAICick8L8hq+zw7cBXu7JpKOPndP59NOFjYcPHhCfnZH6TqiXx28uCotD9qbGhdSpv29jrF+q9TSkd6MV7pfXjW3esF5lCVWMu3fvsh3btrE+3brwfCL/Ik8g8IglYTbGBvfIDb/g5WB31MvB9psof+8h/fPyIqmV0hWyWyYWzVzUtHfXTh2pAlznbGF2h49mSmQMQv7RgnmRC9shK5ONGTmM5XVsT31Ha966qZclSBgxfkAt2wFyI0fLbmQVY+Sg3tYdc7NHRAf574eiohDV3UXUlsZkZOjkt0hKYB9/sJSvXAfu3L7Dfvj2G9alTQ5zNDfl6w1xv7ohgMhIi6hF+rR/77xIerTUEPOpQ4dMBvfvHR0bHNg1zNdzSpiP15pAd5dT4MvWyIB4Uw3AqCsO3tfoxTp8x/Ny4q3wgoq36kDx1avsvVkzuVIbkQutzhvkiWswEAdVKIT7zgrzfB8nx6/iQoNnZFL/tV1Oq4DVq1e/LojhERAbMjU+JglzZNSS3TRv2qh03ps05CEVHC1MWfcO7diPa75l/+z5m296HdK3N/O0s2H61HeFIUrLhE/JcILhNt1PxjZSoaNjLbxahjZh0KiRaVxYEBlZAB9dLMtdFFsyuIsfLl5MinxBUDMViq8WUQGvYW1btmAW9DwKVWqsIBgJ0vZ2tCtMi4/5OLd5alJWerpZ5+xsg4Rwf7PWGan+3drmDkhPiP0s0MPlELk+9+Giqp4tyZOU0CfB+3Bvv+5d2b69/whcVR82/vkn60EtCJRd77W6fBlYeTzz/4iodWMxIQFHIgN834/082vTpnWGT0pMjEnfvp0NOuXkWMRFhDQjN3kJucRFQgtUgmB0MG70ldtTS7bmq9Xs9p3bnCdUgFs3bmRD+/Zh7jZWVIavcVmp8yWmS9cPW+rrjJDdSC3DXF/fjDrDo+3Njfc5WZg+tDH6t88jEloPFKQ1uT/NE2LZ8qWljUwE+itL31/ImkWFM0uqOWGcJQtVcCPJYN2sLS8He7j+Sfe+mxwXNTrM22O2h63VL2Tsh50tzYoczEy4K8rdJOJJXTlAuAZ+MRCDe3t26sg2/Pk7u31bpWjViWvFxeyXH38gGcUxvfqq1gO8qfPNfxOJn6gcXCzN6NO40MHcdK+vk8OP0QF+U3JbNB/VKjlxoZ+r8wYrQ91CTRUg0odBw1AQv+TLzz5lRUVXBI5UuHXrFtuyYQMZW28yNkvirW6pChAET4U+H1LLtg9uJHRDUBMZlQFcBAvUXnAZqADVR7DgYqATrf/6q8zB3IS1a92SrfhwGTtz+rRQhJpx7MgRtuDd2Sw+LJi7NDA2FKzUZRELGnE2qNN+keigu61lIW+9iAf8LyqpunKB8B8UGUrTtN4rvF/Wq3NH9vtvv/E+07PC9WvF7PMVH7Oc5ul8cAjuGlo3Ta2INC9wB1GZ8H4stYie9janQrzcD4R4ul+FjB4ZptpzkIFp44YsKTKMLVk4/5Errw60bOizDunTi1FlRmVaj5eLtExA3I0kg4NOcN2Q3chKoY6RUWNjDOtS4R0SBSwtSHxHTYk+GdzJru3asDVfry5VW5aFY0ePsJlTJ7PYEGHXMaUFxRDTFwkFjVFCfHIS/1NTKhCeRzpQWrH/R30WFuLlQf2QXmzT+j9Joaq/JVPHvbt3eN8IgyNkLLySAv8YEYVhYPhfXRZS2YuygFxE2UjvBeF+k8aq/ha5/GzuzOns3LmzAgeacZu3bGRs1LJhNBJeiib3VuJGHoKOWBkZGdPj8mLkJ4Wpnp4FXAMS5D4uWA0FCUXWrf8K1X7W3L9H1KeKGhnw4OEDVnDsGJv9zhQeKAdpQsnUCxW/RbeQ/6f2v/Q+8ITRM+4mUsuXFBnOlEMHs9Wff8YO7NvLXaSagps3b7A9u3ex5R8sYf175rGoIH+eD7TA6CdpcgNFEmUBYwSp34drmBQ3JYNFQKAFc+ewUydPCG8uH7du3eQt29B+fXjZoowhV2n6IFEnyND22RgbKjOaNbMQ1EdGRWD8xhtWlgY6wy31mh541HpICAKGS4FRQ3LluKuBzvTTumOHDu5n0ydP4q0OVmzASDQVrDpBuaBMqHWbvPIif9bJwoxFB/qxNi2as9FDBlNfcSnL372bPSSjrqlAv23Lpo1s8YL5bPjA/jweZLifN++joh8Hw4PXoKnPpIkgOz6i26QRiyPXHJPyFTUyEXfu3KYyRZ+tDy9jpKfJjQShErQzNT6YFh87XKlUypPaj8PatWtf9HW1NadONVoyuIsP1Q2NKzcVOFoNdJrhYmyhAoHL8bSAERzYt4+NGjyI+bu5cFcILhRcFigN3leC6JpqqJpcGipkKCQGOfzdnFnn3Gw2f84stuH338lNOsdbsAcPaq6Ribh//z61cDf5dMPm9evZzCmTWVbzVL6SxMnclMtEdIuRd8hAXSb4z5RcRcjOxsiAKhz/CrmLZQFlupUqAJQxyhpljndpaj0dzIwfUot8qH1261FYmkePy25kWRg1bGBgVJDvHGdLs4NYtwghSg0NtRkKEwty3amzjBEq9HngalQWULT8v//mtW/L5CRuOE1ffUXVwgm1qUiY7EUtb9igPgYEWJuWGWzyuDHs808/4S0Dau87d+4IKdc+3Lt3jx0/epSt/+N39sUnn7Bxo0ayjKR4PnCCvGNgh7cw1JKrZPIal1GTui/xlh2DRZDJB+8vZCeOHxdSfTrA2FDGfDSSyhxlDx2QtmwwPOzEcLNRwE3dS5XdqHkzZ8rnCKiD5FlXOWJEUEazhEWB7i7FzgozjSNYcF/g1kHgg/ugJduo9YGFc2fP8GVRIwYO4GG648NC+GABIlaBAohCvD14TEasbJigHMW+Xb2anTl9Skjhv4cjhw6ylcs/4q5wLrnECJMX5uvFgjzduDyCPFxZpL8v749mpaewEYMGkExWscuXLgopVA4oY5Q1yhxlDwOHLkh1A60aRqQxshsbFHAQS/RGjBgg99lEkBz/N2f6FN+0hNilfm5OxY7mJqX8cNFdRG2Kkaih/fqq3MUqGr27fv06n4PbtWMH+5QUbPrbE9n4N0fzRbnjyLBmTZ3Cvv7yC7Y3P59duniRByf9LwOu9fVr19h5coV37fiLrf5sJXt3+jvs7bFvcXlMGvMmm0fu8nfffE1ewW52/vw5rcsEZY0yR9ljUhu6IHUj8an6zk/HeYAdHVQRKmU3UkBGsxirVqlJUwM9XM/DyNCSoXYSjQxGh6FyuGoQMPz1zRsq1yd7EsCQjhw6xFdx7Cfa988/fFoAy5meV1wtKuKjtQf37+PyQP/25IkCdqOKKxyUOcpeXEECnYBuSCtmGB8+0bJFBwXsww6P6ZPGPL+bR0ludc6e3VU/PSE2N8DNeR+MTNPKCgy3w1XAyNPgPr2qxF2UUXuAsscACXQBOsHdSLUpGXyHG4m51ejggAOdcrJ6KPv0aahUKv9PUL/nBySzl6ij7ZEeH/Oug5nRTQx6qBsZaiesWkDthVoMo2HPYtmSjJoF6AB0QWzZoCNiSyYSvCKcsIq4MFGBfp91bpMdM23atCoNL1gjgdh+Iwf3y4wN9v+Nmv6HqIFEIYnuIgY+vHC0EdVemMCsLndRRs2Hyo1ULdfyFLbYlOVGksd0KjUuenyMn19jQf2eH3SMiWmcGBU2wMfZId+aDA0r5kUBoTaCkDDCxCejyVWQWzIZ6oBOQDcG9urBN5HyeU2JV6Rq1fR4ZR3m4/l113atn781kf4uLrr+bi7jXCwVJ3ktJAgIwkHNhDmbDlmt2I/ffSv3yWSUCSwIwG4ErHNFn0zaX8MnuiRYUODr5LBp5ttvh9Mj1RYSvkagWUSEXmxw0FQfR4fzqHUwECIaGoSFGqpb+7Zs25bNKonKkFEGrl27xr7/9huWEB7CmtZ7uUR/DcaGVSs+Tg47Plm2rMWThGX4T2BAt2662c3TJoT5ep/CFnqxj8YF0xSr3puyyAA/vpzpQjXuQpZR+4AoYrt37GDN42NZ41f+V2Kdqmho/i5OO1d+sjyTbn9NUMHnAxOHDm3UpkWLfqHeXn9Ti/YQLVkJ4ZDhiavf35s1g50+9d9deSGjcig4dpTNnTGdr+DBvsQSI5CkS6jEqUX766PFi9Ppdq0GiK3xUCqVdbu2bRsW7Om20s7YsMRokcrYVCHR0F/DKZXz58zm6++eBzygGvravQfs/K177MzNu+zczXvlEu7BvXjm3oOqjxFZU4DdGliJMm3ieBZLOoINqWjNUFGLeoQ+Gna/e9har5v81lv+9Nhzd1pNne0//9wgNiRgsKetdZGDqTHvn2EJjdTYsBIcRoiV4NPfnsQOHzzIHty/r5J0LQdM4i4Zxq37D9mN+w/Y5bv32Ykbd9m+q7fYnxeusVUnrrKVx6+wzwuKyiXcg3vXX7jO9ly5xQ4V32YXbt9jNynN25T+PTLc/5r5YeHz9q1b2LAB/ViAmwvXlxItGdcfHW5k1N+/6+vitBQxTgTde/7QtV276MTI8F/crBU3sf1COswPEkchLZo24ZGjsLB1119/CeKuvYARHLt+h20g41h1oogtPXKJzTlwkU3de4GNzz/HRu46w/pvP836bDvF+tJneYR7cO/IXWfZ2D3n2KT882zW/kK27Ohl9t3pYrbl4g3+Lrzzv4L1f6xj/Xt0J5fQni8wxgAadEV9Hg0DbaHeHgfbtGg+sEuLFpWOQF1rsWDBAuMenTt2ign2/4OMDaeMPBqBFEns0GJtm5uVgo0cNJDt/Gs71WrPLu7GkwIe3SVqZY5cu8P+unST/XCmmC0m4xr79znWY+splrW+gKX9foylrjtKdIyl0/fmT0h4Bs+Kz+duKGD9/zrNJpLh4V14J94NHsBLbfQy+YbQzZt4TExsskW8GHQxpO6iqDMYZKPWrDg5JnLe9MmT/deuXft89c+kINn9b+7cubpD+/TpnRoTvdXezPiOygUoLTi0bKaNGjB3a0s2rH8/tnvXTvbgQc12IxFWH32nQ9dus29PXWXTqMWC8nfdfJK133iCG0Pmn8dZxh8ljQa/WzwhqaeBa60pbbwD78I78W7wAF7AE3gDj7UB2EC7eeN6HucES68ebb7VYGQgJ4X5rVAvj19aJsU1g5FREvIq/u9XfW/eMSenvZeD7WrqwF6BG6DesoHQZ9N/rR4Ptjmsf1+2Y/tWVSnUQJy7dY/6TTfYR+TCwSUctOM0a0NKn0ItTtJvR1ny2qO85YFBtPrjODc4bVJLShPGh3fgXXgn3g0ewAt4Am/gEbzWZNy4fp3HguyUm8WDHWHDKbwcdSOD3ljoNsbG3UIfR7uVSRGhqbmpqU0ENZMBtMjLey3Cz6uZj6PDp84K84uY0YfwpMLEdwgTa9sQd3/EwP7cjXyW4dukuH3/ITt78x7bffkmH6hQ7j7HWxQoO5Qeyt+KjEAkTQYiEv7H/RWhiqQlEu4XDRC8gUfwCp7BO/JQk4C9bWt/+omHx+O7OcjIoAOiToh6gYoZAVo97G0u+Ls4fhTm4RHLXnhBbsU0oUVo6GtDB/aNaZkUv9Tbwa4IIQVEQUoFCzcS5EZu5MhBA9ihAweEYnl2uEOdnl2krIsPX2LDd53hrloOKTLcOPS/REMr1xAkxvO0hDTE9DS9C/eAF/AE3sAjeAXP4H0n9eOQl5qCHdu38aCzPIz76/V4uUt1AcQ9IL0mLNDdtbBtZuby3h06RCYlae+st/8ksEzmnYkTo1omJX4Y6OZc6IRd1yRMTcbW5JWXWIS/D/tw8aKnDgKjDWBU7/vTxWzKP+dZZ1JaKDHcNShyWQoPwn9wHdG6YCCkGT2TQC4ePlvSf3DzOm46wamDGonXcQ/ulT6LtB65pcK7NBH+A4/gFTyD98mUB+QFeXqWwIqPi4WFbNF7c7FWkW+HURmUmodDfXoMfPg42Z9u1Sxp0ZypU3FewvM78PEkgLHNnfVOREp0xCJXS8VZWyP9B+qT2hA6XAknhRnr2jaXbdpQPSezSFF87wHLL7rJllBL0GvrKa68LajFAIkti7pyo0WBcsMQ8IlrbclYOm8+wfK2nuTD9UN2nOFD9TP2FbL3DlzkNFeNxOu4B/fiGTyLNJAW0kTa0nfh3VJeQOARvIp84xrygjwhb8jjswAWk2/843ce3RmeDVozafnzyWhDPWZtoHeXPJujGUkJc8cqR4TQo7K7+CQggdVLi4lxdbNSjHZRmB9yJP8bxiat0URjQ0zGVZ+t5AVUXSi8dY8PmY/bc5aP6kGJy2tFuEITiS0YKGv9cW4caEU+PHqZpwfX7cDV2+zotTt8AvvUYwj34F48g2eRBtJCmkgb7xDfJ/JWFn8ib8gL8oS8Ib0Lz2Cw5OrVIt6aIcoxyhxRj8Vyx29EvsIQP9YxpsdGDhvSr5/riRMbn7/NndqCh5WVZUxw4HgPe+v96PCqd4QRgsyB/Pd5s2dVedwKAMucoNiYaB668wzv7ySR6yW2BpoUWHTPMMcFt284PTd93wX2gTCpvJ0MpOD6XXbtbuVbD6SBtJAm0sY78C68E+8GD49za5EX5Al5Qx6/pLwiz9W5xAsx+hGMx9pIjy+tkpY7DM3e1PCmn7NjfsukhJELZk2RI15VFiTzOu+9955DuJ/Pu+RC8APupIaGAxpsjA14pKqqDvuGETksc1pEblVvai1ENxCf6kqLa1BUtBJoVdBC9Nl2ms3cX8h+O3uNHSdjuIH1idQXqQr9RZpIG+/Au/BOvLvf9tOcl9bEE3jTNEiDvEjzBlcSeUbeq2tUEgeVICAtYkWqD4DA0HCYfHJMxISRg/s6Cqoio7IguddJT4zvGebtecXVyrxEp1j/dTI06gyPGjKYxyBEJ7oqgNp804UbfMCj25aTpKAql6wlKSomhtUVFQqMeSv8HkatAp+zOn+dr8y4erf6J9rxTrx768Ub7ONjV3hLBd7AI3hVryiQJ+QNeURekWfkHTKojpYNOzYQO7Phi3VKjzRS2TtZmu3p3rEdVuQ/f0F3qhJZzZt3iwrwu4KVIVg98q+hvcp30SJu/P69e6skBDdaBSgoljOhJRCVT6qYImH0DtRmwwk2aMcZNudAIfuZWpPT1JeqKThLfa6fzxZz3sAjeBX51pQnsVJB3iEDyAIyqUqgReuY3Zo1eun/NBqai5XFrreGD06kW+XBD22hqKioUXpc3BgPW+s79iZGj4wMxF1H3qIN4jEYtW1oqL23FN5g4/aoJp8zflf1YdRbANXInWp0D8Puk/IvsF/JwM7dustX0VePw1VxgCfwBh7BK3gG73zARK0SQV6RZ+QdMoAsIJOqbNnKdR3Jo3G1URzp061z7wsXLhgIaiKjMkCYsGF9+wZH+vmsoL7YQ6nAQdi+jn7blAnj2JUrl7XqOqI/sqnwOimiyshQ46v3Z0RFRI2PgYY+20+Ra3aZ/X35Fit6Bi7ikwI8glfwDN7TKA/Ii3pFAkLeIQPIYiLJZNOF61XWZzt75gzr1aUTj+2vvqYRhuakML+cFh+zdNjAvoGCqsioDHJzc5u0Sk4a5O/qvBchDtRHn+A6ImLWB+8voOLRXqFjr1h+0S3eL8kiJYP7VGrQgNfyKpcrd8NxNnznWfbVySJ29ubTuYlYSnbp0iV2/NgxHnJ8986dfN/V+t/X8fPf/lj7Gyd8xzX8h3twL57Bs0+7HA08g/cRu87yvCBPyJt66wYZiG4zZAMZQVbaBqJEI9y4t4MdL2esbZQamr2p8b0Ad5d/4iOCO9HtsvtYWTSLibGKDvJf7u1oe0dqaBA2hn2tDfVZ88Q49tP3a1QlpCVg4AAjbd02n2TpVMurD9+L7hQUD8uYxpM7tZncKb4iXkijIkALfP/+fb4KYtuWLfyQDbTO2G/VpW0uy0xNZtQ3ZcEebizUx5MTvuMa/sM9uBfP4FmkgbSQ5pO07rgTvMMlRF6QJ+RNk5uMa2j5MEACGUFW2gbWOOKMg+zmabxrgKjE0grWjvrlrlaKu2HentMXLpyhJ6iLjKcBVohkpabGeznYbHOywAEYKiFD2BgQweJiP1dnNl45iseC1xYQGgDzZL22nSKlKt1vgeKp+jPHWd6WU2zO/kI+QIDd0k8CHGuEVemIeTF66GAeNg1HJOG0FhzogUWyyKdO3ZdYg/+9wAcGQPiOa/gP9+BePINnkQbSQppI+0mPToIriLwgT8gb8oi8So2Nt+SCXCAjyAoy02a7hooC4SvGjhrJV4bovPrSI0MDWRPhepi3x0+jhg+OX/3++6+rtEbGE2P21Kk2zWNjxzlamJ5GCyYVNFozrH9LT4hlP//wPQ87pg1gwvfHM8V8SB5rCNFfERVMNDIon6hkS49cZvuLbrP7FWw9sOXj+LGj7E9yAWdMfptlpjRT7a+i/GAjI7YC4TuMCIQWnE9nCJ/q38X78AyeVW2GbMTTRNp4B96Fd+LdFQHygjwhb8gjhvk1tWyQDWQEWUFmxVruk96/d4998uEyfiAiugjSHfiiPgR7eRxv3zpzytgRI57fUAWVReuUlNSIAJ+1DmbGt6FMj4RMrRqUCZ99u3dhJwoKtDIIAqcv/8otPqqGGlucsJUql6omp5Zs60keguAYuU0V7aNcvnyZ/fbTj0w5dAhLiY1iXg62/OA+dPb5gYfkHnFDod+ikalXMFISDY4bGj2DZ5EG0kKaSBvvwLvwTrwbPFQEyBPyhjz2oLwiz8i7VBaQDWSE65AZJrSfzHF+PLCGtX3rVjjVk5c58ivmHeXv42R/NzY08LfmcXHugtrIeBKQjF+MCvQd6uNsfwlCFgUMglLhM9Tbk707fVqFa+rH4eSNu3yrSLuNJzQuq4LLhEGCnPUF3LU6WFyxKMo4JxpHDr07fTqfhPV2tOc1NIauxXgXYt60RUgTaeMdeBfeiXeDB/ACnioC5PHdA4U8z8i7+uAIZARZQWbor0GG2sSZU6fYezNn8j4pKhFUIMif2IVwsjBlnvbWR5Miw7N+/vnn5zcuyNOA5Ftn3szJlmE+noudFeY8lJgoWBBcRnSQ8zq2Z3+sW1vpsOGog9E3+f70Vb7cCMqD2lrqKoluJBRu/J7zfODjce4iWlkMTHz/zdesd9cuzM/Z8ZGr96jFkuQLhN9ibc1DpeN3GVTi/zLSwjuk7wQP4AU8gbfHeQLIIwL8IM/Iu+guinKBjMRBE8gOMoQstdWu3b1zhx/X1bZVC2qpsR/t38XFnCiP9mZGlxPCw2aPGz7cTVAhGRXBqiVLGg7q2yuXDG0jDIorlER5mtR9kddkOHMaB+NV1m28SYqx6zKG8i9w5dHcLzvGUuk6FueKo4uPA/pFSxbMYznN05iLpQV37eDWiW5vCYWR5I//J/4vfi+LhHsePSdJSyRcxzvxbvAAXsATeAOPj8N1yivyjLxDBnxwSCIfkCgzyBCyhEy1hcLCC/zIXgyGYfJamk9UHrYmhncjfH025qSlZQoqJKMieHvcOI/m8fHLfJwcCiFU0bUSv5vqNORnKWMQRBvAiBlcRmx8xByRel9EnFPChO43p4oqNLq4e9cONmXCWJYUGcZ5x34qKLuoIDw/+v+2RtjAiP1VHrZWzMfZ4Zanvc0xTzvr7b7ODuuCPd2+D/f1Wk0VzxcgfMc1/Id7cC+ewbNIA2mJLRzeIX0neAAv+A7ewCN4fRyQZ+QdMhDnDqUygsywcgQyhCwhU23h7r27bNmi93kwXWyVwqCPmB/kEZWxm7XlpbiQoNkrli79bx8UT/Ko0yUpqV5kpHeT2OBgA3dbW0OTJk0eka2JiWGAu7thZnKyYY8OHQx79Ohh2Dk72yAuLqipg4NxY2dT00bednZNxowZ6dgqpdkQXyfH/eibicLEJ2ov9DtIwdiowYPYvn/yVSVRCWAcY/eVm3yiFsqj7jLie9q6o6wj9UGWH7vMzt4qvw+CCeO9+XvYyMEDedxBS72mvF+hyU0UNy+Sojy0MtS94WBucjHcz+tA88S4b9MS4t7OSk3uNqBXXsbHixdHbNu0yXfv7t0eIHzHNfyHe3AvnsGzSANpIU2kLZWf+J1XVujrEG/gEbyC58dNdiPvkAFkkfb70VJyguwgQ8gSMtXWPDaW1e3cvp1HP3O1suBdB/U84dPfzXln13Y5A5XDBjiFhnrqQKccjI0bQ8c6d842GEQ616FDpmFyVJShVD/xPSLCVy8xKKhR29DQmrs7m2RRZynVJFRDtgrxdp0S4u3xubut1SoLPZ1VVLtyon7WqgA351VpsdGr2mW2WNUxO2tV69Rmn0QH+s11UpiOtzE2VHra2UwO9vJc6efstNfBxPg2FFEUJghuA4ScHB3JPv/kE3algiNo5QEBaRCcpuuWkyyZDKqE8qB1I8VBuAAEJsVSpcfpDoIFYd0lhqQRSAYBPlFBSPOhUgzVpCtOzvFzcTocFej3CXXoR2anJWd0zskJ6NOtg+1kpVL/8uXLDShZhEt7FM4a33EN/+Ee3Itn8CzSQFpIE2nbGhnw90kVE8QrLeINPIJX8AzeywPyDhlAFm03Yt1n6flFyBCyhEwhW20B0zcY6sdkvW69Vx55OaI88dvO1PCmr5P9P5EBPp8GerhOo7y/aWtiNCbS329uTvP0zzrnZq/Kap66KjYkcJWbtYLrpblOI/6dvISlYX5eo6MCfBOUAwfqC6KuUajXIikuqFl05DgqsJ/IwC75OtvzmgdrEGEsIDsTA+btYMsoI2QoEYwMjsWGBMBNum1nYnjWylCvwMnC7CL6D45miBNScjc1vsPQ4Pr07NyRH1Re2fDg6NptuHCDR4JCR7+5Wt8D7lAKKc6gv87wxbdFd8p/38mCAu6K+TjaM6MGr2vsi/GWjQg7DqhiORnq7fUjVRwjB/fvHb1z404jQaZPDaSBtJAm0vZ1dDiJ/qzq3aUNHjyCV/AM3k8UHBNyoxmQAWQxeMcZLhupmw3ZQYaQJWQK2Vay+1wC2zZvYtnpqY9aZPUKjLvfpHNYkkd0xdpA74SNof4p6oLcSggLYenxMSwxPISFeLrxCg6T3ujf4rs3tewedtYFpKNfhPn5DG8WF+enVCprRoAfPz+/Vy31moQRo4vJR77oaG5yB2cH2xrrc5cInVfR0OBbw5e2NzHkcyIgzPPgmhgPBM+oniu5uROETjwUNNzPhy14dw67roUJakxOf0SuEFqsUqsfiEQlwnaSczfvltuaYQQPgwvo90CB0VKoVxQg5I2M7I6LtSI/PiT4nUG9e0dOnTpVZ+XKlS8LYq00kBbSRNotmyW+E+Thkm9vZnJHyoeUL5FX8L54/ns8L2UBMoAsMOQP2UBG6nKDLCFTyFYbu8ZFnCg4zmZMeZtFkA7A0PiqfrW84FPUI/E61zvSNdJP0jsj7klwPaP/QPgu6qGDqdFt0uVCPzfXRbGhgWH9+vV7tuERKN9127VqFeCoMFlENcc5nApjY6QK6c1rbYkARMJ11EJilFnUpriG/5DhskbPcI9uvZeZs8KMhwTP371bJflKABOyOBBi6t7zfMQMa/fUlQU7o7Hq4dezxeVuCYEL+/033/B1eeAXnXX12ha/0aJ42FsXxwT5fxfu79MhKyPDmR7XmoGpA2n369HDOTUupkNsaNB3VGMXgwdNvIkDDORa8byU55ZDFpAJZAMZqVdS4g4AyBbzcNpadHzr1k22a8dfbEDP7uQhGfEKQlMgVXEgSPwN/YGuiTqH/Er/x3eus0QwOBy6QnTO08FmUfd27QLo1c+u3zZm5Ej79PjYKa5W5udEAxEZ1xbBFcCQtP7r9fhwfl6HduxPzJvdqfwi1svkAq05fZVH7VWNmJU0tGZrj7H2mwr49hFs2ixvZgjzPH26duHD5hjRA99iHngh0m8UoKe9TXGz6IivBvbo0Zweq7bCw7vwTnLvvwIP4AU8lVBG+g3ecawx8oI8lQXIAjKBbCAjyEpqaJAlZArZfnPqKpe1toCy/2bVl7xSc6AWCjxr6gdXhiAXGJ2Lldk56Dh0XRBl9SMlJjIr1MczH62Meg0CUrVeVHugBhFqESmhYDVdU7+OmhaLR3t06sA2/PE7u3nzpiDyygErzhGHHi6OOEEtNTTsLcNpLdsulj8xffnSJTZ3+nTm6+zIR0RRY6q7M8iTp4PtVeqQfztqyJDmy5Ytqy+IsdqAd75F7wYP4AU8lSgz+g7eVaO6jjxPyFtZgEwgG8gIspIamjiBDdki9Li2V/dfOH+Orfx4OcvJSEfsEK4nOOxC1BlNuiVSCR0T9FL0qkqUGV2DbkPHoeuCGKsXlNeGUUF+Y12szO/C3+U1gFBo8HPBJGoacbU5p5f/jzWp+xJr+urLfLNm03qvCJ9SeoWPKOH+hi/V4b4zBk6wTg/7r3CaiLaw/fJNftwRYmaUUJI/sfKBWrONJ/jxRwjnVhZu3LjO1v78E+vQOpMKTdX6SgtMHHzwtLMpQkumHDY4nRUVNRLEWO3Au8EDeAFPUh5FQh6QF+QJeUMeywJkAxnxcHuC3EQ5QqaQLYIBQdbaxvlzZ/nZ1aOHDmKJEWGkd035cjOuX490rDRBv6BnuBd61vjl/zEDyjN0VhwbEPWZjwqTjkPXixir9nKrs2zZQit/N+f3eOEIBiYSaggYSJCHK0uNi2ZpcTGcUmKiWHxYMF+zFunvyyMM41NKuBbu580/m0VF8NHF5UsXs6OHD6uGCLUEnBX2w5mrrMvmk3ydntTQMGqG/gVWQSByVFE5nXkc66ocNoSP2CHfvDUT5ICCQuE7mhnfRv+ob17XjE8//fSZxx0ED+AFPIE36dYjkNiHQZ6QN+SxLEA2kBFkBZlBdlJDg2wRzBWyrorz2e4/uM8O7NvLliyYz3p07MANjuuQr3cp3RIJAym4BwseVHoZyQLcnLnO4hw+UQ6cBLlA15cvXmxN4qvWDab/F+rv5WRnarSIK5OEMfxGB9XT1pq9PW4M2/P3LvbPnj2ccIDgzz98xz5b8TH75MMP2Yply/inlHDtoyWL2VdffsH+2rqVHTl8iLsv2liZLwL98uPXb7PFRy7ymjhZrX/BB0aI3tl3gYdpK68fj/4iVsZjbg8KKiosPkHoVwa4O+enxEV0nD9pUo1Z8ApewBN4A48ivyLvcKmQJ+QNeSwLKlne5bKCzEBSQ4Ns220s4LKGzLU0JlICOLoLo6SIF/PH2rXs0+UfsY+WLimlWyIt/2Ap17N1v/zM9XLHtq1szMjhfEWOccM3HskBBN3Gb+h6pJ+fM4muWiNu/U+3fn0XamoXEzMPMW/xqIDg9xJhzgJGpQ4YTHHxVVZ05Qof1cKnlHANW9hvV3KRcHnAEkWctDn277MsF3NnpByioeETtXLWnwU88CiOvC0L4lAztqHADVH38zFP5u1oX5jRLPGdvt3bKwTZ1RiAJ/AGHsWTe0RCXpAn5A15LG/zKGQEWUFm0nlIfKLSyll/nI3dc5ZtLLzOZV/VwNrXSxcvldItkVBxq4+orvn6KxYfGsLQokF/RWMTdPshdN2oXj1XElu1noH9PwtdXWdiYBGYEA0NhYNaHfMVGBFCbIuaiDv3H7LVJ4v4HisoBBbIirUwOvD4RKBTRPktbxDkOyqczJRknl8MIIiFg0+4Ia6W5nfDvL1+HNS/fyRVMK8IsqsxAE/gLczX60dXKwvVaauSPCBPyBvy+O1Xq4VclwZkBFlBZlIZqr6rDC9vy0m+Cxuyr4lADBboLPILHRYrTdHQiBbZ6Oq6kNhqjqFhIjq3RfMaa2i3xBqYWjO+hEhQCrEGxuEQk/+5wI+hLU8t5s2a+ejkSbFgQMJczH1/V8cDydHhIzFxLMitxgG8pUZHjvR3czpAPD8A72I+eHlS3pBH7JIoC5ARZAWZYVkWZCjKFASPAQa38NDFGnuONnQVOgvdrTWGJrZo6379RchGzcKF2/f4SBnvvBOJCgHlwDB1500n+CERZY02opG7SO6tcuhgUsRGzLCB2kgjuR6W+rq3IwN9PxvSt2cEyasmR2iqk9elfVCQl/ty6vjfUvH+b16QN+Rx5OBBPM9lNfCQFWTWZbMqtr/U0CBnHCWFqZTzJPuaCOhqrWvRarKhQU+wUgHRdqEQ6oYGhYCbU178C0yYItJUt3ZtuHuFuIPIv0iQh725yaXE6MhRmzdvNhZkVmOxcOGnjQM93AZQuRXihBZpXpA35BGRtpDnshYKQFaQGdxxyFC9RcMwP2QO2ZfnJTwryIamZaA/gbgWY/8+V8rQMMma8NsRftTRzss3y+yfXbl8iYd1Q8Qpvt6OFBH5R78GhNGrcD+fA5lpyRl0+0uCzGo0kmIiUsP8PPd72lk/ygfyhLwhjwjnhzwj75oAWUFmfbef4jKUTv7DPceSLDGmSHn93mcF2dC0DOyKxkETI3ed5bEapcuuoByojXGg3+HislcyFBw/ymMoIrwb8ivGL0H+0cfxdXG82Twpdk3nnExfQV41Ht3aZvuBZ18Xh5swMlHRkDfkMczHi+cZeS8LkBkOzoAM1Q0NsobMIfuK7EyvbsiGpmWI8RqxWkHspEMZ4OrwZUP0idMzEf2pLGCDZL+87jyWojidgfzzVoAIgWJSY6Mn9W7XDhOctQK9u7azTo2PngTekQexRRPzh7PCkWfkvSxAZuPyz3EZQpai+wgZQ9aQuRj/saZBNjQtAxsRPz1+hQ9FSw0NigFqs7GAH1V74nrZy65279zBurTJ5fmEEoqFAsIEp5PCfFNccGBbZf/+NXa0UR3gFTyDd+kCBOQNebQzNeZ5Rt7LAmSG89cgQ1GeUkODzCF7bW4G1RZkQ9MyzlFtip2/WAirydBwogrOhcaRtWUB8e4RiltcmCrW/iAoqbuN5c8dMzPivv7665qxabACwILj9lmt4sG7+kofsVVDnpH3sgCZQXY4VVSToUHmkD3KoKZBNjQt43GGBiV5nKFhcXNkoB8PyS0WCEh0HYM8XL97f9688Jo4SV0WwOuShQvDwLvUdRTLFXlFnpH3sgCZzSPZobKSDU07+E8b2tzHGBpWEQR5uvH495oMLdzf5+utW7dis2C1FkplAF7Xr13rRob2uZgfkZBH5BV5Rt7LwhlyCRceUkUSgyxF2eITAyK9yXX8hFxH3FfTIBualqENQ8MqApzogi0WmgwtxNvjsyP796NQahX27tpl4+fqtELMj0jII/KKPJe32gd9L8Tqxwkzmgwtb6vqnILy+r/PCrKhaRlVaWgiQVmhtIKsag1QOaCS0OQ6VsbQ8B27rXEdLV55I7rPCrKhaRlV6TqKBPcLbhjdWqtcR7i7cHs1GVplXEfR0HpQi7bs6GWtx+bXBmRD0zIqYmjaGAzBwEJtGwzBAI48GKLZ0BS6Td43rl/fiUQlG1pF8DhD09bwPobKn0VckKcFpiIwJVHVw/tf1FJDo/wvFAytejd+1lZDkyesNUOesNZsaIIsHnrYWn3SOikpaObMmdXqpdRaQ6u2JVjx0ZOwrEmQV40Hloth2Zi8BKukoWHtKgL2xAYH/DTxrdEtDh48+IYgsmpBrTW06llU7MAXFWOhriCvGg8sgFYtKnaUFxVLDA3dA+w8T4mJXD935vQORUUF1RoJ6/9ee+EFeyqEBbXN0MRtMtiyga0bqGmlhqaNbTLYaoItJ9h6IsirRoOy9BK29GBrD7b4iPlAnrS1TQZbkrA1qbZtkxENLS0ueuO82TM7nTiR31gQW9UjNDT0RUdzc1cbI/0ltc3QUMTixk9sRpQaGlwd1MaV3fiJzZMkg0Jsply4cGH1FcxTAptTsUkVm1XFshRJWxs/YWi1ceOnaGipsVEb3ps1o2O1Glp+/trXRg0Z0IzciTU84KRQ+9UGQwOwnR7b6qEQ2GYvNTQohFZCGejp3EJ4gLwuuUEkshodygDhFhB2AeEXOO+SvGgjlAEMDXJG+AiEkaiJqJGGdurU3iaL5s3tkh4fuxlMiIUjGpoYnKe8OZdnCQSIQaAYsZMuNTQohNaC87g5HUDgm5oenAcBhBBIqCqC8+CzBf1GICQEREJgpJqI9b//znJbZpQKziMaGlzHBXNmda52Q8NL0+NjNmkyNLFFK28VwbMEQp5h9AsuIpRBHHlUfVd9Yii60uHmrCzuIpRbjQ835+31I0LjgWdpHpAn5E0b4ebgUiLEX20LN/dMW7Tt27c3mDB6dKuYoIBf4TqKtSAKhw916zVlcaHBPBosgqEWFxeza8XX+MEEiAy7fctm9te2rWzH9m2lCNcxKfr3rp3s5IkCVXWpZWDQC8E8EdQTAVTVa2A5gKqq0tRGAFV4DDyA6t9nedDaqh5wPH3qJD+1dBvpmCb9AkHHQIcO7Gfnz51jZ06dYssWv8/iQoJ43qHDjyockgN0HLo+dvSI1tB9QXxVj7Vr19Z9a9Cg8CB3ly95wQhMccboO3x6N3I3cPTPR0sXs89WrGBffPIJW7JwPhs3eiQb0rcXGzagHxs+sH8pwvWh/Xrz/s/cmdPZrz/9yAqOHSNDLRZEWXnIIcH/WyHBEfn66KFDbO0vP3F3fsSgAWww6Zgm/QIN7d+X6xmmKxCzH4daYmALc4U43EOUAyfhO3R91KD+kdB9QYRVD6VS+X9ff77cjjr7C6WDISKhNrSi5tbL3pYfWIFDLaIC/fhcDI4D8rS34TVlWST+H+jhypIiw7nhwU27eLHsUyifFPIhF9V9yEVxlQRPvXDhPPtm9ZdscJ9e/FzzQDfnEjpUHuFgC+hkiLcHP4rXygCHaJbUZeg25ANd/3LFCnvoviDG6gH5929EBwcOc7NWXBaPbSrZsjXhh13wI3KEY3R067/Cj3IybPAaH83C8UClCNfpfxw8iGdBOGwuu3kq+/iDpezsmdOCiCsP+dim6jm2CTL+i2StTdy8cYPt2b2LzZs9i2WlpzJnhTnXLyx+xhFMXMdEnVInQf+4jtEzevXrMhxkWKolI4Juu1opLkPXcTC/IMbqRUZCQlyEr9cPTuYmt3k/TcooEa6hM4naEYQCRWv3JITnYLA4ZC41Npp9uGQRGdsZflhGZfGsDiLEYYD/9YMIW5EsIdNcku2Uf3AQoXYPLfl75w42duQIFurtySsF8A16Gh0DlZADygzXiJwtTG9HB/r9AF0XxFj9GNa7t15CWFieg6nxXktiSt3QtEVYmYCWEILEeVafrVjOLhZeEET+9Hh2R+tG/ueP1sWQPmTab/sp9nnBFVaoxfmz4qIiNn/WLBbs4c4Pi0crBd1QN5anJaTDiXSaWrO97bJb5kHXBVE+G2Q0a2blYWM1llq1QxgataUCFJmE4cG/RT+O9+WETIh9GV4DCQpZ4h56FrWMmHGR4EbiervWLanj+7Mg9qfHMzss3s66GP0jHOCOg9zp8f/cYfFY2wiZTvrnPMu/cktr82fFV6+yH9d8y7LSUvjyMHg7Cn3NBoaV99Ap1WoXUe9KHhYv6p2ol9BHexNDqjDN6dNor5PCfNTkyWMtBXE+O6xcufJ/2RnJDiFe7mPcba0P2JsZXyPG76LGxICIeuYxJ4HzqOk+TrbGhg9wv0Kv6R2FflPqmKuexX24HwIQn4WAUIOhxp005k1+1lVlXchr1Jn/iGpluI/qyoLvqJXxfc6BQnbuJlq1soHD8JYsmMeSIsM431wJJPzju/jb3szkTpCHS37LZonvDOrfOxITx/Pnz9da+HCkhTSRNt6Bd+Gd6nyIv0Vewfvi+e/xvJQFyACyeJdkAtlARqXkRrKETD86epkVlzOY9KT4Z8/frE+3LlwH4OlAJ8R8cBLyRXr0wNJA9w7p1W0LPR2uV6R3DzEhjQYBOijqGAjfbag/Rp933WwsrwV6uh0IdHMZqt+woRm9tmas7CFG/i+jWYxVYmRYtr+b8zRfJ/vf/Jwdj1JtcMZCV6fAXLcJJzKgAi9724KYIP+C9PiYk+kJsadiggP+cbexWkuC+NbaQP8rF2uLtdQ/OEs1L3e11I865a4CdWTbtMxgm/78g924XnZHvSKAnW64cIMpd59jOTiUUE1poEQp646yQX+hVbvGisjdLA8nC6hPMmEsH7EzaoC+ZWmXBi0KPjGs7uvocDLM1/vH5NjIkV07tg1btWpVQ0GsTw2kgbSQJtLGO/Au6btFAm/gEbyCZ/B+ouCYkBvNgAwgi8E7znDZiJWRaGSQIWQJmUK2lasKS+LnH75nUQG+DGdQq/et8J17Qno69yi/e5wtTddQq/aVaaOGq6gRWJcYGXq4eWL86dS46ILYkKACD9JF6KWZTuMC0sEzEf6+R6OD/H9LjAid1jojLTslNtRcEGnNAsmhTm5uK/tkMriEsJARXg524xS6OkrqrHKyMzVWRvj5KDtkZSoH9+391vD+fd/q0i67f6ivV461gUGag4lhcpCXa05McOD4cF/vda42iqu2xvolFIMrBdW+EX7ebNbUKapJ7UoCGxGx67rrlpMsmRSnRO1MHXqxdp6Uf579ffnWYxUHE6ajhgxi/q7OnFeMaKm7alAKkK0RRrUsmJ+r45FgT48Pgzzd+2PVf/d2OQE9OnWy6d+li87ZXbvqU7Kl3Etcw3+4B/fiGTyLNJAW0kTaeIf4PikP4Am8gUfwCp7Be3lA3iEDyALLrSAbyEhqaJAhZAmZamuTJzyXC+fPs7kzpsP1Zk3qvlgiP1RR8wUCjuYmhfT/Kh8Hu36B7o7plrq6yXr1Xk4M9/fJ7dO187DhA/uPHdy7p7JTTo4yjHQRemncuKEy2MNjXNtWGSN6de2UPX3SGHt6ZU1en6pq3XJycupnJSY28nNwaGzaoEEjkZxNTRslJgY1Gjq0e6O5cyc2mjZtWuMhQ4Y0iI6Orm9sbPxqqJlZXXzPiIlp3D4zIy3C3+dPNxvFQ6w0EYWKGgsuA2rozrnZbOvmTbwgKgN0vXZfuclG7DrLJ1wx+ljC2IjSSHk6bjzBlpObefZW2cP9wN27d/kGyZGDBzIfJ3uqYVUDOppqYHxyt8VI/6GlQdPrVBldCPP13J+RFL8mPT52EnY9d85qFY8YJOvWrXNfv369JQjfcQ3/4R7ci2fwLNJAWkhTkwuO76IcwRt4BK/gGbyXB+QdMoAs0n5Xq5SIIDvIELKETLU1QX3v3j2+eAFlji4HvBoxT/i0MdRnzgqzh2Henl8P6NszIjQ0tGGGn9+rZqRTpJZ1c0ivpiuVDaFzcydOJB0c2igxKOiRbsb4+TXu3r17oylTpqBSq965smeJb1eu1G+RnDTBy9H2OFdQuAQSJTFq8BqfaPzsk4/Z3TK2bjwJsOt38WFVBKcMtGISdwgE5UHt3Wf7KfbNqSLq3D9eg3bv2sFdMfR7wLs4cioqPM8PddKRJ9UAkDAySTW2r4vDbex2RmgBxPEI8nBdE+Tp9gUZxXIQvuMa/sM9uJc/I7rclBbS5GmrDRaAB/CC7+ANPILXxwF5Rt4hA8hCugoEBJll/H6cyxCy1OZOalQAs9+ZRpWCAy9/qYdAfXtsTbrvZqU4GuPvP4Rur77VG7UdmPPp1b1zDHVKv3cwM+IjRxAoFywpD5/Ipppt7KgR/DT+Bw8q1+G+SUqEjYtYgQ6lwYiZVIlQW2OBbCpdH7HzDNtSeINdr8DCveNHj/DBhWxMqlIHHiNlmDDV1HcTiRsH/pP+X4Hfj54Tr0kI1/FOvBs8gBfwBN7A4+OAvCLPyDtkIC4WlsqIy4wqKcgQsoRMtYEHD+6z0ydPsv553Yn3Bnyer0TeyPCsDXWv+7s4rkyJiooUVEhGRUDyrbN27VqdpPCQ2X7ODljGxGsyUbnQosEvb5mSxL789BO+UqAygErcJsX4/vRV1mvrqUcT2FJlaikoEzr64/ecZ5tJ8R63Wxh9C4zgff/N16x31y7Mz9mR18Yi8dZazTi4wahfx/dyfmt8RrgutgAigQfwAp7A2+NGbpHHLRdv8Dwj75ABZCHKRXQZITPIDjKELLVjZoxduXKZrflqNctIjOerPjAgJs0jyM7E6FxyTNTQ7774osafsFoj0TIlIS/cz/MY9cnuSQ1NVFIsBB0zYhgrvFD5CWwAwT3h9rSjPkjS2qNceUSF4kpFv+EyQeHm7C/kO4YrAiyK3rxhA3t3+nTWISsTq/qZ/uuv8hXyqKF53tSUp7KENJE23oF34Z14N3gALxVdqI08YigfeUbepYMfIMgIsoLMFpHstB0gdf++vWzkwAHcbYSRie63WKl42FhSN8J9X7vWLZvR7bXihNUah/atWwRFBvotszM1uiJObotChsAxLN0xqzWfX6ms+wg8oHoYE6yIKYI+B+bWpEuzQLgO5crbepItPaIKcY3J74rg8uXL7Dfq1CuHDuEr47G4FfM6GJjACge01HDtsOGyrBZPStIWC8/wSVxKA2khTaSNd+BdeCfeDR4qAuQJeUMesZ8MeVbvu0I2kBGui0fnQobaxC8/fs+aRUVQHlX5FCsl/kn5J5fxRnp8zGed2mQ6Cmoj40mBUaLowMCutsaGh0u4TkQwNL3X6rKkiDC2auWn5a7LexJgEhvxL7DqQXQXpcql6q+p+my9tqkObthfdPuxbqQIzP0dP3aU/bn2NzZj8tssM6WZaqc25QeGghUa+M6VSlCsconu4YZGz+BZbqj0HWkibbwD78I7KzrviLwgT8gb8thSqFw09csgI8iqvDgrT4tr14rZIupHetjZMN36dUtUOqrvOhju35oWG921X79+1bcp87+I1NhY/wA3l9/hJqJfJgobymXc6HU+rzKgZ95j54CeBBgx+/JEEVcyGBTv/JOiSY0NNTmUDzHl4VphgS36Jk8C7LX7dtWX5M69w0YNHsiDlCLiFELZuVoreH4RIKfJK/9jDV+sww+bAOE7ruE/3IN78QyeRRpIC2kibbzjSYA8IC/IE/KGPJZaNUPXVC27qrKBrCAzbbZl9+7eZbuoTAf16clsTQz5KnvRyEDIt42RAXO3tVnaKTPTUalUviiojIynQe8uXUyz01Lmhnh5XIZwRRdSdJvgt2OoH+HQtLGqXwRW96PP0W3zSb52DwonKppobLgG9ylnAwZIzvEBEsQtfBIuwPP9+/f5wAQiTSEfUyeOZ/3yuvEVMKnk9kX4+bAQL3d+ogsI33EN/+Ee3Itn8CzSQFpI80nkgTvBO0YXkRfkSRzkUG/JcA1rQ3FCDGQEWWkbWNe4eP48FhcWzI0KLbVoZCh7LKnCVp/Y4MBRlM9aE369xmL96tWv9+vetU2oj9d6EjIOHHgkcBCG+tEXwaqByo4+SoE+Sn7RLTbln/Msi5QL82vq/TVes1Ntj0GC3A3H2fCdZ9lXJ7Ei4ukGBDBfdIlcYLRCmEDG1vstGzfwXc6Ia4Fjk0D4jmv4D/fgXjyDZx836VwWwDN4x2Qz8iLOHaoPfkAGkAW+QzaQUUX7qE8CrAQZPqAfX/GBHd+oVHmZo4KlytbZ0vxWXGjQlq5tslsLqiKjMiCZvzhy0CDrUA/3mY4WJvcgeKmvjs17mKSd+OZodk5Le9VEwI3aVHidTco/x/dWQfnUjQ2EGh/9FezLwoQuto9gqVKRlvssVQHwCF7BM3hHS4W8qLdiIORdVakUsIkkk00Xrj+xu1xRnDl9mnVt14bpvvrKo50FoqGhsnWxsjjTpmXzyTOmjMfhEzK0hSh/3z6B7q53sH4PtZtobBi6hqFhrd6hAwe0MvooBbaEwJ3CqBoUDKsfNLlTqPnRZ0F/BqfSTMq/wBffnrt1l92ughq/sgBP4A08glfwrOp3lm7FRDcZeYcMIAvIpLytQ5UFDK1TThZr/PL/Ss+dUdk7WZj8k9epTUu6VV4Jok2kxsd0jgkOvI3hagyESA0NrRwCr+zfu1frhgbwlREXb7AJe86z1qR0qPFF90mdUOOjVWiz4QRf4Y5BhV/OFpNS15zgoeAFPIE38AhewTN415Qn5BV5Rt4hA8iiIitjKgMYWsfs1mRo/1eWoe3q36NTrKAeMrQBxGto3iz+zWAvt7uuluYlWjQM8SMM91vDh/J+ijZdRylQe2+6cIP3SzAIICofhr6hgFLFRAuAUTnEzMBvHP7w8bErbCspKAYOrj4DlxLvxLvBA3gBT+ANPIJX9RYaeULexEoFeUbeIYOqbMlEwNCwiLjJKy+VMjTuOlqaH+7aLqdnQUH1Hjzxn8XmzZvfGDNyaHJscMDX9qZGD6Tnd4HQR0OL9s6kCeXuCtYG0B/BpCxG2nrz+SXV0Dc+1RVVNWigcsVarz/OA9jg6CKcIYbIUQjTdoNahXtUMVSF3iJNpI134F14J94NHsALeAJv4FG934m8SPOGpVXIM/JeVX0ydZw7e5b17tqZGTdUTeA/6pfTJwZDqI92pXlC7GcDe3WPqfboVP81zJ4woUluRnqryADvVdQ3O0st2cNHo09EED6iGSFc2NKFC/h2iqoGavOj1DIg2jFaBSiqpuVaUqWFwibTPRgswYmYCM82fd8FHngUUX63X7rJCsgYMFleWSANpIU0kTbegXfhnXg3eAAv4Em9chAJeUGekDfkEfNkyHN1tGQiMEUxZuRwxO3gHgy6C6KhodztTAzveznYnAn2dFsW5OYW1aKaj739zwBbZdq0bNkmyNP1O1tj/Rvqw/oQPpYZQejJ0RHsh2+/FYqoelBI/RzEKxy356wq3BopJ9wsPpigQXlxDYT/cR8I8TZwTNRkcslwSATS20kGcuDqba7YCOeGI2tBp2/e5RspQfguXsc9uBfP4FmkgbSQJtLGO8T3ibyVxZ/IG/KCPCFvSO/CM+hfXr9+na38eDlLi4/lZYw9aNLyBwkGV+htZ/tJSnREsylTlLqC+sioCL7/4gsD5YABvRNCQ9bbmhhe17QyHTUchO/jaMdXQuzZvVsooupDMblle67c5AuR4V5hmwhaAz4qCVJTZpDokkGh8YlrOFgDwVzzKI2+207zVgSnZ8LVw7nQOIR94aFLfN0hCN9xDf/hHtyLZ/As0kBaSBNpS9+Fd0t5AXHDE3jmrTIR8oI8IW/I47MABrUwuDV66BAe21OPugjqOoDfqHCdLEyvxocE/dm9Q4duzyz+Ym3DkN69TTNTmvWKDw3a4mlnfV8UplTA+C0uoG3RLIH9sOZbHqznWeHY9Tvse3LTMFiAjY8YvXucewaStiKp647yo6QSflN9Yg0hQijA3cPQO9LFgAQI33EN/+Ee3Ct9FmlJWzBN7wbhP/AIXsEz0kVLiLwgT88at27dYl9/+QXfoArvRdNOB/xG9DVvqnATIsI29enaueuWtWv1BXWSoQ6S64u5LVqYJkWG9gtwdd5qa2xwV91dFAULgWNQJCY4kL07Yzo7e/aMqmSeIe5Q/2XXZVXrNnzXGdaVlBbLmLC6AkqvadBBqvCc6H/cUxkSW9KyDAz3gBfOExF4BK/gGbzD/UReagqOHD7EB7qig/wfLbx+1F+T6AQqZE97m4eJ4SHbWqeldLIiBRFUS4YUwwb2dkkKC5vg42i7h4zsDsKKq9deMDxxZXt0oB+bP2c2O3P6VJXMnT0NMCKHPtRuMjgEp0EkKEzwSg3tkVFJlF8T4X+pAaF1kpL0v4qkJRLuFw0NvIFH8AqewXt1jSpWFAhVgW1QE5SjWLCnG5W9qqItoReC14MQ3k4Ks7uOFiabnRTmvQcNGmQoqJcMYGjv3p6tUpq9E+DidBzrFsUaSipMXOPbSMiFwELT92bN5Ecn1VRgUnj9hRt8YAKBRDGsDsXGqB9G9OCuPXLvSPk1GUhlCEaFtPEOvAvvxLvBA3gBT+ANPNakyXRNQDiDXTv+YlMnjOdeDCpaGBs+seD4kcGRjuAa1ka6Wlv8lRQdPrJ7DTwyq9qBrQ1z5rzjmNs8bXaYj9d50cikBsZrKy7Y1/nv6KAA9u7M6ezcubNCMdRcwANDANH8opvsC2o1EIcehz5gsAI7kuG2wSjQwqCvJBJ+S1svkcQWTNN/0jRgXPiEscGw8C68E+8GD+AFPIG3GuQllgssRDh65DCbOWUyiw0JJD3BYYllhPIjHXJWmOFEohMtkpN6dOnSpR6pW80OIVeV6NWrq0O7zJaTycgK/g3yWbqzyzc0Nn6DH/+0YO4cdurkSUH8tQNY3Y4h8sPFd/gxtBgyX3zkEhv79zm+5wtHz8I40OKAREOREvpTMCZOav+B8AyWUWGlBwZEYHwYgcS6RLwL78S7wQN4qYoV99WBE8ePsdnvTCFd8OdGhoBD6t4P5toQExTGFh7g/W3L9MQEwdieL5C86uTn5zdum9WiS7iP10FnCzPe3KsLTGVgDbjAyLVk7783l4zshEritRg4KwyjejgFExPfGLKfdaCQByYdS4YxctdZ3vpgHgxuHk5s6SkM24PwHdfwH+7BvXgGRjWR0nhn7wV+TjcmmnG6Kd5VFeeTPSscOrifzZs9k+uEnYkRD59n2qRBCTcSIfcwYOblYHsuPiRw1qAePZ6//hrJ6uUPFy8ITo2L/sDB1Oi2ONsvCgnfRT/cxUrBV3F/u3oVn8T8rwDtCVoVxEvE8bQXbt/jh25gmdN6boBX2crjV7ibh8EK9KfmHbzECd9xDf/hHtyLZ/As0jhPaWHpFdLGO2pn21U2Hj4keZ0/z1atXMnatmrB7IwNucejrkMwNBeFOSJ//dqva1dXevT5ch8RobhHpw7dIvx9t0MYFtSaiQJCrYSRRRiZo7kJ65SbxX5Y8w0rKnp282TVCSxzwk5nhAY4c/MuO3fzHidEl8IKEBC+i9dxD+7FM9W5RKom4PLFi+zbr1axbm1z+QkwcCOlXQ/oFubYnC3Nd2QkJCRW69G4NQFxcXFNQ30933K3tS7gzb1QE6EWgqDw6Wlvw7q1b8vWfP0VtWTXBNHKkFESN2/eZL/8+ANrmZz4KHqYtGWDsVkZ6e30dnbIUvbq9Yaggs8HFAqFrrWx/iQrQ70zojDwCSODC4DaCXuRcBYWVgfIkFEejhw+zOOmUDeE65A4EsmNjOuW7k4HU+PsOB+f58vQ9OrX1zVu/Poks6aN1AytMTN4ox4LcHVik8eOqXWjizKqH+fPnWOfLv+IRzKGdwRDk7qP8JbsTQx3x4aH5n44c+bzZWhOFhZ6DhYmU2xNDM9bSlxHCAgh1LCLemCvHmzDH7+z27flFk2GZiBC9ccfLGUZSfFYxc9HqEsYGZG1oS6OxtrWPisriR55vob406KjdaOD/CZ5OdqexdFC/65pVPXRQF4OdmxYv75s66aNZGzaPWxcRu1HYeEF9uGSRaxFs0SNRsZHHakSx/ysp63NN+kxMXb02PO1QXTSkCEN2rVu2TXEx2MbjuCVLh6GcDDiiFggOIZoaN8+bMuGDeyObGwyBGB9K1oyGBn0BYcpYqSaD6wJesT7aWRsXvY2p6MC/CfgPDRB/Z4fsO3bX1IOGuQR7uf9ro2R/k2xjyYlCEr/tVd5aGsY2+b16+WW7bnHQ1Z0+TJb/sESlp4Qx8+dhpGpu4v4DU/J2cL0TlSg32ed22THTJs27VVB/Z4vzJ8/v16Qu3uOi6XFPjT9Yj9NSmjZsOfM3daSDe7Ti23ZuFFu2Z5jXLpYyL74dAXLbp7GQwyKLZlUZ/gUEVXSCJMeExxwoEvbrB5KpbLhcx1XJDIoyCYmJHCys6XFMXHuQ9q6wRWA742462jZhvTtzY8cul3FQ/7YdoMoTLt27OBRgX/54QdOOKz8j3W/sb35+Txk9fOGSxcv8p3s639fx3776Scuk19//JFHTf571052vgoXeqPM1/78E2uX2bKEkZVyF+nTjYwsOihgX6c2OSNxJrWgbs8v8vPzX54w4S1vbwe7yea6jQ+QsZWKcgUDhACxns3NxpIN7deXh8KuCjcSBysg+tKGP/9gi+a9x4YN6MeX+LRMTmKtiNAnaJ/Vip80uvqLz9j+f/7hQWRu3LhRZWHuniVQ4SBvyOOe3bvYpx99yEYPGcw652ax1mkpXC6Zqcn83LWRgwawZYvfZzv/2sZP9rmvxUBJKGuUOboQaKnQpVAf+FBV1DpYF/sgJijgIPGkXLVihQk9/vyu2peCFPSVIBcXGwvdxsMVek0OWen/W0NJCTUYlti421pTy9aHj0beuaNdY/tr61Y2QTmalCiVRfr7MG8ne+ZoYcpPM4F7i7B2TgpT5u/mzBLCQ/mk+njlKPbVF5/zY5H+S0BEsQP79/G8oWLJbZHOYoMDmJ+LEz+aF1uaRLk4Kcz4ofPYK5aTkcamTZzADVMbQBmjrFHmOL4JHo70wAsQjA7uoqol8z9E5TJCOXSovA9NE6xMmloqdHVGKfSa7oXw4BKou5HY9IlzshBebii5kZvW/8lu3bopFMnT42pRET/1v19ed+Zlb8tD2OHwDBg33gkXRST8Rr9Rp+5L/KhXHBuVlZ7KJo55k63+bCWveU+eKBBSrl2AcZ04fpzkup59/MEH7M3hQ3neoMBNX32ZNaU8G5cjEz1qaSA3XycHavkGsb+2bWX37z99ywZ3EWWMskaZo+zxrtLuog42esLI9nbOzR41b+ZMS0GtZGhAHUvDRiYKfRibziES4sOy3EicaOlObiT6bNyNrESfDaev/LhmDT+0z5JaU6Rf4jBAqi1F1wSE3/weKnCQOMKFZWNhPp7UymWy92bNYDvIhcJC6Jo+Ugr3EOsFz545zTZtWM/PVUM/KNDNhUefQt6QRy4Tyu8jmYhyoU9RJpAZWhzcCxdvWP++bPfOHU/lRqJMVS0ZGRmVNcoc78A7pfoAInfxIbW2h9pntx4lu4sVhKVxUytLA53hlnpND2ga9kdthpYGrQlGI4f06cW2btz41McVoWPfrV1b3sHGec8wHmlhlke4D4Wvqs3r8k9HCxO+QbVtywzeIuAw+5occgHxOD54fyEbPqA/y23ZnEUF+HG3EPLFIBTyhDxqyr8mgkzQ6qFP7UmuHowNBwo+Cbi7KPTJUMbgBWUubclg3CDuLgb6H+yU3Xq4Uqm0EtRIRkVgqqdnQS3baCq0fY8KUU35UXsiHLgH9dlQIBgdfJKtNFisvHXzJr4YFa0Ramv4+VIjw/cStbeEpLxI7wVfiDcJVwvG2yIpgU0dP5bzhz1UNQFw504UFPAwfcphQ1hcSBBvuWAcMBLkoaw8qkiUh0rZRflI78N1DFrgpNaRgwayndu3U2X4+BB26ApsppZ1aD/qk1HZoozBjzofkC1azeggv32dcrKUCxYssBDUR8YToI4h3EjeZ9M5DOHy1k2tMNH6QDFQq2FLzXfffMWuXi0SiqxsYIRwy6YNrE+3LnzaALu71QtTJN5XNNB9SPRA+CzRd5SSqGDgS+zfWZNCYF8dRi2XL13Czp4+LXDxbICTQPf9k8+mT57EEsND+UAG8sRl2UgV5x55KJm3f+XO8y+VCRko/13i/n/LB26kOxnbsP79+BQANm2WBbjZvCUjI0OfDK0p0kBa0nTBH5ZWUZ/scEdyF1csXiy7i5WBQkfH2tpEf4SDmcl+jPiJtacodBQwRqCwXAv9iXatW7IVHy7jc2DlYdOGDbwlw3QB9/3VanB8tzbQ44UZ4OZ8PjLAd12Yt8eqAHfntZ72NucRegE1Ku+fqLWCUgK/UBacO42+C47CXbbofXbm1KlnsusZMxA4Q27iW29Svlx43tHygje0TprygLzxvpGuDt+Ggv6Sj5P92UA3519JLl9G+vts9na0K3IwNebloS4LGBpaNkSURiz9I4cPCtyUxJ3bd3hLhq6ABxkZBqTU3UWR8A5yb/fHhQWNeHvMGGtBXWRUBu7u9mY+Lk6jvR3t96HTa02CV69xoexQaLQezRNiqeVYzFd2qwMdf+xdwllqGLaHEpg3Le2WwICczE3vhHh6HMhMTZ43pE+fNsP79Ilvn9kiJzrYf1agh+tGqnGPOJobF1ElwOMJorWVupjqaaKfgdo5JSaKrVi2lF2u4pNvNAEV0LxZM1mwpzs3MPXWQsqvWKGhQkGL7GaluEKVzP5AN9dfEiNC3umY1Spr3FujYvvlde2aGBG22M3K8gDd/4BXhpI08R2GCs8j0MOFzZk+jQ+8SIGBD6xn5aOLZMjoG2rqF1oZ8M+HCr2m+8jwR+s3bGgmqIkMbQARjLPTU0dgZMnFykJVw6opCFw/1IBo+VokxbMPF5c2tqOHD7EZk9/mB63jXlVNXtooYDT+rs67e3RoN+TdGTNcVq1a0nD79u31sJQnJyPDQjlkSETblhl940IDVoZ4uh8hnu6pntXcKmArkMgfFA5zUls3bRK4qj788O03LJUMHfLDnKQmZRYJckBrQhXSvRBvj2MZifEfZ6WndGyZlOTRIinJdNKkSQ1Onz5db/bs2U0G9O7tFODmNtzGUP+wpZ7m9OCWQq5RQf48uvT58+c4TwiQuo1kwQc+yI3HNilN5SK6pnSduhI6IxQGdU0F9ZChTSx+b4Z157atR1Dndz/6ZCgIqaJAKaDMUGTUfBiE+Ji3HJd4gaLzP/udqVj/xp9Fba7eMqJ1w3+uVoojKdGR47777rsy52P++mu9YefcrKikiNBuId5e7/i5Ov3g42hbgBrZiVoA8CNNX/zd8MU6PEzDrKlT+JxVdQD9MrirE99U8glmuGXSfIO4G6zbmIdpI5f6ga+zwwF/V6fVoT5e05Jjo3sM69cvvKCo7EP/urRubRfq4THN3UpxCu+AYUiNxYK+o/8HuVMLyKNMr1+3jv303Ro+hO9FMoGLCYMs4S7Sc2I61JLtV+jrjESXQnitjKrAqlUrTDpktVRGBwYcdFaYP+AFqGYs+I2WA4WNlg3LhjC8jMjGCLyJe9RXFqAgQXYmBhjpOhMfHjK9d+fO3sJrH4s5c+bo9+3aNSU9PnpKkIfbb562Nsepz3gdI3nq74EiOZgZ81YNoRqqA9evXePvateqBecBrZmULyg2Tk0l17vYxdriUKi3x5pWKYlvDurdO3LTpk16lMRjBxronpfeGjDAt1l42EIfR/srjpRHTQMkqAztqK+HKZDuHdrx1TWY9Ifrr16WuB9pgD8rfb1DZGRKhUEjuSWrDpDbZoo5k5jgwIM4pK4sNxJkT4WNwxHSqd8W6u3J+xvipKv0fvTxMLIW7OFWSMr40bC+fQOpNXtFeGWFsH79+te7t89SRAV4eyVHhncI9/P6ljr13NikCoR3431Bnm7sg/cXVMsaSWz3n/3ONL6sDK0W+qYiP5AdjxSlML8R6uP5eWZqak5SRIRH7y5dTIm3J9paguV0U5TKiNZpKUt9nRyuoLIT3yG+D7KADGA8KD8s54InAXdRvEcktLJIg/rmpxwtzN6UjayasXDaNCuszI4JDNgLNxKFou5GonDhpmAeBhPRcEtgfPweiWuCgketSf2swtSY6GWzp06NJt2sVFiyhw/P1h/ct0fbuNCgP3AqjtTQwBdqb0wKz5o2pVoM7SS5zZg8x9FGXNFFOYCIH1Lmy34ujt/lZrVqAWMRsvFUoNfVG//WqMhIf78PHc1NzuB94sCKVAYoL7TuMDBeBmplgk+44OTCno8NDXw3LsjHQXiFjOoEltpgDgUrtTEaiU44ClBae4oFCgPDp/p/IBgZPX8pws/345yMNBiZVvYtXb582axlctIYGyODYnVFw5pA8DRl/LhqMTT0T0cNGcQX5aobGvJvZ2qYH+Tp3qtNmzZGAvuVAjZZNosOj/Cyt1tuZ2x4CyPF4iS3+F5812SEIsG99nN1vpaWELt02rRJfpQN+ejcZwWs0O6ckzUMK7axSgAumVgbPo54IVNhu1qa3wnx8vg+NTo6Pi8v7zUh6UqDFOP/gj1cs630dS9C0aTv1iVDQ00+edzYZ2poGDQCb1aGultcbcxSQ0NDtRZgFLHus9JTWpGLv87JwuwO3MPHlY1Y+aEl83d1uto8KX7J2BEjgirbysrQAhbNnavAEhzqXO+DscEFQeslGpJ6QXJFo/8x90Wd8IfRgf7rWiQk5FTFIQhk+M3pnRcw0CDl41m0aKOHDmae9rYaDc1Cr8lGw4avNiOWtbrd/6fVqw3zOnfuEOHv+7O7jeI6JrX5+0j+4OGRp0E8qcqrCfWjDRi5sQXUr/5AOWJIiJCUjGcN0qM6K0Q3MjjggJOF6R0oEQYh+KiXaGz0CSMURwLdbCxvJoSHbunRsV2nmVUQ7w98BXm5t6d3XhQmWh9RTTM0hb7OZmtj3TQXPb36AvtaAb26zvLlyxsN7N0jKzk64htqUS9Tf/AWlcF9jPBioAPznjZG+g/p2j1bE8MbLpYWe+MjQqbMmTLBV27JaiAmKIdaUcvWA8FY/F2dTyM2JFotjLLxuRiqOeH3Y0Ag0MPlUGSg34Kc9PTmH86bZyAkoVWQkum0z249lBSpqCb00TQZGjc2Intz452xwb7tlMr+OgL7WsX27Wt1enZqFxEdGjAoxMt9aUSAz9akyPCTKbFRhfFhQSdDvD32UHn8QsY4NzLQp01m8+aOxPaLwuMyahqOHTvWsFfnDjFpsdETQ308v/Z1dtjgYmXxl4O58Q43a8vtfq5Of4YHeH/WMjlhZI8uHbyEx6oEpCiKQb17TrA3NSpWTR/UTENDJYClVd3a5g5atWqFucB+lWDzwc1vdO/cOaBLh7bd+uXljRvUt+c0MsBxWRkpA/r16Ja1atVKN2L3+Q2iU5uwZMmSujk5abrtWre2nj19SljfvLyMjMS4zJGDB6RPnTQ2oFVKinmXLq111q5dW6U1JhmQxYAe3ceXZWiYeqjOwRBNhsb7rMRbgJvzseEDB4zftG5dlQeyWbly5ctYyjZFqdSdMWO8nnLAAN1+HTs2XjlnzmvEqjyyWFtBilz/YWHh6/RZrXH9rly5Yt6mZcY46oeUGt7HlnysXpk05q1qMzRNo46ioQV7uBW8NWLY5J1btjgK7MuQUTtALat5qJ/POCtDveJHAzKCcmMJlGrCemq1GZpy6BAeD0WTofm5OB0f2LvnpF+++06eFJZRuxDq62puZ2w0TqHftFicR4Nio2+G71jrt2LZB4IpVC1Onzwp7EFzJh6a8GVoKsNXzVu52Vgdz0xNnjReqZQNTUbtgt4rL5ibNmlUytAwUY1h7bT4GB7KrTpw8cIFHqcyMTKUG9e/6wpVLa2tidFxH2fHSXFBQbKhyahdMGvwirl50yalDA2DIFjcnBQVXm2GhiCoKz9ezponxnE++N4wbmiYS9NlCl2d4xa6Om+bNm4sG5qM2gVbvQYaDU10HbGr4LMVHwumULUounKFzZs9i7+TG7tkpbxoaGY6jWVDk1H7EBceYGlvajzRQrdxsRUpt2hoGIwAYfMnou9i4+PaX35m6379pUrot59/4qevIFYjon2hj/bvdAPxRTzZGhse94PrGBEhG5qM2oX+3bubBLg6j7E11r+hvtYRhoZPX2dHlhobzaMB44SUqqBWKc34hldnhRk3MBj7v7yodi+4WFsczEhKGKRUDqnSCWsZMrQOpVJZLyUmqq+Po911KDkUXFRy3rKR0sPg4LphxzE2qWLIX2uE9IgQHx/vM9MpueEV1/Bu7IT2drLf2ik3K2n+1/Ofr6NnZfw30Dk7MzkywHePq7XinrhK/d/WBMrehCs/+m1VSaVbMqFVpWtUCVwNdHNZ0rlNGzlevYzaiV7t2ztQqzbNy8H2OB8QUVN2KD9v3Ujpq5LUjQx8oDWzNTa472FvvS7E061NixYttLYXT4aMasWAnJz6A/LyQppFhX/p5+L4ELsJeMumrvjVSNjNgBbO1cqChfp4nk5PjB0W4eeHndVypF8ZtRdYa9mzS8ecpMiINS6WFqexHw7BcDAIwVscUnoYH++zaSDxP7iZeAYt45MSnoNxWxvqMnvqszmYGRcFe3nszmnRfNbUiWM8BVZlyKjdmKlUvtGlbdvIAHeX6e62VgdcFOYPsNkRLQwMryIEV4/uxzMghNoTvz+WyMgQJ/+hvanRA3cbqzMR/j5ftGuZ0Wnu3Lm2OHVVYFOGjNoPxthLCaGhbnEhQV0Sw0Nnhvl4rowK9Ps1NTZqQ1pc9EZ8aqL0+Bj+X7if93fOCrOPyHAWKXSbvI/PxxHdt8i8ScNFjhami6MD/RbHBQVODnR16toqJSXyu08/bSqwJkPGfw9kcC/+888/ZsoRQ8LGjh7Reu7MdzotmDOr83uzZnTURO/PmcP/GzVkSEpcaKCftVFTVwvdhs42uroujyO6z0X3pRdckiMj3X9ctcqN3FhdgQ0ZMp4PkMHV3b59e4MTJ/IbnzhxggifpWnv3r1N8Eku3mtKpfLlFi+8gM2R2IWMzwoRvYsTfZchQ4YMGTJkyJAhQ4YMGTJkyJAhQ4YMGTJkyJAhQ4YMGTJkyJAhQ4YMGTJkyJAhQ4YMGdWLF174f28tqpKus3G5AAAAAElFTkSuQmCC;" parent="1" vertex="1">
                    <mxGeometry x="390" y="425" width="60" height="60" as="geometry"/>
                </mxCell>
                <mxCell id="15" value="データベース" style="shape=cylinder3;whiteSpace=wrap;html=1;boundedLbl=1;backgroundOutline=1;size=15;fontSize=16;fillColor=#f5f5f5;fontColor=#333333;strokeColor=#666666;" parent="1" vertex="1">
                    <mxGeometry x="85" y="570" width="130" height="80" as="geometry"/>
                </mxCell>
                <mxCell id="43" style="edgeStyle=orthogonalEdgeStyle;curved=1;html=1;exitX=1;exitY=0.5;exitDx=0;exitDy=0;entryX=1;entryY=0.5;entryDx=0;entryDy=0;entryPerimeter=0;strokeColor=#FF8000;fontSize=14;fontColor=#000000;" parent="1" source="16" target="15" edge="1">
                    <mxGeometry relative="1" as="geometry">
                        <Array as="points">
                            <mxPoint x="240" y="453"/>
                            <mxPoint x="240" y="610"/>
                        </Array>
                    </mxGeometry>
                </mxCell>
                <mxCell id="16" value="" style="shape=image;verticalLabelPosition=bottom;labelBackgroundColor=default;verticalAlign=top;aspect=fixed;imageAspect=0;image=data:image/png,iVBORw0KGgoAAAANSUhEUgAAANoAAADaCAYAAADAHVzbAAAAAXNSR0IArs4c6QAAAARnQU1BAACxjwv8YQUAAAAJcEhZcwAAFxEAABcRAcom8z8AAGmISURBVHhe7V0FeFRH1y7/V6HQFgtx3bi7uysxAoQIrsHd2RYvUrQUKVJaSksFKtRbaItDkZLiFhyChOA6/3ln76U3m00IZBOSct/nOc/u3r137pkz58ycsTMvyJAhQ4YMGTJkyJAhQ4YMGTJkyJAhQ4YMGTJkyJAhQ4YMGTJkyJAhQ4YMGTJkyJAhQ4aMZwTGWN3t27c3OHEiv/GJEyeI8CklXDvR+NixYw137dpVX6lUvkyP/Z9A/3sSondxou8yZDwfgMIfyc83HTtiRMh45cjM92bN6Ljg3Xc7zp8zs4OUFrw7i1+f886U3OED+iYmhAX5Kho1cjJuVN/JQlfXuULUsKFz/RdecG7bIsXt/OXzrg8fPmwqsCFDxn8TZGAvJYSGusWFBHVJDA+dGebjuTIq0O/X1NioDWlx0RvxqU64nhQZ9nuIl/s3zgqzjxS6Td43b9p4oaV+00UVIbp/kUmThovcrC0Wp8RGLm4eHzc5ISK4a4fsVpHTpk1rLLAmQ8Z/A+T2vdGlbdvIAHeX6e62VgdcFOYPbIz0H5IxMGtDvXLJykCXE92L+x8IhO8VJoWeDv90tVY8CPJyOxMfFvxlRmJ8m06dOhnn5+fDJZUho3aD3LX6PTt2zEmKjFjjYmlxGsZja6TPrMjILHSbMIumjRm1UvxTncTrZCj8fmsyuKchMjL+LltjA+ZkYQq6GujusjMzrdm0qRPHeAqsypBRO/Hjjz/WnzZ+fGh6fOyXvi6OD+1I0WE8MBwof3UT3isasJu1goX5ep1JT4wdFuHnZ0Ts1lFxLUNGLcOYkSPt22dlTg5wdT5ubYiWhQxMamT0nSs/WrYqIqQvNWzxN9xRauHue9hbrw31cs8NDQ19TWBbhozahXYtWyaE+XhvcVaY37No2ogpSPEfGRlX+ia8dTHTaVRlxN1PtfeC+DUyOGeF2VV/N6clbdq0shTYliGj9kCpVNaLDvTvQf2hC3AZeUsmtCy8FRMMAC2LnakRszczZvb41BI5COkhfdMmDZhJ4wbc6ERDE1s1R7rPz8Vp66DePZJOnz5dT2Bfhozagf7du5v4OTuOsTLUu4aBDFHBQWIL4+vsyFJjo1lWeirLbp6mVcrJSOefSD/Y0405mBtz45LywY2NPr0d7Q7mdWg7aNWqFeYC+zJk1A7EhQdYOpoaT1ToN7kuGhpvycjIQJ72NmxI3z7sp+/WsLW//MzW/fqLVun3337ln0h/6cL5rE2rDOZqZfGoNRX5ATmamRyP9POZ1D47w0FgX4aM2gFbvQbmCr2m4xT6TYvFIXYoNfpN+B4TFMA+W/Exqw5cvXKFzZs9i0UH+XMeTMmNBA8guI8WTZscN2n4xtv6r70mG5qM2gWzBq+YmzdtUsrQTJs0ZDZG+iwpKpx99cXngilULW7euMFWfrycNU+M43wYN3qjhKEpdHWOm+k0ftu0cWPZ0GTULui98oK5aaMGpVs0MjRMWieEh1Zbi3bh/Hk2d9YMFhMcWKJFw3fiDxPYxyOD/GTXUUbtQ0qor7mTuek4SwPd4hJ9NOofYfQv0N2FLVkwXzCFqsWJggI2euhg6hfa8v6hueC+cn7ot4+T3fG8zu0nffrhh7Khyahd2Llzp3lKbPQ4GyODYukkNZTb4I363H2cMflt9vDhQ8Ecqg4Fx4+zkYMGMHdb69KGBqN3czk+YnD/SZv/+EM2NBlPDlLiV7p0adHAx8rqDWWvXm+Qzr0o/FXloHeZ53VoN87exKhYHOUTSbd+Xd5PenvsmGoxtHJbNOIt2MOt4M3hw6bs2rDBSWBfhozyMV+prNe9XTuTAd27e6fGRqZ4OFhl2xobZPm5OWS1TIxL6NOpk1tmZrJhv379XhUeqRKQAVkM7Jk3wd60tKHpvfYqHxSZMn5cjTA0f1eno4P79h67/tdfbQX2qwTESp05c+a8lhoZ2cRFoaerW7++notCods6KUkHOxzof3lzam1A/saNjTvktE5Njo6YG+Hr9bubtcU26iPtIoXaSa7aThdL8y1+Lo6/RAcHzspMS0iMjnapLzyqdZDSKAb17lmmoWGY/1kbGicyNlcriz2ZyUk93n//fUOBfa2D2KizYsUKm7xO7VtG+vkMszU2nGjU+I3JjubmE2NCgkZ3yclprxw+3A33CY/IqImYoBxq1SE7s1dEgO+3/i6OV73tbZi9iSFXJAxGgLBNxEVhxrwc7K4Ee7mvigj06Tmsf387IQmtghRGJzs9tT8Z+BVpH62mGRrfSmOou9XdxrJVdlzcGwL7WkXXru2sU6OiWscEB04L8/X60cPe+oCVod5pU51G52yMDc94O9ofCfP2+jPMx2tukLtLbpvM5o7E9kvC4zJqAqhAUFOadMxuPSomOOCAo4XZXa5AwqZJfBdH/bjB0TWQs4XpnUAP15OtmydPWLHiAxshOa2CDL0ltaaFNsSLqNigmmJoVgYqQ1Po62wy122Y4mlgoNW1jitXrvzf9EmT7NPiY9/0dXLcaWNscJ1kf5fKBhtRBR5g6FRWhnr3bY31b7hYWuyNDwuZMmPKW97bt2+Xja2mYNmCBRYdc7NHRwf673W1VvCCE1esow8iFqhIWDFvoduYQfldrS1YgLvTkZgQ3xFWZIVCklqDTr2Xk4iPC9joKeWhphmahV6TjaY6ryeZvfBCXYF1raBfz56u2RnpM4M8XA/ZmRhx70JBshfLBWWFT95XJL6s9HWYLXkhXva2BVGBvrOiQtzthaRkPEsohw5VdM7JGhYd5H8IRoa+EApMVGheiPQb19WNjv8msjM1pD6K+d/BPu5d+3bubCAkXWk8fHjwFQ87m070rkvihLVIGHXEavrqGnXkw/uDBzLip5ShQdmtDHX/crYyy0ry9NRaixbq42wcHxr6ZqiP53m466j8NFV8JYj/r8NdfkcL05P2ZkZvmurqKoQkZTwLrBLdxaCAg84Ks4eWeirjkRYmvkOxuHJpMkLhfirQ+0GertuyUpO7HTlypIHwiqcG6fZLysH9fCL9vedRH+16TeijjRoySPNgCJGdieFRf1fHCckREVqZR0uLjTUIdHPuQ5XfX9gCBNdQWi4gXgEKJL0OQsVEFQC5lzqHya0dZWnYyERIWkZ1YuG0aVad2uSMjAkM2Ist+Sgc6V4r1NIoQCw1otqa7/Uy02nIDBu8xgtcdFlAuA+K4GJl8SAmyH9jz84du/7yyyY94VVPDNLrlye8Ncq7dXryFDLeQ2Ro90Vl4oZN3zGHRn0RNnfmDJUlVDFOnTzJJrw5mvm7OvP8QhZi/sETGcN1bwe7XQmhwSNnTB7vQsb/ipCdJ8aGDRvMenXq1MvP2WEzVX63NXkT4AEtuuEb9bks8FtaJrxiEp5R6DXdq9DVGWlp3NRKeIWM6oByyBDTTtmth8cEBx50tVJodEnQWsDIsPGxRVI865fXnbVKSWLOlubMhApWunodxA2B0vB2sGXx4aGb22S2yPH09Kxwy3b27Nn6A3v1smyVkhJA78lKjAiZFezlftDdzoobsdTQ8G5cS4wIY59/skIwharF5UuX2IdLFrPkqEguL+NGrz/KO3hCH9JFYU6G6Ph3WlzUtLwObXOTIiO9MxITjcjoKjzfuGjRoqYDenbPS4+N2UoV1z31ssF3lA0+Xags/FwcmZuNJecJ5SLeV4r0mh600NUZrjBoZCq8SkZVQjW62Gp0dGDAATIahF17pMQi4bdRw9f5UH5GQhz79KNl7PChQ+yXH35gXdvkwk1iBq/XK6UAICick8L8hq+zw7cBXu7JpKOPndP59NOFjYcPHhCfnZH6TqiXx28uCotD9qbGhdSpv29jrF+q9TSkd6MV7pfXjW3esF5lCVWMu3fvsh3btrE+3brwfCL/Ik8g8IglYTbGBvfIDb/g5WB31MvB9psof+8h/fPyIqmV0hWyWyYWzVzUtHfXTh2pAlznbGF2h49mSmQMQv7RgnmRC9shK5ONGTmM5XVsT31Ha966qZclSBgxfkAt2wFyI0fLbmQVY+Sg3tYdc7NHRAf574eiohDV3UXUlsZkZOjkt0hKYB9/sJSvXAfu3L7Dfvj2G9alTQ5zNDfl6w1xv7ohgMhIi6hF+rR/77xIerTUEPOpQ4dMBvfvHR0bHNg1zNdzSpiP15pAd5dT4MvWyIB4Uw3AqCsO3tfoxTp8x/Ny4q3wgoq36kDx1avsvVkzuVIbkQutzhvkiWswEAdVKIT7zgrzfB8nx6/iQoNnZFL/tV1Oq4DVq1e/LojhERAbMjU+JglzZNSS3TRv2qh03ps05CEVHC1MWfcO7diPa75l/+z5m296HdK3N/O0s2H61HeFIUrLhE/JcILhNt1PxjZSoaNjLbxahjZh0KiRaVxYEBlZAB9dLMtdFFsyuIsfLl5MinxBUDMViq8WUQGvYW1btmAW9DwKVWqsIBgJ0vZ2tCtMi4/5OLd5alJWerpZ5+xsg4Rwf7PWGan+3drmDkhPiP0s0MPlELk+9+Giqp4tyZOU0CfB+3Bvv+5d2b69/whcVR82/vkn60EtCJRd77W6fBlYeTzz/4iodWMxIQFHIgN834/082vTpnWGT0pMjEnfvp0NOuXkWMRFhDQjN3kJucRFQgtUgmB0MG70ldtTS7bmq9Xs9p3bnCdUgFs3bmRD+/Zh7jZWVIavcVmp8yWmS9cPW+rrjJDdSC3DXF/fjDrDo+3Njfc5WZg+tDH6t88jEloPFKQ1uT/NE2LZ8qWljUwE+itL31/ImkWFM0uqOWGcJQtVcCPJYN2sLS8He7j+Sfe+mxwXNTrM22O2h63VL2Tsh50tzYoczEy4K8rdJOJJXTlAuAZ+MRCDe3t26sg2/Pk7u31bpWjViWvFxeyXH38gGcUxvfqq1gO8qfPNfxOJn6gcXCzN6NO40MHcdK+vk8OP0QF+U3JbNB/VKjlxoZ+r8wYrQ91CTRUg0odBw1AQv+TLzz5lRUVXBI5UuHXrFtuyYQMZW28yNkvirW6pChAET4U+H1LLtg9uJHRDUBMZlQFcBAvUXnAZqADVR7DgYqATrf/6q8zB3IS1a92SrfhwGTtz+rRQhJpx7MgRtuDd2Sw+LJi7NDA2FKzUZRELGnE2qNN+keigu61lIW+9iAf8LyqpunKB8B8UGUrTtN4rvF/Wq3NH9vtvv/E+07PC9WvF7PMVH7Oc5ul8cAjuGlo3Ta2INC9wB1GZ8H4stYie9janQrzcD4R4ul+FjB4ZptpzkIFp44YsKTKMLVk4/5Errw60bOizDunTi1FlRmVaj5eLtExA3I0kg4NOcN2Q3chKoY6RUWNjDOtS4R0SBSwtSHxHTYk+GdzJru3asDVfry5VW5aFY0ePsJlTJ7PYEGHXMaUFxRDTFwkFjVFCfHIS/1NTKhCeRzpQWrH/R30WFuLlQf2QXmzT+j9Joaq/JVPHvbt3eN8IgyNkLLySAv8YEYVhYPhfXRZS2YuygFxE2UjvBeF+k8aq/ha5/GzuzOns3LmzAgeacZu3bGRs1LJhNBJeiib3VuJGHoKOWBkZGdPj8mLkJ4Wpnp4FXAMS5D4uWA0FCUXWrf8K1X7W3L9H1KeKGhnw4OEDVnDsGJv9zhQeKAdpQsnUCxW/RbeQ/6f2v/Q+8ITRM+4mUsuXFBnOlEMHs9Wff8YO7NvLXaSagps3b7A9u3ex5R8sYf175rGoIH+eD7TA6CdpcgNFEmUBYwSp34drmBQ3JYNFQKAFc+ewUydPCG8uH7du3eQt29B+fXjZoowhV2n6IFEnyND22RgbKjOaNbMQ1EdGRWD8xhtWlgY6wy31mh541HpICAKGS4FRQ3LluKuBzvTTumOHDu5n0ydP4q0OVmzASDQVrDpBuaBMqHWbvPIif9bJwoxFB/qxNi2as9FDBlNfcSnL372bPSSjrqlAv23Lpo1s8YL5bPjA/jweZLifN++joh8Hw4PXoKnPpIkgOz6i26QRiyPXHJPyFTUyEXfu3KYyRZ+tDy9jpKfJjQShErQzNT6YFh87XKlUypPaj8PatWtf9HW1NadONVoyuIsP1Q2NKzcVOFoNdJrhYmyhAoHL8bSAERzYt4+NGjyI+bu5cFcILhRcFigN3leC6JpqqJpcGipkKCQGOfzdnFnn3Gw2f84stuH338lNOsdbsAcPaq6Ribh//z61cDf5dMPm9evZzCmTWVbzVL6SxMnclMtEdIuRd8hAXSb4z5RcRcjOxsiAKhz/CrmLZQFlupUqAJQxyhpljndpaj0dzIwfUot8qH1261FYmkePy25kWRg1bGBgVJDvHGdLs4NYtwghSg0NtRkKEwty3amzjBEq9HngalQWULT8v//mtW/L5CRuOE1ffUXVwgm1qUiY7EUtb9igPgYEWJuWGWzyuDHs808/4S0Dau87d+4IKdc+3Lt3jx0/epSt/+N39sUnn7Bxo0ayjKR4PnCCvGNgh7cw1JKrZPIal1GTui/xlh2DRZDJB+8vZCeOHxdSfTrA2FDGfDSSyhxlDx2QtmwwPOzEcLNRwE3dS5XdqHkzZ8rnCKiD5FlXOWJEUEazhEWB7i7FzgozjSNYcF/g1kHgg/ugJduo9YGFc2fP8GVRIwYO4GG648NC+GABIlaBAohCvD14TEasbJigHMW+Xb2anTl9Skjhv4cjhw6ylcs/4q5wLrnECJMX5uvFgjzduDyCPFxZpL8v749mpaewEYMGkExWscuXLgopVA4oY5Q1yhxlDwOHLkh1A60aRqQxshsbFHAQS/RGjBgg99lEkBz/N2f6FN+0hNilfm5OxY7mJqX8cNFdRG2Kkaih/fqq3MUqGr27fv06n4PbtWMH+5QUbPrbE9n4N0fzRbnjyLBmTZ3Cvv7yC7Y3P59duniRByf9LwOu9fVr19h5coV37fiLrf5sJXt3+jvs7bFvcXlMGvMmm0fu8nfffE1ewW52/vw5rcsEZY0yR9ljUhu6IHUj8an6zk/HeYAdHVQRKmU3UkBGsxirVqlJUwM9XM/DyNCSoXYSjQxGh6FyuGoQMPz1zRsq1yd7EsCQjhw6xFdx7Cfa988/fFoAy5meV1wtKuKjtQf37+PyQP/25IkCdqOKKxyUOcpeXEECnYBuSCtmGB8+0bJFBwXsww6P6ZPGPL+bR0ludc6e3VU/PSE2N8DNeR+MTNPKCgy3w1XAyNPgPr2qxF2UUXuAsscACXQBOsHdSLUpGXyHG4m51ejggAOdcrJ6KPv0aahUKv9PUL/nBySzl6ij7ZEeH/Oug5nRTQx6qBsZaiesWkDthVoMo2HPYtmSjJoF6AB0QWzZoCNiSyYSvCKcsIq4MFGBfp91bpMdM23atCoNL1gjgdh+Iwf3y4wN9v+Nmv6HqIFEIYnuIgY+vHC0EdVemMCsLndRRs2Hyo1ULdfyFLbYlOVGksd0KjUuenyMn19jQf2eH3SMiWmcGBU2wMfZId+aDA0r5kUBoTaCkDDCxCejyVWQWzIZ6oBOQDcG9urBN5HyeU2JV6Rq1fR4ZR3m4/l113atn781kf4uLrr+bi7jXCwVJ3ktJAgIwkHNhDmbDlmt2I/ffSv3yWSUCSwIwG4ErHNFn0zaX8MnuiRYUODr5LBp5ttvh9Mj1RYSvkagWUSEXmxw0FQfR4fzqHUwECIaGoSFGqpb+7Zs25bNKonKkFEGrl27xr7/9huWEB7CmtZ7uUR/DcaGVSs+Tg47Plm2rMWThGX4T2BAt2662c3TJoT5ep/CFnqxj8YF0xSr3puyyAA/vpzpQjXuQpZR+4AoYrt37GDN42NZ41f+V2Kdqmho/i5OO1d+sjyTbn9NUMHnAxOHDm3UpkWLfqHeXn9Ti/YQLVkJ4ZDhiavf35s1g50+9d9deSGjcig4dpTNnTGdr+DBvsQSI5CkS6jEqUX766PFi9Ppdq0GiK3xUCqVdbu2bRsW7Om20s7YsMRokcrYVCHR0F/DKZXz58zm6++eBzygGvravQfs/K177MzNu+zczXvlEu7BvXjm3oOqjxFZU4DdGliJMm3ieBZLOoINqWjNUFGLeoQ+Gna/e9har5v81lv+9Nhzd1pNne0//9wgNiRgsKetdZGDqTHvn2EJjdTYsBIcRoiV4NPfnsQOHzzIHty/r5J0LQdM4i4Zxq37D9mN+w/Y5bv32Ykbd9m+q7fYnxeusVUnrrKVx6+wzwuKyiXcg3vXX7jO9ly5xQ4V32YXbt9jNynN25T+PTLc/5r5YeHz9q1b2LAB/ViAmwvXlxItGdcfHW5k1N+/6+vitBQxTgTde/7QtV276MTI8F/crBU3sf1COswPEkchLZo24ZGjsLB1119/CeKuvYARHLt+h20g41h1oogtPXKJzTlwkU3de4GNzz/HRu46w/pvP836bDvF+tJneYR7cO/IXWfZ2D3n2KT882zW/kK27Ohl9t3pYrbl4g3+Lrzzv4L1f6xj/Xt0J5fQni8wxgAadEV9Hg0DbaHeHgfbtGg+sEuLFpWOQF1rsWDBAuMenTt2ign2/4OMDaeMPBqBFEns0GJtm5uVgo0cNJDt/Gs71WrPLu7GkwIe3SVqZY5cu8P+unST/XCmmC0m4xr79znWY+splrW+gKX9foylrjtKdIyl0/fmT0h4Bs+Kz+duKGD9/zrNJpLh4V14J94NHsBLbfQy+YbQzZt4TExsskW8GHQxpO6iqDMYZKPWrDg5JnLe9MmT/deuXft89c+kINn9b+7cubpD+/TpnRoTvdXezPiOygUoLTi0bKaNGjB3a0s2rH8/tnvXTvbgQc12IxFWH32nQ9dus29PXWXTqMWC8nfdfJK133iCG0Pmn8dZxh8ljQa/WzwhqaeBa60pbbwD78I78W7wAF7AE3gDj7UB2EC7eeN6HucES68ebb7VYGQgJ4X5rVAvj19aJsU1g5FREvIq/u9XfW/eMSenvZeD7WrqwF6BG6DesoHQZ9N/rR4Ptjmsf1+2Y/tWVSnUQJy7dY/6TTfYR+TCwSUctOM0a0NKn0ItTtJvR1ny2qO85YFBtPrjODc4bVJLShPGh3fgXXgn3g0ewAt4Am/gEbzWZNy4fp3HguyUm8WDHWHDKbwcdSOD3ljoNsbG3UIfR7uVSRGhqbmpqU0ENZMBtMjLey3Cz6uZj6PDp84K84uY0YfwpMLEdwgTa9sQd3/EwP7cjXyW4dukuH3/ITt78x7bffkmH6hQ7j7HWxQoO5Qeyt+KjEAkTQYiEv7H/RWhiqQlEu4XDRC8gUfwCp7BO/JQk4C9bWt/+omHx+O7OcjIoAOiToh6gYoZAVo97G0u+Ls4fhTm4RHLXnhBbsU0oUVo6GtDB/aNaZkUv9Tbwa4IIQVEQUoFCzcS5EZu5MhBA9ihAweEYnl2uEOdnl2krIsPX2LDd53hrloOKTLcOPS/REMr1xAkxvO0hDTE9DS9C/eAF/AE3sAjeAXP4H0n9eOQl5qCHdu38aCzPIz76/V4uUt1AcQ9IL0mLNDdtbBtZuby3h06RCYlae+st/8ksEzmnYkTo1omJX4Y6OZc6IRd1yRMTcbW5JWXWIS/D/tw8aKnDgKjDWBU7/vTxWzKP+dZZ1JaKDHcNShyWQoPwn9wHdG6YCCkGT2TQC4ePlvSf3DzOm46wamDGonXcQ/ulT6LtB65pcK7NBH+A4/gFTyD98mUB+QFeXqWwIqPi4WFbNF7c7FWkW+HURmUmodDfXoMfPg42Z9u1Sxp0ZypU3FewvM78PEkgLHNnfVOREp0xCJXS8VZWyP9B+qT2hA6XAknhRnr2jaXbdpQPSezSFF87wHLL7rJllBL0GvrKa68LajFAIkti7pyo0WBcsMQ8IlrbclYOm8+wfK2nuTD9UN2nOFD9TP2FbL3DlzkNFeNxOu4B/fiGTyLNJAW0kTa0nfh3VJeQOARvIp84xrygjwhb8jjswAWk2/843ce3RmeDVozafnzyWhDPWZtoHeXPJujGUkJc8cqR4TQo7K7+CQggdVLi4lxdbNSjHZRmB9yJP8bxiat0URjQ0zGVZ+t5AVUXSi8dY8PmY/bc5aP6kGJy2tFuEITiS0YKGv9cW4caEU+PHqZpwfX7cDV2+zotTt8AvvUYwj34F48g2eRBtJCmkgb7xDfJ/JWFn8ib8gL8oS8Ib0Lz2Cw5OrVIt6aIcoxyhxRj8Vyx29EvsIQP9YxpsdGDhvSr5/riRMbn7/NndqCh5WVZUxw4HgPe+v96PCqd4QRgsyB/Pd5s2dVedwKAMucoNiYaB668wzv7ySR6yW2BpoUWHTPMMcFt284PTd93wX2gTCpvJ0MpOD6XXbtbuVbD6SBtJAm0sY78C68E+8GD49za5EX5Al5Qx6/pLwiz9W5xAsx+hGMx9pIjy+tkpY7DM3e1PCmn7NjfsukhJELZk2RI15VFiTzOu+9955DuJ/Pu+RC8APupIaGAxpsjA14pKqqDvuGETksc1pEblVvai1ENxCf6kqLa1BUtBJoVdBC9Nl2ms3cX8h+O3uNHSdjuIH1idQXqQr9RZpIG+/Au/BOvLvf9tOcl9bEE3jTNEiDvEjzBlcSeUbeq2tUEgeVICAtYkWqD4DA0HCYfHJMxISRg/s6Cqoio7IguddJT4zvGebtecXVyrxEp1j/dTI06gyPGjKYxyBEJ7oqgNp804UbfMCj25aTpKAql6wlKSomhtUVFQqMeSv8HkatAp+zOn+dr8y4erf6J9rxTrx768Ub7ONjV3hLBd7AI3hVryiQJ+QNeURekWfkHTKojpYNOzYQO7Phi3VKjzRS2TtZmu3p3rEdVuQ/f0F3qhJZzZt3iwrwu4KVIVg98q+hvcp30SJu/P69e6skBDdaBSgoljOhJRCVT6qYImH0DtRmwwk2aMcZNudAIfuZWpPT1JeqKThLfa6fzxZz3sAjeBX51pQnsVJB3iEDyAIyqUqgReuY3Zo1eun/NBqai5XFrreGD06kW+XBD22hqKioUXpc3BgPW+s79iZGj4wMxF1H3qIN4jEYtW1oqL23FN5g4/aoJp8zflf1YdRbANXInWp0D8Puk/IvsF/JwM7dustX0VePw1VxgCfwBh7BK3gG73zARK0SQV6RZ+QdMoAsIJOqbNnKdR3Jo3G1URzp061z7wsXLhgIaiKjMkCYsGF9+wZH+vmsoL7YQ6nAQdi+jn7blAnj2JUrl7XqOqI/sqnwOimiyshQ46v3Z0RFRI2PgYY+20+Ra3aZ/X35Fit6Bi7ikwI8glfwDN7TKA/Ii3pFAkLeIQPIYiLJZNOF61XWZzt75gzr1aUTj+2vvqYRhuakML+cFh+zdNjAvoGCqsioDHJzc5u0Sk4a5O/qvBchDtRHn+A6ImLWB+8voOLRXqFjr1h+0S3eL8kiJYP7VGrQgNfyKpcrd8NxNnznWfbVySJ29ubTuYlYSnbp0iV2/NgxHnJ8986dfN/V+t/X8fPf/lj7Gyd8xzX8h3twL57Bs0+7HA08g/cRu87yvCBPyJt66wYZiG4zZAMZQVbaBqJEI9y4t4MdL2esbZQamr2p8b0Ad5d/4iOCO9HtsvtYWTSLibGKDvJf7u1oe0dqaBA2hn2tDfVZ88Q49tP3a1QlpCVg4AAjbd02n2TpVMurD9+L7hQUD8uYxpM7tZncKb4iXkijIkALfP/+fb4KYtuWLfyQDbTO2G/VpW0uy0xNZtQ3ZcEebizUx5MTvuMa/sM9uBfP4FmkgbSQ5pO07rgTvMMlRF6QJ+RNk5uMa2j5MEACGUFW2gbWOOKMg+zmabxrgKjE0grWjvrlrlaKu2HentMXLpyhJ6iLjKcBVohkpabGeznYbHOywAEYKiFD2BgQweJiP1dnNl45iseC1xYQGgDzZL22nSKlKt1vgeKp+jPHWd6WU2zO/kI+QIDd0k8CHGuEVemIeTF66GAeNg1HJOG0FhzogUWyyKdO3ZdYg/+9wAcGQPiOa/gP9+BePINnkQbSQppI+0mPToIriLwgT8gb8oi8So2Nt+SCXCAjyAoy02a7hooC4SvGjhrJV4bovPrSI0MDWRPhepi3x0+jhg+OX/3++6+rtEbGE2P21Kk2zWNjxzlamJ5GCyYVNFozrH9LT4hlP//wPQ87pg1gwvfHM8V8SB5rCNFfERVMNDIon6hkS49cZvuLbrP7FWw9sOXj+LGj7E9yAWdMfptlpjRT7a+i/GAjI7YC4TuMCIQWnE9nCJ/q38X78AyeVW2GbMTTRNp4B96Fd+LdFQHygjwhb8gjhvk1tWyQDWQEWUFmxVruk96/d4998uEyfiAiugjSHfiiPgR7eRxv3zpzytgRI57fUAWVReuUlNSIAJ+1DmbGt6FMj4RMrRqUCZ99u3dhJwoKtDIIAqcv/8otPqqGGlucsJUql6omp5Zs60keguAYuU0V7aNcvnyZ/fbTj0w5dAhLiY1iXg62/OA+dPb5gYfkHnFDod+ikalXMFISDY4bGj2DZ5EG0kKaSBvvwLvwTrwbPFQEyBPyhjz2oLwiz8i7VBaQDWSE65AZJrSfzHF+PLCGtX3rVjjVk5c58ivmHeXv42R/NzY08LfmcXHugtrIeBKQjF+MCvQd6uNsfwlCFgUMglLhM9Tbk707fVqFa+rH4eSNu3yrSLuNJzQuq4LLhEGCnPUF3LU6WFyxKMo4JxpHDr07fTqfhPV2tOc1NIauxXgXYt60RUgTaeMdeBfeiXeDB/ACnioC5PHdA4U8z8i7+uAIZARZQWbor0GG2sSZU6fYezNn8j4pKhFUIMif2IVwsjBlnvbWR5Miw7N+/vnn5zcuyNOA5Ftn3szJlmE+noudFeY8lJgoWBBcRnSQ8zq2Z3+sW1vpsOGog9E3+f70Vb7cCMqD2lrqKoluJBRu/J7zfODjce4iWlkMTHz/zdesd9cuzM/Z8ZGr96jFkuQLhN9ibc1DpeN3GVTi/zLSwjuk7wQP4AU8gbfHeQLIIwL8IM/Iu+guinKBjMRBE8gOMoQstdWu3b1zhx/X1bZVC2qpsR/t38XFnCiP9mZGlxPCw2aPGz7cTVAhGRXBqiVLGg7q2yuXDG0jDIorlER5mtR9kddkOHMaB+NV1m28SYqx6zKG8i9w5dHcLzvGUuk6FueKo4uPA/pFSxbMYznN05iLpQV37eDWiW5vCYWR5I//J/4vfi+LhHsePSdJSyRcxzvxbvAAXsATeAOPj8N1yivyjLxDBnxwSCIfkCgzyBCyhEy1hcLCC/zIXgyGYfJamk9UHrYmhncjfH025qSlZQoqJKMieHvcOI/m8fHLfJwcCiFU0bUSv5vqNORnKWMQRBvAiBlcRmx8xByRel9EnFPChO43p4oqNLq4e9cONmXCWJYUGcZ5x34qKLuoIDw/+v+2RtjAiP1VHrZWzMfZ4Zanvc0xTzvr7b7ODuuCPd2+D/f1Wk0VzxcgfMc1/Id7cC+ewbNIA2mJLRzeIX0neAAv+A7ewCN4fRyQZ+QdMhDnDqUygsywcgQyhCwhU23h7r27bNmi93kwXWyVwqCPmB/kEZWxm7XlpbiQoNkrli79bx8UT/Ko0yUpqV5kpHeT2OBgA3dbW0OTJk0eka2JiWGAu7thZnKyYY8OHQx79Ohh2Dk72yAuLqipg4NxY2dT00bednZNxowZ6dgqpdkQXyfH/eibicLEJ2ov9DtIwdiowYPYvn/yVSVRCWAcY/eVm3yiFsqj7jLie9q6o6wj9UGWH7vMzt4qvw+CCeO9+XvYyMEDedxBS72mvF+hyU0UNy+Sojy0MtS94WBucjHcz+tA88S4b9MS4t7OSk3uNqBXXsbHixdHbNu0yXfv7t0eIHzHNfyHe3AvnsGzSANpIU2kLZWf+J1XVujrEG/gEbyC58dNdiPvkAFkkfb70VJyguwgQ8gSMtXWPDaW1e3cvp1HP3O1suBdB/U84dPfzXln13Y5A5XDBjiFhnrqQKccjI0bQ8c6d842GEQ616FDpmFyVJShVD/xPSLCVy8xKKhR29DQmrs7m2RRZynVJFRDtgrxdp0S4u3xubut1SoLPZ1VVLtyon7WqgA351VpsdGr2mW2WNUxO2tV69Rmn0QH+s11UpiOtzE2VHra2UwO9vJc6efstNfBxPg2FFEUJghuA4ScHB3JPv/kE3algiNo5QEBaRCcpuuWkyyZDKqE8qB1I8VBuAAEJsVSpcfpDoIFYd0lhqQRSAYBPlFBSPOhUgzVpCtOzvFzcTocFej3CXXoR2anJWd0zskJ6NOtg+1kpVL/8uXLDShZhEt7FM4a33EN/+Ee3Itn8CzSQFpIE2nbGhnw90kVE8QrLeINPIJX8AzeywPyDhlAFm03Yt1n6flFyBCyhEwhW20B0zcY6sdkvW69Vx55OaI88dvO1PCmr5P9P5EBPp8GerhOo7y/aWtiNCbS329uTvP0zzrnZq/Kap66KjYkcJWbtYLrpblOI/6dvISlYX5eo6MCfBOUAwfqC6KuUajXIikuqFl05DgqsJ/IwC75OtvzmgdrEGEsIDsTA+btYMsoI2QoEYwMjsWGBMBNum1nYnjWylCvwMnC7CL6D45miBNScjc1vsPQ4Pr07NyRH1Re2fDg6NptuHCDR4JCR7+5Wt8D7lAKKc6gv87wxbdFd8p/38mCAu6K+TjaM6MGr2vsi/GWjQg7DqhiORnq7fUjVRwjB/fvHb1z404jQaZPDaSBtJAm0vZ1dDiJ/qzq3aUNHjyCV/AM3k8UHBNyoxmQAWQxeMcZLhupmw3ZQYaQJWQK2Vay+1wC2zZvYtnpqY9aZPUKjLvfpHNYkkd0xdpA74SNof4p6oLcSggLYenxMSwxPISFeLrxCg6T3ujf4rs3tewedtYFpKNfhPn5DG8WF+enVCprRoAfPz+/Vy31moQRo4vJR77oaG5yB2cH2xrrc5cInVfR0OBbw5e2NzHkcyIgzPPgmhgPBM+oniu5uROETjwUNNzPhy14dw67roUJakxOf0SuEFqsUqsfiEQlwnaSczfvltuaYQQPgwvo90CB0VKoVxQg5I2M7I6LtSI/PiT4nUG9e0dOnTpVZ+XKlS8LYq00kBbSRNotmyW+E+Thkm9vZnJHyoeUL5FX8L54/ns8L2UBMoAsMOQP2UBG6nKDLCFTyFYbu8ZFnCg4zmZMeZtFkA7A0PiqfrW84FPUI/E61zvSNdJP0jsj7klwPaP/QPgu6qGDqdFt0uVCPzfXRbGhgWH9+vV7tuERKN9127VqFeCoMFlENcc5nApjY6QK6c1rbYkARMJ11EJilFnUpriG/5DhskbPcI9uvZeZs8KMhwTP371bJflKABOyOBBi6t7zfMQMa/fUlQU7o7Hq4dezxeVuCYEL+/033/B1eeAXnXX12ha/0aJ42FsXxwT5fxfu79MhKyPDmR7XmoGpA2n369HDOTUupkNsaNB3VGMXgwdNvIkDDORa8byU55ZDFpAJZAMZqVdS4g4AyBbzcNpadHzr1k22a8dfbEDP7uQhGfEKQlMgVXEgSPwN/YGuiTqH/Er/x3eus0QwOBy6QnTO08FmUfd27QLo1c+u3zZm5Ej79PjYKa5W5udEAxEZ1xbBFcCQtP7r9fhwfl6HduxPzJvdqfwi1svkAq05fZVH7VWNmJU0tGZrj7H2mwr49hFs2ixvZgjzPH26duHD5hjRA99iHngh0m8UoKe9TXGz6IivBvbo0Zweq7bCw7vwTnLvvwIP4AU8lVBG+g3ecawx8oI8lQXIAjKBbCAjyEpqaJAlZArZfnPqKpe1toCy/2bVl7xSc6AWCjxr6gdXhiAXGJ2Lldk56Dh0XRBl9SMlJjIr1MczH62Meg0CUrVeVHugBhFqESmhYDVdU7+OmhaLR3t06sA2/PE7u3nzpiDyygErzhGHHi6OOEEtNTTsLcNpLdsulj8xffnSJTZ3+nTm6+zIR0RRY6q7M8iTp4PtVeqQfztqyJDmy5Ytqy+IsdqAd75F7wYP4AU8lSgz+g7eVaO6jjxPyFtZgEwgG8gIspIamjiBDdki9Li2V/dfOH+Orfx4OcvJSEfsEK4nOOxC1BlNuiVSCR0T9FL0qkqUGV2DbkPHoeuCGKsXlNeGUUF+Y12szO/C3+U1gFBo8HPBJGoacbU5p5f/jzWp+xJr+urLfLNm03qvCJ9SeoWPKOH+hi/V4b4zBk6wTg/7r3CaiLaw/fJNftwRYmaUUJI/sfKBWrONJ/jxRwjnVhZu3LjO1v78E+vQOpMKTdX6SgtMHHzwtLMpQkumHDY4nRUVNRLEWO3Au8EDeAFPUh5FQh6QF+QJeUMeywJkAxnxcHuC3EQ5QqaQLYIBQdbaxvlzZ/nZ1aOHDmKJEWGkd035cjOuX490rDRBv6BnuBd61vjl/zEDyjN0VhwbEPWZjwqTjkPXixir9nKrs2zZQit/N+f3eOEIBiYSaggYSJCHK0uNi2ZpcTGcUmKiWHxYMF+zFunvyyMM41NKuBbu580/m0VF8NHF5UsXs6OHD6uGCLUEnBX2w5mrrMvmk3ydntTQMGqG/gVWQSByVFE5nXkc66ocNoSP2CHfvDUT5ICCQuE7mhnfRv+ob17XjE8//fSZxx0ED+AFPIE36dYjkNiHQZ6QN+SxLEA2kBFkBZlBdlJDg2wRzBWyrorz2e4/uM8O7NvLliyYz3p07MANjuuQr3cp3RIJAym4BwseVHoZyQLcnLnO4hw+UQ6cBLlA15cvXmxN4qvWDab/F+rv5WRnarSIK5OEMfxGB9XT1pq9PW4M2/P3LvbPnj2ccIDgzz98xz5b8TH75MMP2Yply/inlHDtoyWL2VdffsH+2rqVHTl8iLsv2liZLwL98uPXb7PFRy7ymjhZrX/BB0aI3tl3gYdpK68fj/4iVsZjbg8KKiosPkHoVwa4O+enxEV0nD9pUo1Z8ApewBN4A48ivyLvcKmQJ+QNeSwLKlne5bKCzEBSQ4Ns220s4LKGzLU0JlICOLoLo6SIF/PH2rXs0+UfsY+WLimlWyIt/2Ap17N1v/zM9XLHtq1szMjhfEWOccM3HskBBN3Gb+h6pJ+fM4muWiNu/U+3fn0XamoXEzMPMW/xqIDg9xJhzgJGpQ4YTHHxVVZ05Qof1cKnlHANW9hvV3KRcHnAEkWctDn277MsF3NnpByioeETtXLWnwU88CiOvC0L4lAztqHADVH38zFP5u1oX5jRLPGdvt3bKwTZ1RiAJ/AGHsWTe0RCXpAn5A15LG/zKGQEWUFm0nlIfKLSyll/nI3dc5ZtLLzOZV/VwNrXSxcvldItkVBxq4+orvn6KxYfGsLQokF/RWMTdPshdN2oXj1XElu1noH9PwtdXWdiYBGYEA0NhYNaHfMVGBFCbIuaiDv3H7LVJ4v4HisoBBbIirUwOvD4RKBTRPktbxDkOyqczJRknl8MIIiFg0+4Ia6W5nfDvL1+HNS/fyRVMK8IsqsxAE/gLczX60dXKwvVaauSPCBPyBvy+O1Xq4VclwZkBFlBZlIZqr6rDC9vy0m+Cxuyr4lADBboLPILHRYrTdHQiBbZ6Oq6kNhqjqFhIjq3RfMaa2i3xBqYWjO+hEhQCrEGxuEQk/+5wI+hLU8t5s2a+ejkSbFgQMJczH1/V8cDydHhIzFxLMitxgG8pUZHjvR3czpAPD8A72I+eHlS3pBH7JIoC5ARZAWZYVkWZCjKFASPAQa38NDFGnuONnQVOgvdrTWGJrZo6379RchGzcKF2/f4SBnvvBOJCgHlwDB1500n+CERZY02opG7SO6tcuhgUsRGzLCB2kgjuR6W+rq3IwN9PxvSt2cEyasmR2iqk9elfVCQl/ty6vjfUvH+b16QN+Rx5OBBPM9lNfCQFWTWZbMqtr/U0CBnHCWFqZTzJPuaCOhqrWvRarKhQU+wUgHRdqEQ6oYGhYCbU178C0yYItJUt3ZtuHuFuIPIv0iQh725yaXE6MhRmzdvNhZkVmOxcOGnjQM93AZQuRXihBZpXpA35BGRtpDnshYKQFaQGdxxyFC9RcMwP2QO2ZfnJTwryIamZaA/gbgWY/8+V8rQMMma8NsRftTRzss3y+yfXbl8iYd1Q8Qpvt6OFBH5R78GhNGrcD+fA5lpyRl0+0uCzGo0kmIiUsP8PPd72lk/ygfyhLwhjwjnhzwj75oAWUFmfbef4jKUTv7DPceSLDGmSHn93mcF2dC0DOyKxkETI3ed5bEapcuuoByojXGg3+HislcyFBw/ymMoIrwb8ivGL0H+0cfxdXG82Twpdk3nnExfQV41Ht3aZvuBZ18Xh5swMlHRkDfkMczHi+cZeS8LkBkOzoAM1Q0NsobMIfuK7EyvbsiGpmWI8RqxWkHspEMZ4OrwZUP0idMzEf2pLGCDZL+87jyWojidgfzzVoAIgWJSY6Mn9W7XDhOctQK9u7azTo2PngTekQexRRPzh7PCkWfkvSxAZuPyz3EZQpai+wgZQ9aQuRj/saZBNjQtAxsRPz1+hQ9FSw0NigFqs7GAH1V74nrZy65279zBurTJ5fmEEoqFAsIEp5PCfFNccGBbZf/+NXa0UR3gFTyDd+kCBOQNebQzNeZ5Rt7LAmSG89cgQ1GeUkODzCF7bW4G1RZkQ9MyzlFtip2/WAirydBwogrOhcaRtWUB8e4RiltcmCrW/iAoqbuN5c8dMzPivv7665qxabACwILj9lmt4sG7+kofsVVDnpH3sgCZQXY4VVSToUHmkD3KoKZBNjQt43GGBiV5nKFhcXNkoB8PyS0WCEh0HYM8XL97f9688Jo4SV0WwOuShQvDwLvUdRTLFXlFnpH3sgCZzSPZobKSDU07+E8b2tzHGBpWEQR5uvH495oMLdzf5+utW7dis2C1FkplAF7Xr13rRob2uZgfkZBH5BV5Rt7LwhlyCRceUkUSgyxF2eITAyK9yXX8hFxH3FfTIBualqENQ8MqApzogi0WmgwtxNvjsyP796NQahX27tpl4+fqtELMj0jII/KKPJe32gd9L8Tqxwkzmgwtb6vqnILy+r/PCrKhaRlVaWgiQVmhtIKsag1QOaCS0OQ6VsbQ8B27rXEdLV55I7rPCrKhaRlV6TqKBPcLbhjdWqtcR7i7cHs1GVplXEfR0HpQi7bs6GWtx+bXBmRD0zIqYmjaGAzBwEJtGwzBAI48GKLZ0BS6Td43rl/fiUQlG1pF8DhD09bwPobKn0VckKcFpiIwJVHVw/tf1FJDo/wvFAytejd+1lZDkyesNUOesNZsaIIsHnrYWn3SOikpaObMmdXqpdRaQ6u2JVjx0ZOwrEmQV40Hloth2Zi8BKukoWHtKgL2xAYH/DTxrdEtDh48+IYgsmpBrTW06llU7MAXFWOhriCvGg8sgFYtKnaUFxVLDA3dA+w8T4mJXD935vQORUUF1RoJ6/9ee+EFeyqEBbXN0MRtMtiyga0bqGmlhqaNbTLYaoItJ9h6IsirRoOy9BK29GBrD7b4iPlAnrS1TQZbkrA1qbZtkxENLS0ueuO82TM7nTiR31gQW9UjNDT0RUdzc1cbI/0ltc3QUMTixk9sRpQaGlwd1MaV3fiJzZMkg0Jsply4cGH1FcxTAptTsUkVm1XFshRJWxs/YWi1ceOnaGipsVEb3ps1o2O1Glp+/trXRg0Z0IzciTU84KRQ+9UGQwOwnR7b6qEQ2GYvNTQohFZCGejp3EJ4gLwuuUEkshodygDhFhB2AeEXOO+SvGgjlAEMDXJG+AiEkaiJqJGGdurU3iaL5s3tkh4fuxlMiIUjGpoYnKe8OZdnCQSIQaAYsZMuNTQohNaC87g5HUDgm5oenAcBhBBIqCqC8+CzBf1GICQEREJgpJqI9b//znJbZpQKziMaGlzHBXNmda52Q8NL0+NjNmkyNLFFK28VwbMEQp5h9AsuIpRBHHlUfVd9Yii60uHmrCzuIpRbjQ835+31I0LjgWdpHpAn5E0b4ebgUiLEX20LN/dMW7Tt27c3mDB6dKuYoIBf4TqKtSAKhw916zVlcaHBPBosgqEWFxeza8XX+MEEiAy7fctm9te2rWzH9m2lCNcxKfr3rp3s5IkCVXWpZWDQC8E8EdQTAVTVa2A5gKqq0tRGAFV4DDyA6t9nedDaqh5wPH3qJD+1dBvpmCb9AkHHQIcO7Gfnz51jZ06dYssWv8/iQoJ43qHDjyockgN0HLo+dvSI1tB9QXxVj7Vr19Z9a9Cg8CB3ly95wQhMccboO3x6N3I3cPTPR0sXs89WrGBffPIJW7JwPhs3eiQb0rcXGzagHxs+sH8pwvWh/Xrz/s/cmdPZrz/9yAqOHSNDLRZEWXnIIcH/WyHBEfn66KFDbO0vP3F3fsSgAWww6Zgm/QIN7d+X6xmmKxCzH4daYmALc4U43EOUAyfhO3R91KD+kdB9QYRVD6VS+X9ff77cjjr7C6WDISKhNrSi5tbL3pYfWIFDLaIC/fhcDI4D8rS34TVlWST+H+jhypIiw7nhwU27eLHsUyifFPIhF9V9yEVxlQRPvXDhPPtm9ZdscJ9e/FzzQDfnEjpUHuFgC+hkiLcHP4rXygCHaJbUZeg25ANd/3LFCnvoviDG6gH5929EBwcOc7NWXBaPbSrZsjXhh13wI3KEY3R067/Cj3IybPAaH83C8UClCNfpfxw8iGdBOGwuu3kq+/iDpezsmdOCiCsP+dim6jm2CTL+i2StTdy8cYPt2b2LzZs9i2WlpzJnhTnXLyx+xhFMXMdEnVInQf+4jtEzevXrMhxkWKolI4Juu1opLkPXcTC/IMbqRUZCQlyEr9cPTuYmt3k/TcooEa6hM4naEYQCRWv3JITnYLA4ZC41Npp9uGQRGdsZflhGZfGsDiLEYYD/9YMIW5EsIdNcku2Uf3AQoXYPLfl75w42duQIFurtySsF8A16Gh0DlZADygzXiJwtTG9HB/r9AF0XxFj9GNa7t15CWFieg6nxXktiSt3QtEVYmYCWEILEeVafrVjOLhZeEET+9Hh2R+tG/ueP1sWQPmTab/sp9nnBFVaoxfmz4qIiNn/WLBbs4c4Pi0crBd1QN5anJaTDiXSaWrO97bJb5kHXBVE+G2Q0a2blYWM1llq1QxgataUCFJmE4cG/RT+O9+WETIh9GV4DCQpZ4h56FrWMmHGR4EbiervWLanj+7Mg9qfHMzss3s66GP0jHOCOg9zp8f/cYfFY2wiZTvrnPMu/cktr82fFV6+yH9d8y7LSUvjyMHg7Cn3NBoaV99Ap1WoXUe9KHhYv6p2ol9BHexNDqjDN6dNor5PCfNTkyWMtBXE+O6xcufJ/2RnJDiFe7mPcba0P2JsZXyPG76LGxICIeuYxJ4HzqOk+TrbGhg9wv0Kv6R2FflPqmKuexX24HwIQn4WAUIOhxp005k1+1lVlXchr1Jn/iGpluI/qyoLvqJXxfc6BQnbuJlq1soHD8JYsmMeSIsM431wJJPzju/jb3szkTpCHS37LZonvDOrfOxITx/Pnz9da+HCkhTSRNt6Bd+Gd6nyIv0Vewfvi+e/xvJQFyACyeJdkAtlARqXkRrKETD86epkVlzOY9KT4Z8/frE+3LlwH4OlAJ8R8cBLyRXr0wNJA9w7p1W0LPR2uV6R3DzEhjQYBOijqGAjfbag/Rp933WwsrwV6uh0IdHMZqt+woRm9tmas7CFG/i+jWYxVYmRYtr+b8zRfJ/vf/Jwdj1JtcMZCV6fAXLcJJzKgAi9724KYIP+C9PiYk+kJsadiggP+cbexWkuC+NbaQP8rF2uLtdQ/OEs1L3e11I865a4CdWTbtMxgm/78g924XnZHvSKAnW64cIMpd59jOTiUUE1poEQp646yQX+hVbvGisjdLA8nC6hPMmEsH7EzaoC+ZWmXBi0KPjGs7uvocDLM1/vH5NjIkV07tg1btWpVQ0GsTw2kgbSQJtLGO/Au6btFAm/gEbyCZ/B+ouCYkBvNgAwgi8E7znDZiJWRaGSQIWQJmUK2lasKS+LnH75nUQG+DGdQq/et8J17Qno69yi/e5wtTddQq/aVaaOGq6gRWJcYGXq4eWL86dS46ILYkKACD9JF6KWZTuMC0sEzEf6+R6OD/H9LjAid1jojLTslNtRcEGnNAsmhTm5uK/tkMriEsJARXg524xS6OkrqrHKyMzVWRvj5KDtkZSoH9+391vD+fd/q0i67f6ivV461gUGag4lhcpCXa05McOD4cF/vda42iqu2xvolFIMrBdW+EX7ebNbUKapJ7UoCGxGx67rrlpMsmRSnRO1MHXqxdp6Uf579ffnWYxUHE6ajhgxi/q7OnFeMaKm7alAKkK0RRrUsmJ+r45FgT48Pgzzd+2PVf/d2OQE9OnWy6d+li87ZXbvqU7Kl3Etcw3+4B/fiGTyLNJAW0kTaeIf4PikP4Am8gUfwCp7Be3lA3iEDyALLrSAbyEhqaJAhZAmZamuTJzyXC+fPs7kzpsP1Zk3qvlgiP1RR8wUCjuYmhfT/Kh8Hu36B7o7plrq6yXr1Xk4M9/fJ7dO187DhA/uPHdy7p7JTTo4yjHQRemncuKEy2MNjXNtWGSN6de2UPX3SGHt6ZU1en6pq3XJycupnJSY28nNwaGzaoEEjkZxNTRslJgY1Gjq0e6O5cyc2mjZtWuMhQ4Y0iI6Orm9sbPxqqJlZXXzPiIlp3D4zIy3C3+dPNxvFQ6w0EYWKGgsuA2rozrnZbOvmTbwgKgN0vXZfuclG7DrLJ1wx+ljC2IjSSHk6bjzBlpObefZW2cP9wN27d/kGyZGDBzIfJ3uqYVUDOppqYHxyt8VI/6GlQdPrVBldCPP13J+RFL8mPT52EnY9d85qFY8YJOvWrXNfv369JQjfcQ3/4R7ci2fwLNJAWkhTkwuO76IcwRt4BK/gGbyXB+QdMoAs0n5Xq5SIIDvIELKETLU1QX3v3j2+eAFlji4HvBoxT/i0MdRnzgqzh2Henl8P6NszIjQ0tGGGn9+rZqRTpJZ1c0ivpiuVDaFzcydOJB0c2igxKOiRbsb4+TXu3r17oylTpqBSq965smeJb1eu1G+RnDTBy9H2OFdQuAQSJTFq8BqfaPzsk4/Z3TK2bjwJsOt38WFVBKcMtGISdwgE5UHt3Wf7KfbNqSLq3D9eg3bv2sFdMfR7wLs4cioqPM8PddKRJ9UAkDAySTW2r4vDbex2RmgBxPEI8nBdE+Tp9gUZxXIQvuMa/sM9uJc/I7rclBbS5GmrDRaAB/CC7+ANPILXxwF5Rt4hA8hCugoEBJll/H6cyxCy1OZOalQAs9+ZRpWCAy9/qYdAfXtsTbrvZqU4GuPvP4Rur77VG7UdmPPp1b1zDHVKv3cwM+IjRxAoFywpD5/Ipppt7KgR/DT+Bw8q1+G+SUqEjYtYgQ6lwYiZVIlQW2OBbCpdH7HzDNtSeINdr8DCveNHj/DBhWxMqlIHHiNlmDDV1HcTiRsH/pP+X4Hfj54Tr0kI1/FOvBs8gBfwBN7A4+OAvCLPyDtkIC4WlsqIy4wqKcgQsoRMtYEHD+6z0ydPsv553Yn3Bnyer0TeyPCsDXWv+7s4rkyJiooUVEhGRUDyrbN27VqdpPCQ2X7ODljGxGsyUbnQosEvb5mSxL789BO+UqAygErcJsX4/vRV1mvrqUcT2FJlaikoEzr64/ecZ5tJ8R63Wxh9C4zgff/N16x31y7Mz9mR18Yi8dZazTi4wahfx/dyfmt8RrgutgAigQfwAp7A2+NGbpHHLRdv8Dwj75ABZCHKRXQZITPIDjKELLVjZoxduXKZrflqNctIjOerPjAgJs0jyM7E6FxyTNTQ7774osafsFoj0TIlIS/cz/MY9cnuSQ1NVFIsBB0zYhgrvFD5CWwAwT3h9rSjPkjS2qNceUSF4kpFv+EyQeHm7C/kO4YrAiyK3rxhA3t3+nTWISsTq/qZ/uuv8hXyqKF53tSUp7KENJE23oF34Z14N3gALxVdqI08YigfeUbepYMfIMgIsoLMFpHstB0gdf++vWzkwAHcbYSRie63WKl42FhSN8J9X7vWLZvR7bXihNUah/atWwRFBvotszM1uiJObotChsAxLN0xqzWfX6ms+wg8oHoYE6yIKYI+B+bWpEuzQLgO5crbepItPaIKcY3J74rg8uXL7Dfq1CuHDuEr47G4FfM6GJjACge01HDtsOGyrBZPStIWC8/wSVxKA2khTaSNd+BdeCfeDR4qAuQJeUMesZ8MeVbvu0I2kBGui0fnQobaxC8/fs+aRUVQHlX5FCsl/kn5J5fxRnp8zGed2mQ6Cmoj40mBUaLowMCutsaGh0u4TkQwNL3X6rKkiDC2auWn5a7LexJgEhvxL7DqQXQXpcql6q+p+my9tqkObthfdPuxbqQIzP0dP3aU/bn2NzZj8tssM6WZaqc25QeGghUa+M6VSlCsconu4YZGz+BZbqj0HWkibbwD78I7KzrviLwgT8gb8thSqFw09csgI8iqvDgrT4tr14rZIupHetjZMN36dUtUOqrvOhju35oWG921X79+1bcp87+I1NhY/wA3l9/hJqJfJgobymXc6HU+rzKgZ95j54CeBBgx+/JEEVcyGBTv/JOiSY0NNTmUDzHl4VphgS36Jk8C7LX7dtWX5M69w0YNHsiDlCLiFELZuVoreH4RIKfJK/9jDV+sww+bAOE7ruE/3IN78QyeRRpIC2kibbzjSYA8IC/IE/KGPJZaNUPXVC27qrKBrCAzbbZl9+7eZbuoTAf16clsTQz5KnvRyEDIt42RAXO3tVnaKTPTUalUviiojIynQe8uXUyz01Lmhnh5XIZwRRdSdJvgt2OoH+HQtLGqXwRW96PP0W3zSb52DwonKppobLgG9ylnAwZIzvEBEsQtfBIuwPP9+/f5wAQiTSEfUyeOZ/3yuvEVMKnk9kX4+bAQL3d+ogsI33EN/+Ee3Itn8CzSQFpI80nkgTvBO0YXkRfkSRzkUG/JcA1rQ3FCDGQEWWkbWNe4eP48FhcWzI0KLbVoZCh7LKnCVp/Y4MBRlM9aE369xmL96tWv9+vetU2oj9d6EjIOHHgkcBCG+tEXwaqByo4+SoE+Sn7RLTbln/Msi5QL82vq/TVes1Ntj0GC3A3H2fCdZ9lXJ7Ei4ukGBDBfdIlcYLRCmEDG1vstGzfwXc6Ia4Fjk0D4jmv4D/fgXjyDZx836VwWwDN4x2Qz8iLOHaoPfkAGkAW+QzaQUUX7qE8CrAQZPqAfX/GBHd+oVHmZo4KlytbZ0vxWXGjQlq5tslsLqiKjMiCZvzhy0CDrUA/3mY4WJvcgeKmvjs17mKSd+OZodk5Le9VEwI3aVHidTco/x/dWQfnUjQ2EGh/9FezLwoQuto9gqVKRlvssVQHwCF7BM3hHS4W8qLdiIORdVakUsIkkk00Xrj+xu1xRnDl9mnVt14bpvvrKo50FoqGhsnWxsjjTpmXzyTOmjMfhEzK0hSh/3z6B7q53sH4PtZtobBi6hqFhrd6hAwe0MvooBbaEwJ3CqBoUDKsfNLlTqPnRZ0F/BqfSTMq/wBffnrt1l92ughq/sgBP4A08glfwrOp3lm7FRDcZeYcMIAvIpLytQ5UFDK1TThZr/PL/Ss+dUdk7WZj8k9epTUu6VV4Jok2kxsd0jgkOvI3hagyESA0NrRwCr+zfu1frhgbwlREXb7AJe86z1qR0qPFF90mdUOOjVWiz4QRf4Y5BhV/OFpNS15zgoeAFPIE38AhewTN415Qn5BV5Rt4hA8iiIitjKgMYWsfs1mRo/1eWoe3q36NTrKAeMrQBxGto3iz+zWAvt7uuluYlWjQM8SMM91vDh/J+ijZdRylQe2+6cIP3SzAIICofhr6hgFLFRAuAUTnEzMBvHP7w8bErbCspKAYOrj4DlxLvxLvBA3gBT+ANPIJX9RYaeULexEoFeUbeIYOqbMlEwNCwiLjJKy+VMjTuOlqaH+7aLqdnQUH1Hjzxn8XmzZvfGDNyaHJscMDX9qZGD6Tnd4HQR0OL9s6kCeXuCtYG0B/BpCxG2nrz+SXV0Dc+1RVVNWigcsVarz/OA9jg6CKcIYbIUQjTdoNahXtUMVSF3iJNpI134F14J94NHsALeAJv4FG934m8SPOGpVXIM/JeVX0ydZw7e5b17tqZGTdUTeA/6pfTJwZDqI92pXlC7GcDe3WPqfboVP81zJ4woUluRnqryADvVdQ3O0st2cNHo09EED6iGSFc2NKFC/h2iqoGavOj1DIg2jFaBSiqpuVaUqWFwibTPRgswYmYCM82fd8FHngUUX63X7rJCsgYMFleWSANpIU0kTbegXfhnXg3eAAv4Em9chAJeUGekDfkEfNkyHN1tGQiMEUxZuRwxO3gHgy6C6KhodztTAzveznYnAn2dFsW5OYW1aKaj739zwBbZdq0bNkmyNP1O1tj/Rvqw/oQPpYZQejJ0RHsh2+/FYqoelBI/RzEKxy356wq3BopJ9wsPpigQXlxDYT/cR8I8TZwTNRkcslwSATS20kGcuDqba7YCOeGI2tBp2/e5RspQfguXsc9uBfP4FmkgbSQJtLGO8T3ibyVxZ/IG/KCPCFvSO/CM+hfXr9+na38eDlLi4/lZYw9aNLyBwkGV+htZ/tJSnREsylTlLqC+sioCL7/4gsD5YABvRNCQ9bbmhhe17QyHTUchO/jaMdXQuzZvVsooupDMblle67c5AuR4V5hmwhaAz4qCVJTZpDokkGh8YlrOFgDwVzzKI2+207zVgSnZ8LVw7nQOIR94aFLfN0hCN9xDf/hHtyLZ/As0kBaSBNpS9+Fd0t5AXHDE3jmrTIR8oI8IW/I47MABrUwuDV66BAe21OPugjqOoDfqHCdLEyvxocE/dm9Q4duzyz+Ym3DkN69TTNTmvWKDw3a4mlnfV8UplTA+C0uoG3RLIH9sOZbHqznWeHY9Tvse3LTMFiAjY8YvXucewaStiKp647yo6QSflN9Yg0hQijA3cPQO9LFgAQI33EN/+Ee3Ct9FmlJWzBN7wbhP/AIXsEz0kVLiLwgT88at27dYl9/+QXfoArvRdNOB/xG9DVvqnATIsI29enaueuWtWv1BXWSoQ6S64u5LVqYJkWG9gtwdd5qa2xwV91dFAULgWNQJCY4kL07Yzo7e/aMqmSeIe5Q/2XXZVXrNnzXGdaVlBbLmLC6AkqvadBBqvCc6H/cUxkSW9KyDAz3gBfOExF4BK/gGbzD/UReagqOHD7EB7qig/wfLbx+1F+T6AQqZE97m4eJ4SHbWqeldLIiBRFUS4YUwwb2dkkKC5vg42i7h4zsDsKKq9deMDxxZXt0oB+bP2c2O3P6VJXMnT0NMCKHPtRuMjgEp0EkKEzwSg3tkVFJlF8T4X+pAaF1kpL0v4qkJRLuFw0NvIFH8AqewXt1jSpWFAhVgW1QE5SjWLCnG5W9qqItoReC14MQ3k4Ks7uOFiabnRTmvQcNGmQoqJcMYGjv3p6tUpq9E+DidBzrFsUaSipMXOPbSMiFwELT92bN5Ecn1VRgUnj9hRt8YAKBRDGsDsXGqB9G9OCuPXLvSPk1GUhlCEaFtPEOvAvvxLvBA3gBT+ANPNakyXRNQDiDXTv+YlMnjOdeDCpaGBs+seD4kcGRjuAa1ka6Wlv8lRQdPrJ7DTwyq9qBrQ1z5rzjmNs8bXaYj9d50cikBsZrKy7Y1/nv6KAA9u7M6ezcubNCMdRcwANDANH8opvsC2o1EIcehz5gsAI7kuG2wSjQwqCvJBJ+S1svkcQWTNN/0jRgXPiEscGw8C68E+8GD+AFPIG3GuQllgssRDh65DCbOWUyiw0JJD3BYYllhPIjHXJWmOFEohMtkpN6dOnSpR6pW80OIVeV6NWrq0O7zJaTycgK/g3yWbqzyzc0Nn6DH/+0YO4cdurkSUH8tQNY3Y4h8sPFd/gxtBgyX3zkEhv79zm+5wtHz8I40OKAREOREvpTMCZOav+B8AyWUWGlBwZEYHwYgcS6RLwL78S7wQN4qYoV99WBE8ePsdnvTCFd8OdGhoBD6t4P5toQExTGFh7g/W3L9MQEwdieL5C86uTn5zdum9WiS7iP10FnCzPe3KsLTGVgDbjAyLVk7783l4zshEritRg4KwyjejgFExPfGLKfdaCQByYdS4YxctdZ3vpgHgxuHk5s6SkM24PwHdfwH+7BvXgGRjWR0nhn7wV+TjcmmnG6Kd5VFeeTPSscOrifzZs9k+uEnYkRD59n2qRBCTcSIfcwYOblYHsuPiRw1qAePZ6//hrJ6uUPFy8ITo2L/sDB1Oi2ONsvCgnfRT/cxUrBV3F/u3oVn8T8rwDtCVoVxEvE8bQXbt/jh25gmdN6boBX2crjV7ibh8EK9KfmHbzECd9xDf/hHtyLZ/As0jhPaWHpFdLGO2pn21U2Hj4keZ0/z1atXMnatmrB7IwNucejrkMwNBeFOSJ//dqva1dXevT5ch8RobhHpw7dIvx9t0MYFtSaiQJCrYSRRRiZo7kJ65SbxX5Y8w0rKnp282TVCSxzwk5nhAY4c/MuO3fzHidEl8IKEBC+i9dxD+7FM9W5RKom4PLFi+zbr1axbm1z+QkwcCOlXQ/oFubYnC3Nd2QkJCRW69G4NQFxcXFNQ30933K3tS7gzb1QE6EWgqDw6Wlvw7q1b8vWfP0VtWTXBNHKkFESN2/eZL/8+ANrmZz4KHqYtGWDsVkZ6e30dnbIUvbq9Yaggs8HFAqFrrWx/iQrQ70zojDwCSODC4DaCXuRcBYWVgfIkFEejhw+zOOmUDeE65A4EsmNjOuW7k4HU+PsOB+f58vQ9OrX1zVu/Poks6aN1AytMTN4ox4LcHVik8eOqXWjizKqH+fPnWOfLv+IRzKGdwRDk7qP8JbsTQx3x4aH5n44c+bzZWhOFhZ6DhYmU2xNDM9bSlxHCAgh1LCLemCvHmzDH7+z27flFk2GZiBC9ccfLGUZSfFYxc9HqEsYGZG1oS6OxtrWPisriR55vob406KjdaOD/CZ5OdqexdFC/65pVPXRQF4OdmxYv75s66aNZGzaPWxcRu1HYeEF9uGSRaxFs0SNRsZHHakSx/ysp63NN+kxMXb02PO1QXTSkCEN2rVu2TXEx2MbjuCVLh6GcDDiiFggOIZoaN8+bMuGDeyObGwyBGB9K1oyGBn0BYcpYqSaD6wJesT7aWRsXvY2p6MC/CfgPDRB/Z4fsO3bX1IOGuQR7uf9ro2R/k2xjyYlCEr/tVd5aGsY2+b16+WW7bnHQ1Z0+TJb/sESlp4Qx8+dhpGpu4v4DU/J2cL0TlSg32ed22THTJs27VVB/Z4vzJ8/v16Qu3uOi6XFPjT9Yj9NSmjZsOfM3daSDe7Ti23ZuFFu2Z5jXLpYyL74dAXLbp7GQwyKLZlUZ/gUEVXSCJMeExxwoEvbrB5KpbLhcx1XJDIoyCYmJHCys6XFMXHuQ9q6wRWA742462jZhvTtzY8cul3FQ/7YdoMoTLt27OBRgX/54QdOOKz8j3W/sb35+Txk9fOGSxcv8p3s639fx3776Scuk19//JFHTf571052vgoXeqPM1/78E2uX2bKEkZVyF+nTjYwsOihgX6c2OSNxJrWgbs8v8vPzX54w4S1vbwe7yea6jQ+QsZWKcgUDhACxns3NxpIN7deXh8KuCjcSBysg+tKGP/9gi+a9x4YN6MeX+LRMTmKtiNAnaJ/Vip80uvqLz9j+f/7hQWRu3LhRZWHuniVQ4SBvyOOe3bvYpx99yEYPGcw652ax1mkpXC6Zqcn83LWRgwawZYvfZzv/2sZP9rmvxUBJKGuUOboQaKnQpVAf+FBV1DpYF/sgJijgIPGkXLVihQk9/vyu2peCFPSVIBcXGwvdxsMVek0OWen/W0NJCTUYlti421pTy9aHj0beuaNdY/tr61Y2QTmalCiVRfr7MG8ne+ZoYcpPM4F7i7B2TgpT5u/mzBLCQ/mk+njlKPbVF5/zY5H+S0BEsQP79/G8oWLJbZHOYoMDmJ+LEz+aF1uaRLk4Kcz4ofPYK5aTkcamTZzADVMbQBmjrFHmOL4JHo70wAsQjA7uoqol8z9E5TJCOXSovA9NE6xMmloqdHVGKfSa7oXw4BKou5HY9IlzshBebii5kZvW/8lu3bopFMnT42pRET/1v19ed+Zlb8tD2OHwDBg33gkXRST8Rr9Rp+5L/KhXHBuVlZ7KJo55k63+bCWveU+eKBBSrl2AcZ04fpzkup59/MEH7M3hQ3neoMBNX32ZNaU8G5cjEz1qaSA3XycHavkGsb+2bWX37z99ywZ3EWWMskaZo+zxrtLuog42esLI9nbOzR41b+ZMS0GtZGhAHUvDRiYKfRibziES4sOy3EicaOlObiT6bNyNrESfDaev/LhmDT+0z5JaU6Rf4jBAqi1F1wSE3/weKnCQOMKFZWNhPp7UymWy92bNYDvIhcJC6Jo+Ugr3EOsFz545zTZtWM/PVUM/KNDNhUefQt6QRy4Tyu8jmYhyoU9RJpAZWhzcCxdvWP++bPfOHU/lRqJMVS0ZGRmVNcoc78A7pfoAInfxIbW2h9pntx4lu4sVhKVxUytLA53hlnpND2ga9kdthpYGrQlGI4f06cW2btz41McVoWPfrV1b3sHGec8wHmlhlke4D4Wvqs3r8k9HCxO+QbVtywzeIuAw+5occgHxOD54fyEbPqA/y23ZnEUF+HG3EPLFIBTyhDxqyr8mgkzQ6qFP7UmuHowNBwo+Cbi7KPTJUMbgBWUubclg3CDuLgb6H+yU3Xq4Uqm0EtRIRkVgqqdnQS3baCq0fY8KUU35UXsiHLgH9dlQIBgdfJKtNFisvHXzJr4YFa0Ramv4+VIjw/cStbeEpLxI7wVfiDcJVwvG2yIpgU0dP5bzhz1UNQFw504UFPAwfcphQ1hcSBBvuWAcMBLkoaw8qkiUh0rZRflI78N1DFrgpNaRgwayndu3U2X4+BB26ApsppZ1aD/qk1HZoozBjzofkC1azeggv32dcrKUCxYssBDUR8YToI4h3EjeZ9M5DOHy1k2tMNH6QDFQq2FLzXfffMWuXi0SiqxsYIRwy6YNrE+3LnzaALu71QtTJN5XNNB9SPRA+CzRd5SSqGDgS+zfWZNCYF8dRi2XL13Czp4+LXDxbICTQPf9k8+mT57EEsND+UAG8sRl2UgV5x55KJm3f+XO8y+VCRko/13i/n/LB26kOxnbsP79+BQANm2WBbjZvCUjI0OfDK0p0kBa0nTBH5ZWUZ/scEdyF1csXiy7i5WBQkfH2tpEf4SDmcl+jPiJtacodBQwRqCwXAv9iXatW7IVHy7jc2DlYdOGDbwlw3QB9/3VanB8tzbQ44UZ4OZ8PjLAd12Yt8eqAHfntZ72NucRegE1Ku+fqLWCUgK/UBacO42+C47CXbbofXbm1KlnsusZMxA4Q27iW29Svlx43tHygje0TprygLzxvpGuDt+Ggv6Sj5P92UA3519JLl9G+vts9na0K3IwNebloS4LGBpaNkSURiz9I4cPCtyUxJ3bd3hLhq6ABxkZBqTU3UWR8A5yb/fHhQWNeHvMGGtBXWRUBu7u9mY+Lk6jvR3t96HTa02CV69xoexQaLQezRNiqeVYzFd2qwMdf+xdwllqGLaHEpg3Le2WwICczE3vhHh6HMhMTZ43pE+fNsP79Ilvn9kiJzrYf1agh+tGqnGPOJobF1ElwOMJorWVupjqaaKfgdo5JSaKrVi2lF2u4pNvNAEV0LxZM1mwpzs3MPXWQsqvWKGhQkGL7GaluEKVzP5AN9dfEiNC3umY1Spr3FujYvvlde2aGBG22M3K8gDd/4BXhpI08R2GCs8j0MOFzZk+jQ+8SIGBD6xn5aOLZMjoG2rqF1oZ8M+HCr2m+8jwR+s3bGgmqIkMbQARjLPTU0dgZMnFykJVw6opCFw/1IBo+VokxbMPF5c2tqOHD7EZk9/mB63jXlVNXtooYDT+rs67e3RoN+TdGTNcVq1a0nD79u31sJQnJyPDQjlkSETblhl940IDVoZ4uh8hnu6pntXcKmArkMgfFA5zUls3bRK4qj788O03LJUMHfLDnKQmZRYJckBrQhXSvRBvj2MZifEfZ6WndGyZlOTRIinJdNKkSQ1Onz5db/bs2U0G9O7tFODmNtzGUP+wpZ7m9OCWQq5RQf48uvT58+c4TwiQuo1kwQc+yI3HNilN5SK6pnSduhI6IxQGdU0F9ZChTSx+b4Z157atR1Dndz/6ZCgIqaJAKaDMUGTUfBiE+Ji3HJd4gaLzP/udqVj/xp9Fba7eMqJ1w3+uVoojKdGR47777rsy52P++mu9YefcrKikiNBuId5e7/i5Ov3g42hbgBrZiVoA8CNNX/zd8MU6PEzDrKlT+JxVdQD9MrirE99U8glmuGXSfIO4G6zbmIdpI5f6ga+zwwF/V6fVoT5e05Jjo3sM69cvvKCo7EP/urRubRfq4THN3UpxCu+AYUiNxYK+o/8HuVMLyKNMr1+3jv303Ro+hO9FMoGLCYMs4S7Sc2I61JLtV+jrjESXQnitjKrAqlUrTDpktVRGBwYcdFaYP+AFqGYs+I2WA4WNlg3LhjC8jMjGCLyJe9RXFqAgQXYmBhjpOhMfHjK9d+fO3sJrH4s5c+bo9+3aNSU9PnpKkIfbb562Nsepz3gdI3nq74EiOZgZ81YNoRqqA9evXePvateqBecBrZmULyg2Tk0l17vYxdriUKi3x5pWKYlvDurdO3LTpk16lMRjBxronpfeGjDAt1l42EIfR/srjpRHTQMkqAztqK+HKZDuHdrx1TWY9Ifrr16WuB9pgD8rfb1DZGRKhUEjuSWrDpDbZoo5k5jgwIM4pK4sNxJkT4WNwxHSqd8W6u3J+xvipKv0fvTxMLIW7OFWSMr40bC+fQOpNXtFeGWFsH79+te7t89SRAV4eyVHhncI9/P6ljr13NikCoR3431Bnm7sg/cXVMsaSWz3n/3ONL6sDK0W+qYiP5AdjxSlML8R6uP5eWZqak5SRIRH7y5dTIm3J9paguV0U5TKiNZpKUt9nRyuoLIT3yG+D7KADGA8KD8s54InAXdRvEcktLJIg/rmpxwtzN6UjayasXDaNCuszI4JDNgLNxKFou5GonDhpmAeBhPRcEtgfPweiWuCgketSf2swtSY6GWzp06NJt2sVFiyhw/P1h/ct0fbuNCgP3AqjtTQwBdqb0wKz5o2pVoM7SS5zZg8x9FGXNFFOYCIH1Lmy34ujt/lZrVqAWMRsvFUoNfVG//WqMhIf78PHc1NzuB94sCKVAYoL7TuMDBeBmplgk+44OTCno8NDXw3LsjHQXiFjOoEltpgDgUrtTEaiU44ClBae4oFCgPDp/p/IBgZPX8pws/345yMNBiZVvYtXb582axlctIYGyODYnVFw5pA8DRl/LhqMTT0T0cNGcQX5aobGvJvZ2qYH+Tp3qtNmzZGAvuVAjZZNosOj/Cyt1tuZ2x4CyPF4iS3+F5812SEIsG99nN1vpaWELt02rRJfpQN+ejcZwWs0O6ckzUMK7axSgAumVgbPo54IVNhu1qa3wnx8vg+NTo6Pi8v7zUh6UqDFOP/gj1cs630dS9C0aTv1iVDQ00+edzYZ2poGDQCb1aGultcbcxSQ0NDtRZgFLHus9JTWpGLv87JwuwO3MPHlY1Y+aEl83d1uto8KX7J2BEjgirbysrQAhbNnavAEhzqXO+DscEFQeslGpJ6QXJFo/8x90Wd8IfRgf7rWiQk5FTFIQhk+M3pnRcw0CDl41m0aKOHDmae9rYaDc1Cr8lGw4avNiOWtbrd/6fVqw3zOnfuEOHv+7O7jeI6JrX5+0j+4OGRp0E8qcqrCfWjDRi5sQXUr/5AOWJIiJCUjGcN0qM6K0Q3MjjggJOF6R0oEQYh+KiXaGz0CSMURwLdbCxvJoSHbunRsV2nmVUQ7w98BXm5t6d3XhQmWh9RTTM0hb7OZmtj3TQXPb36AvtaAb26zvLlyxsN7N0jKzk64htqUS9Tf/AWlcF9jPBioAPznjZG+g/p2j1bE8MbLpYWe+MjQqbMmTLBV27JaiAmKIdaUcvWA8FY/F2dTyM2JFotjLLxuRiqOeH3Y0Ag0MPlUGSg34Kc9PTmH86bZyAkoVWQkum0z249lBSpqCb00TQZGjc2Intz452xwb7tlMr+OgL7WsX27Wt1enZqFxEdGjAoxMt9aUSAz9akyPCTKbFRhfFhQSdDvD32UHn8QsY4NzLQp01m8+aOxPaLwuMyahqOHTvWsFfnDjFpsdETQ308v/Z1dtjgYmXxl4O58Q43a8vtfq5Of4YHeH/WMjlhZI8uHbyEx6oEpCiKQb17TrA3NSpWTR/UTENDJYClVd3a5g5atWqFucB+lWDzwc1vdO/cOaBLh7bd+uXljRvUt+c0MsBxWRkpA/r16Ja1atVKN2L3+Q2iU5uwZMmSujk5abrtWre2nj19SljfvLyMjMS4zJGDB6RPnTQ2oFVKinmXLq111q5dW6U1JhmQxYAe3ceXZWiYeqjOwRBNhsb7rMRbgJvzseEDB4zftG5dlQeyWbly5ctYyjZFqdSdMWO8nnLAAN1+HTs2XjlnzmvEqjyyWFtBilz/YWHh6/RZrXH9rly5Yt6mZcY46oeUGt7HlnysXpk05q1qMzRNo46ioQV7uBW8NWLY5J1btjgK7MuQUTtALat5qJ/POCtDveJHAzKCcmMJlGrCemq1GZpy6BAeD0WTofm5OB0f2LvnpF+++06eFJZRuxDq62puZ2w0TqHftFicR4Nio2+G71jrt2LZB4IpVC1Onzwp7EFzJh6a8GVoKsNXzVu52Vgdz0xNnjReqZQNTUbtgt4rL5ibNmlUytAwUY1h7bT4GB7KrTpw8cIFHqcyMTKUG9e/6wpVLa2tidFxH2fHSXFBQbKhyahdMGvwirl50yalDA2DIFjcnBQVXm2GhiCoKz9ezponxnE++N4wbmiYS9NlCl2d4xa6Om+bNm4sG5qM2gVbvQYaDU10HbGr4LMVHwumULUounKFzZs9i7+TG7tkpbxoaGY6jWVDk1H7EBceYGlvajzRQrdxsRUpt2hoGIwAYfMnou9i4+PaX35m6379pUrot59/4qevIFYjon2hj/bvdAPxRTzZGhse94PrGBEhG5qM2oX+3bubBLg6j7E11r+hvtYRhoZPX2dHlhobzaMB44SUqqBWKc34hldnhRk3MBj7v7yodi+4WFsczEhKGKRUDqnSCWsZMrQOpVJZLyUmqq+Po911KDkUXFRy3rKR0sPg4LphxzE2qWLIX2uE9IgQHx/vM9MpueEV1/Bu7IT2drLf2ik3K2n+1/Ofr6NnZfw30Dk7MzkywHePq7XinrhK/d/WBMrehCs/+m1VSaVbMqFVpWtUCVwNdHNZ0rlNGzlevYzaiV7t2ztQqzbNy8H2OB8QUVN2KD9v3Ujpq5LUjQx8oDWzNTa472FvvS7E061NixYttLYXT4aMasWAnJz6A/LyQppFhX/p5+L4ELsJeMumrvjVSNjNgBbO1cqChfp4nk5PjB0W4eeHndVypF8ZtRdYa9mzS8ecpMiINS6WFqexHw7BcDAIwVscUnoYH++zaSDxP7iZeAYt45MSnoNxWxvqMnvqszmYGRcFe3nszmnRfNbUiWM8BVZlyKjdmKlUvtGlbdvIAHeX6e62VgdcFOYPsNkRLQwMryIEV4/uxzMghNoTvz+WyMgQJ/+hvanRA3cbqzMR/j5ftGuZ0Wnu3Lm2OHVVYFOGjNoPxthLCaGhbnEhQV0Sw0Nnhvl4rowK9Ps1NTZqQ1pc9EZ8aqL0+Bj+X7if93fOCrOPyHAWKXSbvI/PxxHdt8i8ScNFjhami6MD/RbHBQVODnR16toqJSXyu08/bSqwJkPGfw9kcC/+888/ZsoRQ8LGjh7Reu7MdzotmDOr83uzZnTURO/PmcP/GzVkSEpcaKCftVFTVwvdhs42uroujyO6z0X3pRdckiMj3X9ctcqN3FhdgQ0ZMp4PkMHV3b59e4MTJ/IbnzhxggifpWnv3r1N8Eku3mtKpfLlFi+8gM2R2IWMzwoRvYsTfZchQ4YMGTJkyJAhQ4YMGTJkyJAhQ4YMGTJkyJAhQ4YMGTJkyJAhQ4YMGTJkyJAhQ4YMGdWLF174f28tqpKus3G5AAAAAElFTkSuQmCC;" parent="1" vertex="1">
                    <mxGeometry x="120" y="423" width="60" height="60" as="geometry"/>
                </mxCell>
                <mxCell id="45" style="edgeStyle=orthogonalEdgeStyle;curved=1;html=1;exitX=1;exitY=0.5;exitDx=0;exitDy=0;strokeColor=#FF8000;fontSize=14;fontColor=#000000;" parent="1" source="17" edge="1">
                    <mxGeometry relative="1" as="geometry">
                        <mxPoint x="750" y="610" as="targetPoint"/>
                        <Array as="points">
                            <mxPoint x="790" y="450"/>
                            <mxPoint x="790" y="610"/>
                        </Array>
                    </mxGeometry>
                </mxCell>
                <mxCell id="17" value="" style="shape=image;verticalLabelPosition=bottom;labelBackgroundColor=default;verticalAlign=top;aspect=fixed;imageAspect=0;image=data:image/png,iVBORw0KGgoAAAANSUhEUgAAANoAAADaCAYAAADAHVzbAAAAAXNSR0IArs4c6QAAAARnQU1BAACxjwv8YQUAAAAJcEhZcwAAFxEAABcRAcom8z8AAGmISURBVHhe7V0FeFRH1y7/V6HQFgtx3bi7uysxAoQIrsHd2RYvUrQUKVJaSksFKtRbaItDkZLiFhyChOA6/3ln76U3m00IZBOSct/nOc/u3r137pkz58ycsTMvyJAhQ4YMGTJkyJAhQ4YMGTJkyJAhQ4YMGTJkyJAhQ4YMGTJkyJAhQ4YMGTJkyJAhQ4aMZwTGWN3t27c3OHEiv/GJEyeI8CklXDvR+NixYw137dpVX6lUvkyP/Z9A/3sSondxou8yZDwfgMIfyc83HTtiRMh45cjM92bN6Ljg3Xc7zp8zs4OUFrw7i1+f886U3OED+iYmhAX5Kho1cjJuVN/JQlfXuULUsKFz/RdecG7bIsXt/OXzrg8fPmwqsCFDxn8TZGAvJYSGusWFBHVJDA+dGebjuTIq0O/X1NioDWlx0RvxqU64nhQZ9nuIl/s3zgqzjxS6Td43b9p4oaV+00UVIbp/kUmThovcrC0Wp8RGLm4eHzc5ISK4a4fsVpHTpk1rLLAmQ8Z/A+T2vdGlbdvIAHeX6e62VgdcFOYPbIz0H5IxMGtDvXLJykCXE92L+x8IhO8VJoWeDv90tVY8CPJyOxMfFvxlRmJ8m06dOhnn5+fDJZUho3aD3LX6PTt2zEmKjFjjYmlxGsZja6TPrMjILHSbMIumjRm1UvxTncTrZCj8fmsyuKchMjL+LltjA+ZkYQq6GujusjMzrdm0qRPHeAqsypBRO/Hjjz/WnzZ+fGh6fOyXvi6OD+1I0WE8MBwof3UT3isasJu1goX5ep1JT4wdFuHnZ0Ts1lFxLUNGLcOYkSPt22dlTg5wdT5ubYiWhQxMamT0nSs/WrYqIqQvNWzxN9xRauHue9hbrw31cs8NDQ19TWBbhozahXYtWyaE+XhvcVaY37No2ogpSPEfGRlX+ia8dTHTaVRlxN1PtfeC+DUyOGeF2VV/N6clbdq0shTYliGj9kCpVNaLDvTvQf2hC3AZeUsmtCy8FRMMAC2LnakRszczZvb41BI5COkhfdMmDZhJ4wbc6ERDE1s1R7rPz8Vp66DePZJOnz5dT2Bfhozagf7du5v4OTuOsTLUu4aBDFHBQWIL4+vsyFJjo1lWeirLbp6mVcrJSOefSD/Y0405mBtz45LywY2NPr0d7Q7mdWg7aNWqFeYC+zJk1A7EhQdYOpoaT1ToN7kuGhpvycjIQJ72NmxI3z7sp+/WsLW//MzW/fqLVun3337ln0h/6cL5rE2rDOZqZfGoNRX5ATmamRyP9POZ1D47w0FgX4aM2gFbvQbmCr2m4xT6TYvFIXYoNfpN+B4TFMA+W/Exqw5cvXKFzZs9i0UH+XMeTMmNBA8guI8WTZscN2n4xtv6r70mG5qM2gWzBq+YmzdtUsrQTJs0ZDZG+iwpKpx99cXngilULW7euMFWfrycNU+M43wYN3qjhKEpdHWOm+k0ftu0cWPZ0GTULui98oK5aaMGpVs0MjRMWieEh1Zbi3bh/Hk2d9YMFhMcWKJFw3fiDxPYxyOD/GTXUUbtQ0qor7mTuek4SwPd4hJ9NOofYfQv0N2FLVkwXzCFqsWJggI2euhg6hfa8v6hueC+cn7ot4+T3fG8zu0nffrhh7Khyahd2Llzp3lKbPQ4GyODYukkNZTb4I363H2cMflt9vDhQ8Ecqg4Fx4+zkYMGMHdb69KGBqN3czk+YnD/SZv/+EM2NBlPDlLiV7p0adHAx8rqDWWvXm+Qzr0o/FXloHeZ53VoN87exKhYHOUTSbd+Xd5PenvsmGoxtHJbNOIt2MOt4M3hw6bs2rDBSWBfhozyMV+prNe9XTuTAd27e6fGRqZ4OFhl2xobZPm5OWS1TIxL6NOpk1tmZrJhv379XhUeqRKQAVkM7Jk3wd60tKHpvfYqHxSZMn5cjTA0f1eno4P79h67/tdfbQX2qwTESp05c+a8lhoZ2cRFoaerW7++notCods6KUkHOxzof3lzam1A/saNjTvktE5Njo6YG+Hr9bubtcU26iPtIoXaSa7aThdL8y1+Lo6/RAcHzspMS0iMjnapLzyqdZDSKAb17lmmoWGY/1kbGicyNlcriz2ZyUk93n//fUOBfa2D2KizYsUKm7xO7VtG+vkMszU2nGjU+I3JjubmE2NCgkZ3yclprxw+3A33CY/IqImYoBxq1SE7s1dEgO+3/i6OV73tbZi9iSFXJAxGgLBNxEVhxrwc7K4Ee7mvigj06Tmsf387IQmtghRGJzs9tT8Z+BVpH62mGRrfSmOou9XdxrJVdlzcGwL7WkXXru2sU6OiWscEB04L8/X60cPe+oCVod5pU51G52yMDc94O9ofCfP2+jPMx2tukLtLbpvM5o7E9kvC4zJqAqhAUFOadMxuPSomOOCAo4XZXa5AwqZJfBdH/bjB0TWQs4XpnUAP15OtmydPWLHiAxshOa2CDL0ltaaFNsSLqNigmmJoVgYqQ1Po62wy122Y4mlgoNW1jitXrvzf9EmT7NPiY9/0dXLcaWNscJ1kf5fKBhtRBR5g6FRWhnr3bY31b7hYWuyNDwuZMmPKW97bt2+Xja2mYNmCBRYdc7NHRwf673W1VvCCE1esow8iFqhIWDFvoduYQfldrS1YgLvTkZgQ3xFWZIVCklqDTr2Xk4iPC9joKeWhphmahV6TjaY6ryeZvfBCXYF1raBfz56u2RnpM4M8XA/ZmRhx70JBshfLBWWFT95XJL6s9HWYLXkhXva2BVGBvrOiQtzthaRkPEsohw5VdM7JGhYd5H8IRoa+EApMVGheiPQb19WNjv8msjM1pD6K+d/BPu5d+3bubCAkXWk8fHjwFQ87m070rkvihLVIGHXEavrqGnXkw/uDBzLip5ShQdmtDHX/crYyy0ry9NRaixbq42wcHxr6ZqiP53m466j8NFV8JYj/r8NdfkcL05P2ZkZvmurqKoQkZTwLrBLdxaCAg84Ks4eWeirjkRYmvkOxuHJpMkLhfirQ+0GertuyUpO7HTlypIHwiqcG6fZLysH9fCL9vedRH+16TeijjRoySPNgCJGdieFRf1fHCckREVqZR0uLjTUIdHPuQ5XfX9gCBNdQWi4gXgEKJL0OQsVEFQC5lzqHya0dZWnYyERIWkZ1YuG0aVad2uSMjAkM2Ist+Sgc6V4r1NIoQCw1otqa7/Uy02nIDBu8xgtcdFlAuA+K4GJl8SAmyH9jz84du/7yyyY94VVPDNLrlye8Ncq7dXryFDLeQ2Ro90Vl4oZN3zGHRn0RNnfmDJUlVDFOnTzJJrw5mvm7OvP8QhZi/sETGcN1bwe7XQmhwSNnTB7vQsb/ipCdJ8aGDRvMenXq1MvP2WEzVX63NXkT4AEtuuEb9bks8FtaJrxiEp5R6DXdq9DVGWlp3NRKeIWM6oByyBDTTtmth8cEBx50tVJodEnQWsDIsPGxRVI865fXnbVKSWLOlubMhApWunodxA2B0vB2sGXx4aGb22S2yPH09Kxwy3b27Nn6A3v1smyVkhJA78lKjAiZFezlftDdzoobsdTQ8G5cS4wIY59/skIwharF5UuX2IdLFrPkqEguL+NGrz/KO3hCH9JFYU6G6Ph3WlzUtLwObXOTIiO9MxITjcjoKjzfuGjRoqYDenbPS4+N2UoV1z31ssF3lA0+Xags/FwcmZuNJecJ5SLeV4r0mh600NUZrjBoZCq8SkZVQjW62Gp0dGDAATIahF17pMQi4bdRw9f5UH5GQhz79KNl7PChQ+yXH35gXdvkwk1iBq/XK6UAICick8L8hq+zw7cBXu7JpKOPndP59NOFjYcPHhCfnZH6TqiXx28uCotD9qbGhdSpv29jrF+q9TSkd6MV7pfXjW3esF5lCVWMu3fvsh3btrE+3brwfCL/Ik8g8IglYTbGBvfIDb/g5WB31MvB9psof+8h/fPyIqmV0hWyWyYWzVzUtHfXTh2pAlznbGF2h49mSmQMQv7RgnmRC9shK5ONGTmM5XVsT31Ha966qZclSBgxfkAt2wFyI0fLbmQVY+Sg3tYdc7NHRAf574eiohDV3UXUlsZkZOjkt0hKYB9/sJSvXAfu3L7Dfvj2G9alTQ5zNDfl6w1xv7ohgMhIi6hF+rR/77xIerTUEPOpQ4dMBvfvHR0bHNg1zNdzSpiP15pAd5dT4MvWyIB4Uw3AqCsO3tfoxTp8x/Ny4q3wgoq36kDx1avsvVkzuVIbkQutzhvkiWswEAdVKIT7zgrzfB8nx6/iQoNnZFL/tV1Oq4DVq1e/LojhERAbMjU+JglzZNSS3TRv2qh03ps05CEVHC1MWfcO7diPa75l/+z5m296HdK3N/O0s2H61HeFIUrLhE/JcILhNt1PxjZSoaNjLbxahjZh0KiRaVxYEBlZAB9dLMtdFFsyuIsfLl5MinxBUDMViq8WUQGvYW1btmAW9DwKVWqsIBgJ0vZ2tCtMi4/5OLd5alJWerpZ5+xsg4Rwf7PWGan+3drmDkhPiP0s0MPlELk+9+Giqp4tyZOU0CfB+3Bvv+5d2b69/whcVR82/vkn60EtCJRd77W6fBlYeTzz/4iodWMxIQFHIgN834/082vTpnWGT0pMjEnfvp0NOuXkWMRFhDQjN3kJucRFQgtUgmB0MG70ldtTS7bmq9Xs9p3bnCdUgFs3bmRD+/Zh7jZWVIavcVmp8yWmS9cPW+rrjJDdSC3DXF/fjDrDo+3Njfc5WZg+tDH6t88jEloPFKQ1uT/NE2LZ8qWljUwE+itL31/ImkWFM0uqOWGcJQtVcCPJYN2sLS8He7j+Sfe+mxwXNTrM22O2h63VL2Tsh50tzYoczEy4K8rdJOJJXTlAuAZ+MRCDe3t26sg2/Pk7u31bpWjViWvFxeyXH38gGcUxvfqq1gO8qfPNfxOJn6gcXCzN6NO40MHcdK+vk8OP0QF+U3JbNB/VKjlxoZ+r8wYrQ91CTRUg0odBw1AQv+TLzz5lRUVXBI5UuHXrFtuyYQMZW28yNkvirW6pChAET4U+H1LLtg9uJHRDUBMZlQFcBAvUXnAZqADVR7DgYqATrf/6q8zB3IS1a92SrfhwGTtz+rRQhJpx7MgRtuDd2Sw+LJi7NDA2FKzUZRELGnE2qNN+keigu61lIW+9iAf8LyqpunKB8B8UGUrTtN4rvF/Wq3NH9vtvv/E+07PC9WvF7PMVH7Oc5ul8cAjuGlo3Ta2INC9wB1GZ8H4stYie9janQrzcD4R4ul+FjB4ZptpzkIFp44YsKTKMLVk4/5Errw60bOizDunTi1FlRmVaj5eLtExA3I0kg4NOcN2Q3chKoY6RUWNjDOtS4R0SBSwtSHxHTYk+GdzJru3asDVfry5VW5aFY0ePsJlTJ7PYEGHXMaUFxRDTFwkFjVFCfHIS/1NTKhCeRzpQWrH/R30WFuLlQf2QXmzT+j9Joaq/JVPHvbt3eN8IgyNkLLySAv8YEYVhYPhfXRZS2YuygFxE2UjvBeF+k8aq/ha5/GzuzOns3LmzAgeacZu3bGRs1LJhNBJeiib3VuJGHoKOWBkZGdPj8mLkJ4Wpnp4FXAMS5D4uWA0FCUXWrf8K1X7W3L9H1KeKGhnw4OEDVnDsGJv9zhQeKAdpQsnUCxW/RbeQ/6f2v/Q+8ITRM+4mUsuXFBnOlEMHs9Wff8YO7NvLXaSagps3b7A9u3ex5R8sYf175rGoIH+eD7TA6CdpcgNFEmUBYwSp34drmBQ3JYNFQKAFc+ewUydPCG8uH7du3eQt29B+fXjZoowhV2n6IFEnyND22RgbKjOaNbMQ1EdGRWD8xhtWlgY6wy31mh541HpICAKGS4FRQ3LluKuBzvTTumOHDu5n0ydP4q0OVmzASDQVrDpBuaBMqHWbvPIif9bJwoxFB/qxNi2as9FDBlNfcSnL372bPSSjrqlAv23Lpo1s8YL5bPjA/jweZLifN++joh8Hw4PXoKnPpIkgOz6i26QRiyPXHJPyFTUyEXfu3KYyRZ+tDy9jpKfJjQShErQzNT6YFh87XKlUypPaj8PatWtf9HW1NadONVoyuIsP1Q2NKzcVOFoNdJrhYmyhAoHL8bSAERzYt4+NGjyI+bu5cFcILhRcFigN3leC6JpqqJpcGipkKCQGOfzdnFnn3Gw2f84stuH338lNOsdbsAcPaq6Ribh//z61cDf5dMPm9evZzCmTWVbzVL6SxMnclMtEdIuRd8hAXSb4z5RcRcjOxsiAKhz/CrmLZQFlupUqAJQxyhpljndpaj0dzIwfUot8qH1261FYmkePy25kWRg1bGBgVJDvHGdLs4NYtwghSg0NtRkKEwty3amzjBEq9HngalQWULT8v//mtW/L5CRuOE1ffUXVwgm1qUiY7EUtb9igPgYEWJuWGWzyuDHs808/4S0Dau87d+4IKdc+3Lt3jx0/epSt/+N39sUnn7Bxo0ayjKR4PnCCvGNgh7cw1JKrZPIal1GTui/xlh2DRZDJB+8vZCeOHxdSfTrA2FDGfDSSyhxlDx2QtmwwPOzEcLNRwE3dS5XdqHkzZ8rnCKiD5FlXOWJEUEazhEWB7i7FzgozjSNYcF/g1kHgg/ugJduo9YGFc2fP8GVRIwYO4GG648NC+GABIlaBAohCvD14TEasbJigHMW+Xb2anTl9Skjhv4cjhw6ylcs/4q5wLrnECJMX5uvFgjzduDyCPFxZpL8v749mpaewEYMGkExWscuXLgopVA4oY5Q1yhxlDwOHLkh1A60aRqQxshsbFHAQS/RGjBgg99lEkBz/N2f6FN+0hNilfm5OxY7mJqX8cNFdRG2Kkaih/fqq3MUqGr27fv06n4PbtWMH+5QUbPrbE9n4N0fzRbnjyLBmTZ3Cvv7yC7Y3P59duniRByf9LwOu9fVr19h5coV37fiLrf5sJXt3+jvs7bFvcXlMGvMmm0fu8nfffE1ewW52/vw5rcsEZY0yR9ljUhu6IHUj8an6zk/HeYAdHVQRKmU3UkBGsxirVqlJUwM9XM/DyNCSoXYSjQxGh6FyuGoQMPz1zRsq1yd7EsCQjhw6xFdx7Cfa988/fFoAy5meV1wtKuKjtQf37+PyQP/25IkCdqOKKxyUOcpeXEECnYBuSCtmGB8+0bJFBwXsww6P6ZPGPL+bR0ludc6e3VU/PSE2N8DNeR+MTNPKCgy3w1XAyNPgPr2qxF2UUXuAsscACXQBOsHdSLUpGXyHG4m51ejggAOdcrJ6KPv0aahUKv9PUL/nBySzl6ij7ZEeH/Oug5nRTQx6qBsZaiesWkDthVoMo2HPYtmSjJoF6AB0QWzZoCNiSyYSvCKcsIq4MFGBfp91bpMdM23atCoNL1gjgdh+Iwf3y4wN9v+Nmv6HqIFEIYnuIgY+vHC0EdVemMCsLndRRs2Hyo1ULdfyFLbYlOVGksd0KjUuenyMn19jQf2eH3SMiWmcGBU2wMfZId+aDA0r5kUBoTaCkDDCxCejyVWQWzIZ6oBOQDcG9urBN5HyeU2JV6Rq1fR4ZR3m4/l113atn781kf4uLrr+bi7jXCwVJ3ktJAgIwkHNhDmbDlmt2I/ffSv3yWSUCSwIwG4ErHNFn0zaX8MnuiRYUODr5LBp5ttvh9Mj1RYSvkagWUSEXmxw0FQfR4fzqHUwECIaGoSFGqpb+7Zs25bNKonKkFEGrl27xr7/9huWEB7CmtZ7uUR/DcaGVSs+Tg47Plm2rMWThGX4T2BAt2662c3TJoT5ep/CFnqxj8YF0xSr3puyyAA/vpzpQjXuQpZR+4AoYrt37GDN42NZ41f+V2Kdqmho/i5OO1d+sjyTbn9NUMHnAxOHDm3UpkWLfqHeXn9Ti/YQLVkJ4ZDhiavf35s1g50+9d9deSGjcig4dpTNnTGdr+DBvsQSI5CkS6jEqUX766PFi9Ppdq0GiK3xUCqVdbu2bRsW7Om20s7YsMRokcrYVCHR0F/DKZXz58zm6++eBzygGvravQfs/K177MzNu+zczXvlEu7BvXjm3oOqjxFZU4DdGliJMm3ieBZLOoINqWjNUFGLeoQ+Gna/e9har5v81lv+9Nhzd1pNne0//9wgNiRgsKetdZGDqTHvn2EJjdTYsBIcRoiV4NPfnsQOHzzIHty/r5J0LQdM4i4Zxq37D9mN+w/Y5bv32Ykbd9m+q7fYnxeusVUnrrKVx6+wzwuKyiXcg3vXX7jO9ly5xQ4V32YXbt9jNynN25T+PTLc/5r5YeHz9q1b2LAB/ViAmwvXlxItGdcfHW5k1N+/6+vitBQxTgTde/7QtV276MTI8F/crBU3sf1COswPEkchLZo24ZGjsLB1119/CeKuvYARHLt+h20g41h1oogtPXKJzTlwkU3de4GNzz/HRu46w/pvP836bDvF+tJneYR7cO/IXWfZ2D3n2KT882zW/kK27Ohl9t3pYrbl4g3+Lrzzv4L1f6xj/Xt0J5fQni8wxgAadEV9Hg0DbaHeHgfbtGg+sEuLFpWOQF1rsWDBAuMenTt2ign2/4OMDaeMPBqBFEns0GJtm5uVgo0cNJDt/Gs71WrPLu7GkwIe3SVqZY5cu8P+unST/XCmmC0m4xr79znWY+splrW+gKX9foylrjtKdIyl0/fmT0h4Bs+Kz+duKGD9/zrNJpLh4V14J94NHsBLbfQy+YbQzZt4TExsskW8GHQxpO6iqDMYZKPWrDg5JnLe9MmT/deuXft89c+kINn9b+7cubpD+/TpnRoTvdXezPiOygUoLTi0bKaNGjB3a0s2rH8/tnvXTvbgQc12IxFWH32nQ9dus29PXWXTqMWC8nfdfJK133iCG0Pmn8dZxh8ljQa/WzwhqaeBa60pbbwD78I78W7wAF7AE3gDj7UB2EC7eeN6HucES68ebb7VYGQgJ4X5rVAvj19aJsU1g5FREvIq/u9XfW/eMSenvZeD7WrqwF6BG6DesoHQZ9N/rR4Ptjmsf1+2Y/tWVSnUQJy7dY/6TTfYR+TCwSUctOM0a0NKn0ItTtJvR1ny2qO85YFBtPrjODc4bVJLShPGh3fgXXgn3g0ewAt4Am/gEbzWZNy4fp3HguyUm8WDHWHDKbwcdSOD3ljoNsbG3UIfR7uVSRGhqbmpqU0ENZMBtMjLey3Cz6uZj6PDp84K84uY0YfwpMLEdwgTa9sQd3/EwP7cjXyW4dukuH3/ITt78x7bffkmH6hQ7j7HWxQoO5Qeyt+KjEAkTQYiEv7H/RWhiqQlEu4XDRC8gUfwCp7BO/JQk4C9bWt/+omHx+O7OcjIoAOiToh6gYoZAVo97G0u+Ls4fhTm4RHLXnhBbsU0oUVo6GtDB/aNaZkUv9Tbwa4IIQVEQUoFCzcS5EZu5MhBA9ihAweEYnl2uEOdnl2krIsPX2LDd53hrloOKTLcOPS/REMr1xAkxvO0hDTE9DS9C/eAF/AE3sAjeAXP4H0n9eOQl5qCHdu38aCzPIz76/V4uUt1AcQ9IL0mLNDdtbBtZuby3h06RCYlae+st/8ksEzmnYkTo1omJX4Y6OZc6IRd1yRMTcbW5JWXWIS/D/tw8aKnDgKjDWBU7/vTxWzKP+dZZ1JaKDHcNShyWQoPwn9wHdG6YCCkGT2TQC4ePlvSf3DzOm46wamDGonXcQ/ulT6LtB65pcK7NBH+A4/gFTyD98mUB+QFeXqWwIqPi4WFbNF7c7FWkW+HURmUmodDfXoMfPg42Z9u1Sxp0ZypU3FewvM78PEkgLHNnfVOREp0xCJXS8VZWyP9B+qT2hA6XAknhRnr2jaXbdpQPSezSFF87wHLL7rJllBL0GvrKa68LajFAIkti7pyo0WBcsMQ8IlrbclYOm8+wfK2nuTD9UN2nOFD9TP2FbL3DlzkNFeNxOu4B/fiGTyLNJAW0kTa0nfh3VJeQOARvIp84xrygjwhb8jjswAWk2/843ce3RmeDVozafnzyWhDPWZtoHeXPJujGUkJc8cqR4TQo7K7+CQggdVLi4lxdbNSjHZRmB9yJP8bxiat0URjQ0zGVZ+t5AVUXSi8dY8PmY/bc5aP6kGJy2tFuEITiS0YKGv9cW4caEU+PHqZpwfX7cDV2+zotTt8AvvUYwj34F48g2eRBtJCmkgb7xDfJ/JWFn8ib8gL8oS8Ib0Lz2Cw5OrVIt6aIcoxyhxRj8Vyx29EvsIQP9YxpsdGDhvSr5/riRMbn7/NndqCh5WVZUxw4HgPe+v96PCqd4QRgsyB/Pd5s2dVedwKAMucoNiYaB668wzv7ySR6yW2BpoUWHTPMMcFt284PTd93wX2gTCpvJ0MpOD6XXbtbuVbD6SBtJAm0sY78C68E+8GD49za5EX5Al5Qx6/pLwiz9W5xAsx+hGMx9pIjy+tkpY7DM3e1PCmn7NjfsukhJELZk2RI15VFiTzOu+9955DuJ/Pu+RC8APupIaGAxpsjA14pKqqDvuGETksc1pEblVvai1ENxCf6kqLa1BUtBJoVdBC9Nl2ms3cX8h+O3uNHSdjuIH1idQXqQr9RZpIG+/Au/BOvLvf9tOcl9bEE3jTNEiDvEjzBlcSeUbeq2tUEgeVICAtYkWqD4DA0HCYfHJMxISRg/s6Cqoio7IguddJT4zvGebtecXVyrxEp1j/dTI06gyPGjKYxyBEJ7oqgNp804UbfMCj25aTpKAql6wlKSomhtUVFQqMeSv8HkatAp+zOn+dr8y4erf6J9rxTrx768Ub7ONjV3hLBd7AI3hVryiQJ+QNeURekWfkHTKojpYNOzYQO7Phi3VKjzRS2TtZmu3p3rEdVuQ/f0F3qhJZzZt3iwrwu4KVIVg98q+hvcp30SJu/P69e6skBDdaBSgoljOhJRCVT6qYImH0DtRmwwk2aMcZNudAIfuZWpPT1JeqKThLfa6fzxZz3sAjeBX51pQnsVJB3iEDyAIyqUqgReuY3Zo1eun/NBqai5XFrreGD06kW+XBD22hqKioUXpc3BgPW+s79iZGj4wMxF1H3qIN4jEYtW1oqL23FN5g4/aoJp8zflf1YdRbANXInWp0D8Puk/IvsF/JwM7dustX0VePw1VxgCfwBh7BK3gG73zARK0SQV6RZ+QdMoAsIJOqbNnKdR3Jo3G1URzp061z7wsXLhgIaiKjMkCYsGF9+wZH+vmsoL7YQ6nAQdi+jn7blAnj2JUrl7XqOqI/sqnwOimiyshQ46v3Z0RFRI2PgYY+20+Ra3aZ/X35Fit6Bi7ikwI8glfwDN7TKA/Ii3pFAkLeIQPIYiLJZNOF61XWZzt75gzr1aUTj+2vvqYRhuakML+cFh+zdNjAvoGCqsioDHJzc5u0Sk4a5O/qvBchDtRHn+A6ImLWB+8voOLRXqFjr1h+0S3eL8kiJYP7VGrQgNfyKpcrd8NxNnznWfbVySJ29ubTuYlYSnbp0iV2/NgxHnJ8986dfN/V+t/X8fPf/lj7Gyd8xzX8h3twL57Bs0+7HA08g/cRu87yvCBPyJt66wYZiG4zZAMZQVbaBqJEI9y4t4MdL2esbZQamr2p8b0Ad5d/4iOCO9HtsvtYWTSLibGKDvJf7u1oe0dqaBA2hn2tDfVZ88Q49tP3a1QlpCVg4AAjbd02n2TpVMurD9+L7hQUD8uYxpM7tZncKb4iXkijIkALfP/+fb4KYtuWLfyQDbTO2G/VpW0uy0xNZtQ3ZcEebizUx5MTvuMa/sM9uBfP4FmkgbSQ5pO07rgTvMMlRF6QJ+RNk5uMa2j5MEACGUFW2gbWOOKMg+zmabxrgKjE0grWjvrlrlaKu2HentMXLpyhJ6iLjKcBVohkpabGeznYbHOywAEYKiFD2BgQweJiP1dnNl45iseC1xYQGgDzZL22nSKlKt1vgeKp+jPHWd6WU2zO/kI+QIDd0k8CHGuEVemIeTF66GAeNg1HJOG0FhzogUWyyKdO3ZdYg/+9wAcGQPiOa/gP9+BePINnkQbSQppI+0mPToIriLwgT8gb8oi8So2Nt+SCXCAjyAoy02a7hooC4SvGjhrJV4bovPrSI0MDWRPhepi3x0+jhg+OX/3++6+rtEbGE2P21Kk2zWNjxzlamJ5GCyYVNFozrH9LT4hlP//wPQ87pg1gwvfHM8V8SB5rCNFfERVMNDIon6hkS49cZvuLbrP7FWw9sOXj+LGj7E9yAWdMfptlpjRT7a+i/GAjI7YC4TuMCIQWnE9nCJ/q38X78AyeVW2GbMTTRNp4B96Fd+LdFQHygjwhb8gjhvk1tWyQDWQEWUFmxVruk96/d4998uEyfiAiugjSHfiiPgR7eRxv3zpzytgRI57fUAWVReuUlNSIAJ+1DmbGt6FMj4RMrRqUCZ99u3dhJwoKtDIIAqcv/8otPqqGGlucsJUql6omp5Zs60keguAYuU0V7aNcvnyZ/fbTj0w5dAhLiY1iXg62/OA+dPb5gYfkHnFDod+ikalXMFISDY4bGj2DZ5EG0kKaSBvvwLvwTrwbPFQEyBPyhjz2oLwiz8i7VBaQDWSE65AZJrSfzHF+PLCGtX3rVjjVk5c58ivmHeXv42R/NzY08LfmcXHugtrIeBKQjF+MCvQd6uNsfwlCFgUMglLhM9Tbk707fVqFa+rH4eSNu3yrSLuNJzQuq4LLhEGCnPUF3LU6WFyxKMo4JxpHDr07fTqfhPV2tOc1NIauxXgXYt60RUgTaeMdeBfeiXeDB/ACnioC5PHdA4U8z8i7+uAIZARZQWbor0GG2sSZU6fYezNn8j4pKhFUIMif2IVwsjBlnvbWR5Miw7N+/vnn5zcuyNOA5Ftn3szJlmE+noudFeY8lJgoWBBcRnSQ8zq2Z3+sW1vpsOGog9E3+f70Vb7cCMqD2lrqKoluJBRu/J7zfODjce4iWlkMTHz/zdesd9cuzM/Z8ZGr96jFkuQLhN9ibc1DpeN3GVTi/zLSwjuk7wQP4AU8gbfHeQLIIwL8IM/Iu+guinKBjMRBE8gOMoQstdWu3b1zhx/X1bZVC2qpsR/t38XFnCiP9mZGlxPCw2aPGz7cTVAhGRXBqiVLGg7q2yuXDG0jDIorlER5mtR9kddkOHMaB+NV1m28SYqx6zKG8i9w5dHcLzvGUuk6FueKo4uPA/pFSxbMYznN05iLpQV37eDWiW5vCYWR5I//J/4vfi+LhHsePSdJSyRcxzvxbvAAXsATeAOPj8N1yivyjLxDBnxwSCIfkCgzyBCyhEy1hcLCC/zIXgyGYfJamk9UHrYmhncjfH025qSlZQoqJKMieHvcOI/m8fHLfJwcCiFU0bUSv5vqNORnKWMQRBvAiBlcRmx8xByRel9EnFPChO43p4oqNLq4e9cONmXCWJYUGcZ5x34qKLuoIDw/+v+2RtjAiP1VHrZWzMfZ4Zanvc0xTzvr7b7ODuuCPd2+D/f1Wk0VzxcgfMc1/Id7cC+ewbNIA2mJLRzeIX0neAAv+A7ewCN4fRyQZ+QdMhDnDqUygsywcgQyhCwhU23h7r27bNmi93kwXWyVwqCPmB/kEZWxm7XlpbiQoNkrli79bx8UT/Ko0yUpqV5kpHeT2OBgA3dbW0OTJk0eka2JiWGAu7thZnKyYY8OHQx79Ohh2Dk72yAuLqipg4NxY2dT00bednZNxowZ6dgqpdkQXyfH/eibicLEJ2ov9DtIwdiowYPYvn/yVSVRCWAcY/eVm3yiFsqj7jLie9q6o6wj9UGWH7vMzt4qvw+CCeO9+XvYyMEDedxBS72mvF+hyU0UNy+Sojy0MtS94WBucjHcz+tA88S4b9MS4t7OSk3uNqBXXsbHixdHbNu0yXfv7t0eIHzHNfyHe3AvnsGzSANpIU2kLZWf+J1XVujrEG/gEbyC58dNdiPvkAFkkfb70VJyguwgQ8gSMtXWPDaW1e3cvp1HP3O1suBdB/U84dPfzXln13Y5A5XDBjiFhnrqQKccjI0bQ8c6d842GEQ616FDpmFyVJShVD/xPSLCVy8xKKhR29DQmrs7m2RRZynVJFRDtgrxdp0S4u3xubut1SoLPZ1VVLtyon7WqgA351VpsdGr2mW2WNUxO2tV69Rmn0QH+s11UpiOtzE2VHra2UwO9vJc6efstNfBxPg2FFEUJghuA4ScHB3JPv/kE3algiNo5QEBaRCcpuuWkyyZDKqE8qB1I8VBuAAEJsVSpcfpDoIFYd0lhqQRSAYBPlFBSPOhUgzVpCtOzvFzcTocFej3CXXoR2anJWd0zskJ6NOtg+1kpVL/8uXLDShZhEt7FM4a33EN/+Ee3Itn8CzSQFpIE2nbGhnw90kVE8QrLeINPIJX8AzeywPyDhlAFm03Yt1n6flFyBCyhEwhW20B0zcY6sdkvW69Vx55OaI88dvO1PCmr5P9P5EBPp8GerhOo7y/aWtiNCbS329uTvP0zzrnZq/Kap66KjYkcJWbtYLrpblOI/6dvISlYX5eo6MCfBOUAwfqC6KuUajXIikuqFl05DgqsJ/IwC75OtvzmgdrEGEsIDsTA+btYMsoI2QoEYwMjsWGBMBNum1nYnjWylCvwMnC7CL6D45miBNScjc1vsPQ4Pr07NyRH1Re2fDg6NptuHCDR4JCR7+5Wt8D7lAKKc6gv87wxbdFd8p/38mCAu6K+TjaM6MGr2vsi/GWjQg7DqhiORnq7fUjVRwjB/fvHb1z404jQaZPDaSBtJAm0vZ1dDiJ/qzq3aUNHjyCV/AM3k8UHBNyoxmQAWQxeMcZLhupmw3ZQYaQJWQK2Vay+1wC2zZvYtnpqY9aZPUKjLvfpHNYkkd0xdpA74SNof4p6oLcSggLYenxMSwxPISFeLrxCg6T3ujf4rs3tewedtYFpKNfhPn5DG8WF+enVCprRoAfPz+/Vy31moQRo4vJR77oaG5yB2cH2xrrc5cInVfR0OBbw5e2NzHkcyIgzPPgmhgPBM+oniu5uROETjwUNNzPhy14dw67roUJakxOf0SuEFqsUqsfiEQlwnaSczfvltuaYQQPgwvo90CB0VKoVxQg5I2M7I6LtSI/PiT4nUG9e0dOnTpVZ+XKlS8LYq00kBbSRNotmyW+E+Thkm9vZnJHyoeUL5FX8L54/ns8L2UBMoAsMOQP2UBG6nKDLCFTyFYbu8ZFnCg4zmZMeZtFkA7A0PiqfrW84FPUI/E61zvSNdJP0jsj7klwPaP/QPgu6qGDqdFt0uVCPzfXRbGhgWH9+vV7tuERKN9127VqFeCoMFlENcc5nApjY6QK6c1rbYkARMJ11EJilFnUpriG/5DhskbPcI9uvZeZs8KMhwTP371bJflKABOyOBBi6t7zfMQMa/fUlQU7o7Hq4dezxeVuCYEL+/033/B1eeAXnXX12ha/0aJ42FsXxwT5fxfu79MhKyPDmR7XmoGpA2n369HDOTUupkNsaNB3VGMXgwdNvIkDDORa8byU55ZDFpAJZAMZqVdS4g4AyBbzcNpadHzr1k22a8dfbEDP7uQhGfEKQlMgVXEgSPwN/YGuiTqH/Er/x3eus0QwOBy6QnTO08FmUfd27QLo1c+u3zZm5Ej79PjYKa5W5udEAxEZ1xbBFcCQtP7r9fhwfl6HduxPzJvdqfwi1svkAq05fZVH7VWNmJU0tGZrj7H2mwr49hFs2ixvZgjzPH26duHD5hjRA99iHngh0m8UoKe9TXGz6IivBvbo0Zweq7bCw7vwTnLvvwIP4AU8lVBG+g3ecawx8oI8lQXIAjKBbCAjyEpqaJAlZArZfnPqKpe1toCy/2bVl7xSc6AWCjxr6gdXhiAXGJ2Lldk56Dh0XRBl9SMlJjIr1MczH62Meg0CUrVeVHugBhFqESmhYDVdU7+OmhaLR3t06sA2/PE7u3nzpiDyygErzhGHHi6OOEEtNTTsLcNpLdsulj8xffnSJTZ3+nTm6+zIR0RRY6q7M8iTp4PtVeqQfztqyJDmy5Ytqy+IsdqAd75F7wYP4AU8lSgz+g7eVaO6jjxPyFtZgEwgG8gIspIamjiBDdki9Li2V/dfOH+Orfx4OcvJSEfsEK4nOOxC1BlNuiVSCR0T9FL0qkqUGV2DbkPHoeuCGKsXlNeGUUF+Y12szO/C3+U1gFBo8HPBJGoacbU5p5f/jzWp+xJr+urLfLNm03qvCJ9SeoWPKOH+hi/V4b4zBk6wTg/7r3CaiLaw/fJNftwRYmaUUJI/sfKBWrONJ/jxRwjnVhZu3LjO1v78E+vQOpMKTdX6SgtMHHzwtLMpQkumHDY4nRUVNRLEWO3Au8EDeAFPUh5FQh6QF+QJeUMeywJkAxnxcHuC3EQ5QqaQLYIBQdbaxvlzZ/nZ1aOHDmKJEWGkd035cjOuX490rDRBv6BnuBd61vjl/zEDyjN0VhwbEPWZjwqTjkPXixir9nKrs2zZQit/N+f3eOEIBiYSaggYSJCHK0uNi2ZpcTGcUmKiWHxYMF+zFunvyyMM41NKuBbu580/m0VF8NHF5UsXs6OHD6uGCLUEnBX2w5mrrMvmk3ydntTQMGqG/gVWQSByVFE5nXkc66ocNoSP2CHfvDUT5ICCQuE7mhnfRv+ob17XjE8//fSZxx0ED+AFPIE36dYjkNiHQZ6QN+SxLEA2kBFkBZlBdlJDg2wRzBWyrorz2e4/uM8O7NvLliyYz3p07MANjuuQr3cp3RIJAym4BwseVHoZyQLcnLnO4hw+UQ6cBLlA15cvXmxN4qvWDab/F+rv5WRnarSIK5OEMfxGB9XT1pq9PW4M2/P3LvbPnj2ccIDgzz98xz5b8TH75MMP2Yply/inlHDtoyWL2VdffsH+2rqVHTl8iLsv2liZLwL98uPXb7PFRy7ymjhZrX/BB0aI3tl3gYdpK68fj/4iVsZjbg8KKiosPkHoVwa4O+enxEV0nD9pUo1Z8ApewBN4A48ivyLvcKmQJ+QNeSwLKlne5bKCzEBSQ4Ns220s4LKGzLU0JlICOLoLo6SIF/PH2rXs0+UfsY+WLimlWyIt/2Ap17N1v/zM9XLHtq1szMjhfEWOccM3HskBBN3Gb+h6pJ+fM4muWiNu/U+3fn0XamoXEzMPMW/xqIDg9xJhzgJGpQ4YTHHxVVZ05Qof1cKnlHANW9hvV3KRcHnAEkWctDn277MsF3NnpByioeETtXLWnwU88CiOvC0L4lAztqHADVH38zFP5u1oX5jRLPGdvt3bKwTZ1RiAJ/AGHsWTe0RCXpAn5A15LG/zKGQEWUFm0nlIfKLSyll/nI3dc5ZtLLzOZV/VwNrXSxcvldItkVBxq4+orvn6KxYfGsLQokF/RWMTdPshdN2oXj1XElu1noH9PwtdXWdiYBGYEA0NhYNaHfMVGBFCbIuaiDv3H7LVJ4v4HisoBBbIirUwOvD4RKBTRPktbxDkOyqczJRknl8MIIiFg0+4Ia6W5nfDvL1+HNS/fyRVMK8IsqsxAE/gLczX60dXKwvVaauSPCBPyBvy+O1Xq4VclwZkBFlBZlIZqr6rDC9vy0m+Cxuyr4lADBboLPILHRYrTdHQiBbZ6Oq6kNhqjqFhIjq3RfMaa2i3xBqYWjO+hEhQCrEGxuEQk/+5wI+hLU8t5s2a+ejkSbFgQMJczH1/V8cDydHhIzFxLMitxgG8pUZHjvR3czpAPD8A72I+eHlS3pBH7JIoC5ARZAWZYVkWZCjKFASPAQa38NDFGnuONnQVOgvdrTWGJrZo6379RchGzcKF2/f4SBnvvBOJCgHlwDB1500n+CERZY02opG7SO6tcuhgUsRGzLCB2kgjuR6W+rq3IwN9PxvSt2cEyasmR2iqk9elfVCQl/ty6vjfUvH+b16QN+Rx5OBBPM9lNfCQFWTWZbMqtr/U0CBnHCWFqZTzJPuaCOhqrWvRarKhQU+wUgHRdqEQ6oYGhYCbU178C0yYItJUt3ZtuHuFuIPIv0iQh725yaXE6MhRmzdvNhZkVmOxcOGnjQM93AZQuRXihBZpXpA35BGRtpDnshYKQFaQGdxxyFC9RcMwP2QO2ZfnJTwryIamZaA/gbgWY/8+V8rQMMma8NsRftTRzss3y+yfXbl8iYd1Q8Qpvt6OFBH5R78GhNGrcD+fA5lpyRl0+0uCzGo0kmIiUsP8PPd72lk/ygfyhLwhjwjnhzwj75oAWUFmfbef4jKUTv7DPceSLDGmSHn93mcF2dC0DOyKxkETI3ed5bEapcuuoByojXGg3+HislcyFBw/ymMoIrwb8ivGL0H+0cfxdXG82Twpdk3nnExfQV41Ht3aZvuBZ18Xh5swMlHRkDfkMczHi+cZeS8LkBkOzoAM1Q0NsobMIfuK7EyvbsiGpmWI8RqxWkHspEMZ4OrwZUP0idMzEf2pLGCDZL+87jyWojidgfzzVoAIgWJSY6Mn9W7XDhOctQK9u7azTo2PngTekQexRRPzh7PCkWfkvSxAZuPyz3EZQpai+wgZQ9aQuRj/saZBNjQtAxsRPz1+hQ9FSw0NigFqs7GAH1V74nrZy65279zBurTJ5fmEEoqFAsIEp5PCfFNccGBbZf/+NXa0UR3gFTyDd+kCBOQNebQzNeZ5Rt7LAmSG89cgQ1GeUkODzCF7bW4G1RZkQ9MyzlFtip2/WAirydBwogrOhcaRtWUB8e4RiltcmCrW/iAoqbuN5c8dMzPivv7665qxabACwILj9lmt4sG7+kofsVVDnpH3sgCZQXY4VVSToUHmkD3KoKZBNjQt43GGBiV5nKFhcXNkoB8PyS0WCEh0HYM8XL97f9688Jo4SV0WwOuShQvDwLvUdRTLFXlFnpH3sgCZzSPZobKSDU07+E8b2tzHGBpWEQR5uvH495oMLdzf5+utW7dis2C1FkplAF7Xr13rRob2uZgfkZBH5BV5Rt7LwhlyCRceUkUSgyxF2eITAyK9yXX8hFxH3FfTIBualqENQ8MqApzogi0WmgwtxNvjsyP796NQahX27tpl4+fqtELMj0jII/KKPJe32gd9L8Tqxwkzmgwtb6vqnILy+r/PCrKhaRlVaWgiQVmhtIKsag1QOaCS0OQ6VsbQ8B27rXEdLV55I7rPCrKhaRlV6TqKBPcLbhjdWqtcR7i7cHs1GVplXEfR0HpQi7bs6GWtx+bXBmRD0zIqYmjaGAzBwEJtGwzBAI48GKLZ0BS6Td43rl/fiUQlG1pF8DhD09bwPobKn0VckKcFpiIwJVHVw/tf1FJDo/wvFAytejd+1lZDkyesNUOesNZsaIIsHnrYWn3SOikpaObMmdXqpdRaQ6u2JVjx0ZOwrEmQV40Hloth2Zi8BKukoWHtKgL2xAYH/DTxrdEtDh48+IYgsmpBrTW06llU7MAXFWOhriCvGg8sgFYtKnaUFxVLDA3dA+w8T4mJXD935vQORUUF1RoJ6/9ee+EFeyqEBbXN0MRtMtiyga0bqGmlhqaNbTLYaoItJ9h6IsirRoOy9BK29GBrD7b4iPlAnrS1TQZbkrA1qbZtkxENLS0ueuO82TM7nTiR31gQW9UjNDT0RUdzc1cbI/0ltc3QUMTixk9sRpQaGlwd1MaV3fiJzZMkg0Jsply4cGH1FcxTAptTsUkVm1XFshRJWxs/YWi1ceOnaGipsVEb3ps1o2O1Glp+/trXRg0Z0IzciTU84KRQ+9UGQwOwnR7b6qEQ2GYvNTQohFZCGejp3EJ4gLwuuUEkshodygDhFhB2AeEXOO+SvGgjlAEMDXJG+AiEkaiJqJGGdurU3iaL5s3tkh4fuxlMiIUjGpoYnKe8OZdnCQSIQaAYsZMuNTQohNaC87g5HUDgm5oenAcBhBBIqCqC8+CzBf1GICQEREJgpJqI9b//znJbZpQKziMaGlzHBXNmda52Q8NL0+NjNmkyNLFFK28VwbMEQp5h9AsuIpRBHHlUfVd9Yii60uHmrCzuIpRbjQ835+31I0LjgWdpHpAn5E0b4ebgUiLEX20LN/dMW7Tt27c3mDB6dKuYoIBf4TqKtSAKhw916zVlcaHBPBosgqEWFxeza8XX+MEEiAy7fctm9te2rWzH9m2lCNcxKfr3rp3s5IkCVXWpZWDQC8E8EdQTAVTVa2A5gKqq0tRGAFV4DDyA6t9nedDaqh5wPH3qJD+1dBvpmCb9AkHHQIcO7Gfnz51jZ06dYssWv8/iQoJ43qHDjyockgN0HLo+dvSI1tB9QXxVj7Vr19Z9a9Cg8CB3ly95wQhMccboO3x6N3I3cPTPR0sXs89WrGBffPIJW7JwPhs3eiQb0rcXGzagHxs+sH8pwvWh/Xrz/s/cmdPZrz/9yAqOHSNDLRZEWXnIIcH/WyHBEfn66KFDbO0vP3F3fsSgAWww6Zgm/QIN7d+X6xmmKxCzH4daYmALc4U43EOUAyfhO3R91KD+kdB9QYRVD6VS+X9ff77cjjr7C6WDISKhNrSi5tbL3pYfWIFDLaIC/fhcDI4D8rS34TVlWST+H+jhypIiw7nhwU27eLHsUyifFPIhF9V9yEVxlQRPvXDhPPtm9ZdscJ9e/FzzQDfnEjpUHuFgC+hkiLcHP4rXygCHaJbUZeg25ANd/3LFCnvoviDG6gH5929EBwcOc7NWXBaPbSrZsjXhh13wI3KEY3R067/Cj3IybPAaH83C8UClCNfpfxw8iGdBOGwuu3kq+/iDpezsmdOCiCsP+dim6jm2CTL+i2StTdy8cYPt2b2LzZs9i2WlpzJnhTnXLyx+xhFMXMdEnVInQf+4jtEzevXrMhxkWKolI4Juu1opLkPXcTC/IMbqRUZCQlyEr9cPTuYmt3k/TcooEa6hM4naEYQCRWv3JITnYLA4ZC41Npp9uGQRGdsZflhGZfGsDiLEYYD/9YMIW5EsIdNcku2Uf3AQoXYPLfl75w42duQIFurtySsF8A16Gh0DlZADygzXiJwtTG9HB/r9AF0XxFj9GNa7t15CWFieg6nxXktiSt3QtEVYmYCWEILEeVafrVjOLhZeEET+9Hh2R+tG/ueP1sWQPmTab/sp9nnBFVaoxfmz4qIiNn/WLBbs4c4Pi0crBd1QN5anJaTDiXSaWrO97bJb5kHXBVE+G2Q0a2blYWM1llq1QxgataUCFJmE4cG/RT+O9+WETIh9GV4DCQpZ4h56FrWMmHGR4EbiervWLanj+7Mg9qfHMzss3s66GP0jHOCOg9zp8f/cYfFY2wiZTvrnPMu/cktr82fFV6+yH9d8y7LSUvjyMHg7Cn3NBoaV99Ap1WoXUe9KHhYv6p2ol9BHexNDqjDN6dNor5PCfNTkyWMtBXE+O6xcufJ/2RnJDiFe7mPcba0P2JsZXyPG76LGxICIeuYxJ4HzqOk+TrbGhg9wv0Kv6R2FflPqmKuexX24HwIQn4WAUIOhxp005k1+1lVlXchr1Jn/iGpluI/qyoLvqJXxfc6BQnbuJlq1soHD8JYsmMeSIsM431wJJPzju/jb3szkTpCHS37LZonvDOrfOxITx/Pnz9da+HCkhTSRNt6Bd+Gd6nyIv0Vewfvi+e/xvJQFyACyeJdkAtlARqXkRrKETD86epkVlzOY9KT4Z8/frE+3LlwH4OlAJ8R8cBLyRXr0wNJA9w7p1W0LPR2uV6R3DzEhjQYBOijqGAjfbag/Rp933WwsrwV6uh0IdHMZqt+woRm9tmas7CFG/i+jWYxVYmRYtr+b8zRfJ/vf/Jwdj1JtcMZCV6fAXLcJJzKgAi9724KYIP+C9PiYk+kJsadiggP+cbexWkuC+NbaQP8rF2uLtdQ/OEs1L3e11I865a4CdWTbtMxgm/78g924XnZHvSKAnW64cIMpd59jOTiUUE1poEQp646yQX+hVbvGisjdLA8nC6hPMmEsH7EzaoC+ZWmXBi0KPjGs7uvocDLM1/vH5NjIkV07tg1btWpVQ0GsTw2kgbSQJtLGO/Au6btFAm/gEbyCZ/B+ouCYkBvNgAwgi8E7znDZiJWRaGSQIWQJmUK2lasKS+LnH75nUQG+DGdQq/et8J17Qno69yi/e5wtTddQq/aVaaOGq6gRWJcYGXq4eWL86dS46ILYkKACD9JF6KWZTuMC0sEzEf6+R6OD/H9LjAid1jojLTslNtRcEGnNAsmhTm5uK/tkMriEsJARXg524xS6OkrqrHKyMzVWRvj5KDtkZSoH9+391vD+fd/q0i67f6ivV461gUGag4lhcpCXa05McOD4cF/vda42iqu2xvolFIMrBdW+EX7ebNbUKapJ7UoCGxGx67rrlpMsmRSnRO1MHXqxdp6Uf579ffnWYxUHE6ajhgxi/q7OnFeMaKm7alAKkK0RRrUsmJ+r45FgT48Pgzzd+2PVf/d2OQE9OnWy6d+li87ZXbvqU7Kl3Etcw3+4B/fiGTyLNJAW0kTaeIf4PikP4Am8gUfwCp7Be3lA3iEDyALLrSAbyEhqaJAhZAmZamuTJzyXC+fPs7kzpsP1Zk3qvlgiP1RR8wUCjuYmhfT/Kh8Hu36B7o7plrq6yXr1Xk4M9/fJ7dO187DhA/uPHdy7p7JTTo4yjHQRemncuKEy2MNjXNtWGSN6de2UPX3SGHt6ZU1en6pq3XJycupnJSY28nNwaGzaoEEjkZxNTRslJgY1Gjq0e6O5cyc2mjZtWuMhQ4Y0iI6Orm9sbPxqqJlZXXzPiIlp3D4zIy3C3+dPNxvFQ6w0EYWKGgsuA2rozrnZbOvmTbwgKgN0vXZfuclG7DrLJ1wx+ljC2IjSSHk6bjzBlpObefZW2cP9wN27d/kGyZGDBzIfJ3uqYVUDOppqYHxyt8VI/6GlQdPrVBldCPP13J+RFL8mPT52EnY9d85qFY8YJOvWrXNfv369JQjfcQ3/4R7ci2fwLNJAWkhTkwuO76IcwRt4BK/gGbyXB+QdMoAs0n5Xq5SIIDvIELKETLU1QX3v3j2+eAFlji4HvBoxT/i0MdRnzgqzh2Henl8P6NszIjQ0tGGGn9+rZqRTpJZ1c0ivpiuVDaFzcydOJB0c2igxKOiRbsb4+TXu3r17oylTpqBSq965smeJb1eu1G+RnDTBy9H2OFdQuAQSJTFq8BqfaPzsk4/Z3TK2bjwJsOt38WFVBKcMtGISdwgE5UHt3Wf7KfbNqSLq3D9eg3bv2sFdMfR7wLs4cioqPM8PddKRJ9UAkDAySTW2r4vDbex2RmgBxPEI8nBdE+Tp9gUZxXIQvuMa/sM9uJc/I7rclBbS5GmrDRaAB/CC7+ANPILXxwF5Rt4hA8hCugoEBJll/H6cyxCy1OZOalQAs9+ZRpWCAy9/qYdAfXtsTbrvZqU4GuPvP4Rur77VG7UdmPPp1b1zDHVKv3cwM+IjRxAoFywpD5/Ipppt7KgR/DT+Bw8q1+G+SUqEjYtYgQ6lwYiZVIlQW2OBbCpdH7HzDNtSeINdr8DCveNHj/DBhWxMqlIHHiNlmDDV1HcTiRsH/pP+X4Hfj54Tr0kI1/FOvBs8gBfwBN7A4+OAvCLPyDtkIC4WlsqIy4wqKcgQsoRMtYEHD+6z0ydPsv553Yn3Bnyer0TeyPCsDXWv+7s4rkyJiooUVEhGRUDyrbN27VqdpPCQ2X7ODljGxGsyUbnQosEvb5mSxL789BO+UqAygErcJsX4/vRV1mvrqUcT2FJlaikoEzr64/ecZ5tJ8R63Wxh9C4zgff/N16x31y7Mz9mR18Yi8dZazTi4wahfx/dyfmt8RrgutgAigQfwAp7A2+NGbpHHLRdv8Dwj75ABZCHKRXQZITPIDjKELLVjZoxduXKZrflqNctIjOerPjAgJs0jyM7E6FxyTNTQ7774osafsFoj0TIlIS/cz/MY9cnuSQ1NVFIsBB0zYhgrvFD5CWwAwT3h9rSjPkjS2qNceUSF4kpFv+EyQeHm7C/kO4YrAiyK3rxhA3t3+nTWISsTq/qZ/uuv8hXyqKF53tSUp7KENJE23oF34Z14N3gALxVdqI08YigfeUbepYMfIMgIsoLMFpHstB0gdf++vWzkwAHcbYSRie63WKl42FhSN8J9X7vWLZvR7bXihNUah/atWwRFBvotszM1uiJObotChsAxLN0xqzWfX6ms+wg8oHoYE6yIKYI+B+bWpEuzQLgO5crbepItPaIKcY3J74rg8uXL7Dfq1CuHDuEr47G4FfM6GJjACge01HDtsOGyrBZPStIWC8/wSVxKA2khTaSNd+BdeCfeDR4qAuQJeUMesZ8MeVbvu0I2kBGui0fnQobaxC8/fs+aRUVQHlX5FCsl/kn5J5fxRnp8zGed2mQ6Cmoj40mBUaLowMCutsaGh0u4TkQwNL3X6rKkiDC2auWn5a7LexJgEhvxL7DqQXQXpcql6q+p+my9tqkObthfdPuxbqQIzP0dP3aU/bn2NzZj8tssM6WZaqc25QeGghUa+M6VSlCsconu4YZGz+BZbqj0HWkibbwD78I7KzrviLwgT8gb8thSqFw09csgI8iqvDgrT4tr14rZIupHetjZMN36dUtUOqrvOhju35oWG921X79+1bcp87+I1NhY/wA3l9/hJqJfJgobymXc6HU+rzKgZ95j54CeBBgx+/JEEVcyGBTv/JOiSY0NNTmUDzHl4VphgS36Jk8C7LX7dtWX5M69w0YNHsiDlCLiFELZuVoreH4RIKfJK/9jDV+sww+bAOE7ruE/3IN78QyeRRpIC2kibbzjSYA8IC/IE/KGPJZaNUPXVC27qrKBrCAzbbZl9+7eZbuoTAf16clsTQz5KnvRyEDIt42RAXO3tVnaKTPTUalUviiojIynQe8uXUyz01Lmhnh5XIZwRRdSdJvgt2OoH+HQtLGqXwRW96PP0W3zSb52DwonKppobLgG9ylnAwZIzvEBEsQtfBIuwPP9+/f5wAQiTSEfUyeOZ/3yuvEVMKnk9kX4+bAQL3d+ogsI33EN/+Ee3Itn8CzSQFpI80nkgTvBO0YXkRfkSRzkUG/JcA1rQ3FCDGQEWWkbWNe4eP48FhcWzI0KLbVoZCh7LKnCVp/Y4MBRlM9aE369xmL96tWv9+vetU2oj9d6EjIOHHgkcBCG+tEXwaqByo4+SoE+Sn7RLTbln/Msi5QL82vq/TVes1Ntj0GC3A3H2fCdZ9lXJ7Ei4ukGBDBfdIlcYLRCmEDG1vstGzfwXc6Ia4Fjk0D4jmv4D/fgXjyDZx836VwWwDN4x2Qz8iLOHaoPfkAGkAW+QzaQUUX7qE8CrAQZPqAfX/GBHd+oVHmZo4KlytbZ0vxWXGjQlq5tslsLqiKjMiCZvzhy0CDrUA/3mY4WJvcgeKmvjs17mKSd+OZodk5Le9VEwI3aVHidTco/x/dWQfnUjQ2EGh/9FezLwoQuto9gqVKRlvssVQHwCF7BM3hHS4W8qLdiIORdVakUsIkkk00Xrj+xu1xRnDl9mnVt14bpvvrKo50FoqGhsnWxsjjTpmXzyTOmjMfhEzK0hSh/3z6B7q53sH4PtZtobBi6hqFhrd6hAwe0MvooBbaEwJ3CqBoUDKsfNLlTqPnRZ0F/BqfSTMq/wBffnrt1l92ughq/sgBP4A08glfwrOp3lm7FRDcZeYcMIAvIpLytQ5UFDK1TThZr/PL/Ss+dUdk7WZj8k9epTUu6VV4Jok2kxsd0jgkOvI3hagyESA0NrRwCr+zfu1frhgbwlREXb7AJe86z1qR0qPFF90mdUOOjVWiz4QRf4Y5BhV/OFpNS15zgoeAFPIE38AhewTN415Qn5BV5Rt4hA8iiIitjKgMYWsfs1mRo/1eWoe3q36NTrKAeMrQBxGto3iz+zWAvt7uuluYlWjQM8SMM91vDh/J+ijZdRylQe2+6cIP3SzAIICofhr6hgFLFRAuAUTnEzMBvHP7w8bErbCspKAYOrj4DlxLvxLvBA3gBT+ANPIJX9RYaeULexEoFeUbeIYOqbMlEwNCwiLjJKy+VMjTuOlqaH+7aLqdnQUH1Hjzxn8XmzZvfGDNyaHJscMDX9qZGD6Tnd4HQR0OL9s6kCeXuCtYG0B/BpCxG2nrz+SXV0Dc+1RVVNWigcsVarz/OA9jg6CKcIYbIUQjTdoNahXtUMVSF3iJNpI134F14J94NHsALeAJv4FG934m8SPOGpVXIM/JeVX0ydZw7e5b17tqZGTdUTeA/6pfTJwZDqI92pXlC7GcDe3WPqfboVP81zJ4woUluRnqryADvVdQ3O0st2cNHo09EED6iGSFc2NKFC/h2iqoGavOj1DIg2jFaBSiqpuVaUqWFwibTPRgswYmYCM82fd8FHngUUX63X7rJCsgYMFleWSANpIU0kTbegXfhnXg3eAAv4Em9chAJeUGekDfkEfNkyHN1tGQiMEUxZuRwxO3gHgy6C6KhodztTAzveznYnAn2dFsW5OYW1aKaj739zwBbZdq0bNkmyNP1O1tj/Rvqw/oQPpYZQejJ0RHsh2+/FYqoelBI/RzEKxy356wq3BopJ9wsPpigQXlxDYT/cR8I8TZwTNRkcslwSATS20kGcuDqba7YCOeGI2tBp2/e5RspQfguXsc9uBfP4FmkgbSQJtLGO8T3ibyVxZ/IG/KCPCFvSO/CM+hfXr9+na38eDlLi4/lZYw9aNLyBwkGV+htZ/tJSnREsylTlLqC+sioCL7/4gsD5YABvRNCQ9bbmhhe17QyHTUchO/jaMdXQuzZvVsooupDMblle67c5AuR4V5hmwhaAz4qCVJTZpDokkGh8YlrOFgDwVzzKI2+207zVgSnZ8LVw7nQOIR94aFLfN0hCN9xDf/hHtyLZ/As0kBaSBNpS9+Fd0t5AXHDE3jmrTIR8oI8IW/I47MABrUwuDV66BAe21OPugjqOoDfqHCdLEyvxocE/dm9Q4duzyz+Ym3DkN69TTNTmvWKDw3a4mlnfV8UplTA+C0uoG3RLIH9sOZbHqznWeHY9Tvse3LTMFiAjY8YvXucewaStiKp647yo6QSflN9Yg0hQijA3cPQO9LFgAQI33EN/+Ee3Ct9FmlJWzBN7wbhP/AIXsEz0kVLiLwgT88at27dYl9/+QXfoArvRdNOB/xG9DVvqnATIsI29enaueuWtWv1BXWSoQ6S64u5LVqYJkWG9gtwdd5qa2xwV91dFAULgWNQJCY4kL07Yzo7e/aMqmSeIe5Q/2XXZVXrNnzXGdaVlBbLmLC6AkqvadBBqvCc6H/cUxkSW9KyDAz3gBfOExF4BK/gGbzD/UReagqOHD7EB7qig/wfLbx+1F+T6AQqZE97m4eJ4SHbWqeldLIiBRFUS4YUwwb2dkkKC5vg42i7h4zsDsKKq9deMDxxZXt0oB+bP2c2O3P6VJXMnT0NMCKHPtRuMjgEp0EkKEzwSg3tkVFJlF8T4X+pAaF1kpL0v4qkJRLuFw0NvIFH8AqewXt1jSpWFAhVgW1QE5SjWLCnG5W9qqItoReC14MQ3k4Ks7uOFiabnRTmvQcNGmQoqJcMYGjv3p6tUpq9E+DidBzrFsUaSipMXOPbSMiFwELT92bN5Ecn1VRgUnj9hRt8YAKBRDGsDsXGqB9G9OCuPXLvSPk1GUhlCEaFtPEOvAvvxLvBA3gBT+ANPNakyXRNQDiDXTv+YlMnjOdeDCpaGBs+seD4kcGRjuAa1ka6Wlv8lRQdPrJ7DTwyq9qBrQ1z5rzjmNs8bXaYj9d50cikBsZrKy7Y1/nv6KAA9u7M6ezcubNCMdRcwANDANH8opvsC2o1EIcehz5gsAI7kuG2wSjQwqCvJBJ+S1svkcQWTNN/0jRgXPiEscGw8C68E+8GD+AFPIG3GuQllgssRDh65DCbOWUyiw0JJD3BYYllhPIjHXJWmOFEohMtkpN6dOnSpR6pW80OIVeV6NWrq0O7zJaTycgK/g3yWbqzyzc0Nn6DH/+0YO4cdurkSUH8tQNY3Y4h8sPFd/gxtBgyX3zkEhv79zm+5wtHz8I40OKAREOREvpTMCZOav+B8AyWUWGlBwZEYHwYgcS6RLwL78S7wQN4qYoV99WBE8ePsdnvTCFd8OdGhoBD6t4P5toQExTGFh7g/W3L9MQEwdieL5C86uTn5zdum9WiS7iP10FnCzPe3KsLTGVgDbjAyLVk7783l4zshEritRg4KwyjejgFExPfGLKfdaCQByYdS4YxctdZ3vpgHgxuHk5s6SkM24PwHdfwH+7BvXgGRjWR0nhn7wV+TjcmmnG6Kd5VFeeTPSscOrifzZs9k+uEnYkRD59n2qRBCTcSIfcwYOblYHsuPiRw1qAePZ6//hrJ6uUPFy8ITo2L/sDB1Oi2ONsvCgnfRT/cxUrBV3F/u3oVn8T8rwDtCVoVxEvE8bQXbt/jh25gmdN6boBX2crjV7ibh8EK9KfmHbzECd9xDf/hHtyLZ/As0jhPaWHpFdLGO2pn21U2Hj4keZ0/z1atXMnatmrB7IwNucejrkMwNBeFOSJ//dqva1dXevT5ch8RobhHpw7dIvx9t0MYFtSaiQJCrYSRRRiZo7kJ65SbxX5Y8w0rKnp282TVCSxzwk5nhAY4c/MuO3fzHidEl8IKEBC+i9dxD+7FM9W5RKom4PLFi+zbr1axbm1z+QkwcCOlXQ/oFubYnC3Nd2QkJCRW69G4NQFxcXFNQ30933K3tS7gzb1QE6EWgqDw6Wlvw7q1b8vWfP0VtWTXBNHKkFESN2/eZL/8+ANrmZz4KHqYtGWDsVkZ6e30dnbIUvbq9Yaggs8HFAqFrrWx/iQrQ70zojDwCSODC4DaCXuRcBYWVgfIkFEejhw+zOOmUDeE65A4EsmNjOuW7k4HU+PsOB+f58vQ9OrX1zVu/Poks6aN1AytMTN4ox4LcHVik8eOqXWjizKqH+fPnWOfLv+IRzKGdwRDk7qP8JbsTQx3x4aH5n44c+bzZWhOFhZ6DhYmU2xNDM9bSlxHCAgh1LCLemCvHmzDH7+z27flFk2GZiBC9ccfLGUZSfFYxc9HqEsYGZG1oS6OxtrWPisriR55vob406KjdaOD/CZ5OdqexdFC/65pVPXRQF4OdmxYv75s66aNZGzaPWxcRu1HYeEF9uGSRaxFs0SNRsZHHakSx/ysp63NN+kxMXb02PO1QXTSkCEN2rVu2TXEx2MbjuCVLh6GcDDiiFggOIZoaN8+bMuGDeyObGwyBGB9K1oyGBn0BYcpYqSaD6wJesT7aWRsXvY2p6MC/CfgPDRB/Z4fsO3bX1IOGuQR7uf9ro2R/k2xjyYlCEr/tVd5aGsY2+b16+WW7bnHQ1Z0+TJb/sESlp4Qx8+dhpGpu4v4DU/J2cL0TlSg32ed22THTJs27VVB/Z4vzJ8/v16Qu3uOi6XFPjT9Yj9NSmjZsOfM3daSDe7Ti23ZuFFu2Z5jXLpYyL74dAXLbp7GQwyKLZlUZ/gUEVXSCJMeExxwoEvbrB5KpbLhcx1XJDIoyCYmJHCys6XFMXHuQ9q6wRWA742462jZhvTtzY8cul3FQ/7YdoMoTLt27OBRgX/54QdOOKz8j3W/sb35+Txk9fOGSxcv8p3s639fx3776Scuk19//JFHTf571052vgoXeqPM1/78E2uX2bKEkZVyF+nTjYwsOihgX6c2OSNxJrWgbs8v8vPzX54w4S1vbwe7yea6jQ+QsZWKcgUDhACxns3NxpIN7deXh8KuCjcSBysg+tKGP/9gi+a9x4YN6MeX+LRMTmKtiNAnaJ/Vip80uvqLz9j+f/7hQWRu3LhRZWHuniVQ4SBvyOOe3bvYpx99yEYPGcw652ax1mkpXC6Zqcn83LWRgwawZYvfZzv/2sZP9rmvxUBJKGuUOboQaKnQpVAf+FBV1DpYF/sgJijgIPGkXLVihQk9/vyu2peCFPSVIBcXGwvdxsMVek0OWen/W0NJCTUYlti421pTy9aHj0beuaNdY/tr61Y2QTmalCiVRfr7MG8ne+ZoYcpPM4F7i7B2TgpT5u/mzBLCQ/mk+njlKPbVF5/zY5H+S0BEsQP79/G8oWLJbZHOYoMDmJ+LEz+aF1uaRLk4Kcz4ofPYK5aTkcamTZzADVMbQBmjrFHmOL4JHo70wAsQjA7uoqol8z9E5TJCOXSovA9NE6xMmloqdHVGKfSa7oXw4BKou5HY9IlzshBebii5kZvW/8lu3bopFMnT42pRET/1v19ed+Zlb8tD2OHwDBg33gkXRST8Rr9Rp+5L/KhXHBuVlZ7KJo55k63+bCWveU+eKBBSrl2AcZ04fpzkup59/MEH7M3hQ3neoMBNX32ZNaU8G5cjEz1qaSA3XycHavkGsb+2bWX37z99ywZ3EWWMskaZo+zxrtLuog42esLI9nbOzR41b+ZMS0GtZGhAHUvDRiYKfRibziES4sOy3EicaOlObiT6bNyNrESfDaev/LhmDT+0z5JaU6Rf4jBAqi1F1wSE3/weKnCQOMKFZWNhPp7UymWy92bNYDvIhcJC6Jo+Ugr3EOsFz545zTZtWM/PVUM/KNDNhUefQt6QRy4Tyu8jmYhyoU9RJpAZWhzcCxdvWP++bPfOHU/lRqJMVS0ZGRmVNcoc78A7pfoAInfxIbW2h9pntx4lu4sVhKVxUytLA53hlnpND2ga9kdthpYGrQlGI4f06cW2btz41McVoWPfrV1b3sHGec8wHmlhlke4D4Wvqs3r8k9HCxO+QbVtywzeIuAw+5occgHxOD54fyEbPqA/y23ZnEUF+HG3EPLFIBTyhDxqyr8mgkzQ6qFP7UmuHowNBwo+Cbi7KPTJUMbgBWUubclg3CDuLgb6H+yU3Xq4Uqm0EtRIRkVgqqdnQS3baCq0fY8KUU35UXsiHLgH9dlQIBgdfJKtNFisvHXzJr4YFa0Ramv4+VIjw/cStbeEpLxI7wVfiDcJVwvG2yIpgU0dP5bzhz1UNQFw504UFPAwfcphQ1hcSBBvuWAcMBLkoaw8qkiUh0rZRflI78N1DFrgpNaRgwayndu3U2X4+BB26ApsppZ1aD/qk1HZoozBjzofkC1azeggv32dcrKUCxYssBDUR8YToI4h3EjeZ9M5DOHy1k2tMNH6QDFQq2FLzXfffMWuXi0SiqxsYIRwy6YNrE+3LnzaALu71QtTJN5XNNB9SPRA+CzRd5SSqGDgS+zfWZNCYF8dRi2XL13Czp4+LXDxbICTQPf9k8+mT57EEsND+UAG8sRl2UgV5x55KJm3f+XO8y+VCRko/13i/n/LB26kOxnbsP79+BQANm2WBbjZvCUjI0OfDK0p0kBa0nTBH5ZWUZ/scEdyF1csXiy7i5WBQkfH2tpEf4SDmcl+jPiJtacodBQwRqCwXAv9iXatW7IVHy7jc2DlYdOGDbwlw3QB9/3VanB8tzbQ44UZ4OZ8PjLAd12Yt8eqAHfntZ72NucRegE1Ku+fqLWCUgK/UBacO42+C47CXbbofXbm1KlnsusZMxA4Q27iW29Svlx43tHygje0TprygLzxvpGuDt+Ggv6Sj5P92UA3519JLl9G+vts9na0K3IwNebloS4LGBpaNkSURiz9I4cPCtyUxJ3bd3hLhq6ABxkZBqTU3UWR8A5yb/fHhQWNeHvMGGtBXWRUBu7u9mY+Lk6jvR3t96HTa02CV69xoexQaLQezRNiqeVYzFd2qwMdf+xdwllqGLaHEpg3Le2WwICczE3vhHh6HMhMTZ43pE+fNsP79Ilvn9kiJzrYf1agh+tGqnGPOJobF1ElwOMJorWVupjqaaKfgdo5JSaKrVi2lF2u4pNvNAEV0LxZM1mwpzs3MPXWQsqvWKGhQkGL7GaluEKVzP5AN9dfEiNC3umY1Spr3FujYvvlde2aGBG22M3K8gDd/4BXhpI08R2GCs8j0MOFzZk+jQ+8SIGBD6xn5aOLZMjoG2rqF1oZ8M+HCr2m+8jwR+s3bGgmqIkMbQARjLPTU0dgZMnFykJVw6opCFw/1IBo+VokxbMPF5c2tqOHD7EZk9/mB63jXlVNXtooYDT+rs67e3RoN+TdGTNcVq1a0nD79u31sJQnJyPDQjlkSETblhl940IDVoZ4uh8hnu6pntXcKmArkMgfFA5zUls3bRK4qj788O03LJUMHfLDnKQmZRYJckBrQhXSvRBvj2MZifEfZ6WndGyZlOTRIinJdNKkSQ1Onz5db/bs2U0G9O7tFODmNtzGUP+wpZ7m9OCWQq5RQf48uvT58+c4TwiQuo1kwQc+yI3HNilN5SK6pnSduhI6IxQGdU0F9ZChTSx+b4Z157atR1Dndz/6ZCgIqaJAKaDMUGTUfBiE+Ji3HJd4gaLzP/udqVj/xp9Fba7eMqJ1w3+uVoojKdGR47777rsy52P++mu9YefcrKikiNBuId5e7/i5Ov3g42hbgBrZiVoA8CNNX/zd8MU6PEzDrKlT+JxVdQD9MrirE99U8glmuGXSfIO4G6zbmIdpI5f6ga+zwwF/V6fVoT5e05Jjo3sM69cvvKCo7EP/urRubRfq4THN3UpxCu+AYUiNxYK+o/8HuVMLyKNMr1+3jv303Ro+hO9FMoGLCYMs4S7Sc2I61JLtV+jrjESXQnitjKrAqlUrTDpktVRGBwYcdFaYP+AFqGYs+I2WA4WNlg3LhjC8jMjGCLyJe9RXFqAgQXYmBhjpOhMfHjK9d+fO3sJrH4s5c+bo9+3aNSU9PnpKkIfbb562Nsepz3gdI3nq74EiOZgZ81YNoRqqA9evXePvateqBecBrZmULyg2Tk0l17vYxdriUKi3x5pWKYlvDurdO3LTpk16lMRjBxronpfeGjDAt1l42EIfR/srjpRHTQMkqAztqK+HKZDuHdrx1TWY9Ifrr16WuB9pgD8rfb1DZGRKhUEjuSWrDpDbZoo5k5jgwIM4pK4sNxJkT4WNwxHSqd8W6u3J+xvipKv0fvTxMLIW7OFWSMr40bC+fQOpNXtFeGWFsH79+te7t89SRAV4eyVHhncI9/P6ljr13NikCoR3431Bnm7sg/cXVMsaSWz3n/3ONL6sDK0W+qYiP5AdjxSlML8R6uP5eWZqak5SRIRH7y5dTIm3J9paguV0U5TKiNZpKUt9nRyuoLIT3yG+D7KADGA8KD8s54InAXdRvEcktLJIg/rmpxwtzN6UjayasXDaNCuszI4JDNgLNxKFou5GonDhpmAeBhPRcEtgfPweiWuCgketSf2swtSY6GWzp06NJt2sVFiyhw/P1h/ct0fbuNCgP3AqjtTQwBdqb0wKz5o2pVoM7SS5zZg8x9FGXNFFOYCIH1Lmy34ujt/lZrVqAWMRsvFUoNfVG//WqMhIf78PHc1NzuB94sCKVAYoL7TuMDBeBmplgk+44OTCno8NDXw3LsjHQXiFjOoEltpgDgUrtTEaiU44ClBae4oFCgPDp/p/IBgZPX8pws/345yMNBiZVvYtXb582axlctIYGyODYnVFw5pA8DRl/LhqMTT0T0cNGcQX5aobGvJvZ2qYH+Tp3qtNmzZGAvuVAjZZNosOj/Cyt1tuZ2x4CyPF4iS3+F5812SEIsG99nN1vpaWELt02rRJfpQN+ejcZwWs0O6ckzUMK7axSgAumVgbPo54IVNhu1qa3wnx8vg+NTo6Pi8v7zUh6UqDFOP/gj1cs630dS9C0aTv1iVDQ00+edzYZ2poGDQCb1aGultcbcxSQ0NDtRZgFLHus9JTWpGLv87JwuwO3MPHlY1Y+aEl83d1uto8KX7J2BEjgirbysrQAhbNnavAEhzqXO+DscEFQeslGpJ6QXJFo/8x90Wd8IfRgf7rWiQk5FTFIQhk+M3pnRcw0CDl41m0aKOHDmae9rYaDc1Cr8lGw4avNiOWtbrd/6fVqw3zOnfuEOHv+7O7jeI6JrX5+0j+4OGRp0E8qcqrCfWjDRi5sQXUr/5AOWJIiJCUjGcN0qM6K0Q3MjjggJOF6R0oEQYh+KiXaGz0CSMURwLdbCxvJoSHbunRsV2nmVUQ7w98BXm5t6d3XhQmWh9RTTM0hb7OZmtj3TQXPb36AvtaAb26zvLlyxsN7N0jKzk64htqUS9Tf/AWlcF9jPBioAPznjZG+g/p2j1bE8MbLpYWe+MjQqbMmTLBV27JaiAmKIdaUcvWA8FY/F2dTyM2JFotjLLxuRiqOeH3Y0Ag0MPlUGSg34Kc9PTmH86bZyAkoVWQkum0z249lBSpqCb00TQZGjc2Intz452xwb7tlMr+OgL7WsX27Wt1enZqFxEdGjAoxMt9aUSAz9akyPCTKbFRhfFhQSdDvD32UHn8QsY4NzLQp01m8+aOxPaLwuMyahqOHTvWsFfnDjFpsdETQ308v/Z1dtjgYmXxl4O58Q43a8vtfq5Of4YHeH/WMjlhZI8uHbyEx6oEpCiKQb17TrA3NSpWTR/UTENDJYClVd3a5g5atWqFucB+lWDzwc1vdO/cOaBLh7bd+uXljRvUt+c0MsBxWRkpA/r16Ja1atVKN2L3+Q2iU5uwZMmSujk5abrtWre2nj19SljfvLyMjMS4zJGDB6RPnTQ2oFVKinmXLq111q5dW6U1JhmQxYAe3ceXZWiYeqjOwRBNhsb7rMRbgJvzseEDB4zftG5dlQeyWbly5ctYyjZFqdSdMWO8nnLAAN1+HTs2XjlnzmvEqjyyWFtBilz/YWHh6/RZrXH9rly5Yt6mZcY46oeUGt7HlnysXpk05q1qMzRNo46ioQV7uBW8NWLY5J1btjgK7MuQUTtALat5qJ/POCtDveJHAzKCcmMJlGrCemq1GZpy6BAeD0WTofm5OB0f2LvnpF+++06eFJZRuxDq62puZ2w0TqHftFicR4Nio2+G71jrt2LZB4IpVC1Onzwp7EFzJh6a8GVoKsNXzVu52Vgdz0xNnjReqZQNTUbtgt4rL5ibNmlUytAwUY1h7bT4GB7KrTpw8cIFHqcyMTKUG9e/6wpVLa2tidFxH2fHSXFBQbKhyahdMGvwirl50yalDA2DIFjcnBQVXm2GhiCoKz9ezponxnE++N4wbmiYS9NlCl2d4xa6Om+bNm4sG5qM2gVbvQYaDU10HbGr4LMVHwumULUounKFzZs9i7+TG7tkpbxoaGY6jWVDk1H7EBceYGlvajzRQrdxsRUpt2hoGIwAYfMnou9i4+PaX35m6379pUrot59/4qevIFYjon2hj/bvdAPxRTzZGhse94PrGBEhG5qM2oX+3bubBLg6j7E11r+hvtYRhoZPX2dHlhobzaMB44SUqqBWKc34hldnhRk3MBj7v7yodi+4WFsczEhKGKRUDqnSCWsZMrQOpVJZLyUmqq+Po911KDkUXFRy3rKR0sPg4LphxzE2qWLIX2uE9IgQHx/vM9MpueEV1/Bu7IT2drLf2ik3K2n+1/Ofr6NnZfw30Dk7MzkywHePq7XinrhK/d/WBMrehCs/+m1VSaVbMqFVpWtUCVwNdHNZ0rlNGzlevYzaiV7t2ztQqzbNy8H2OB8QUVN2KD9v3Ujpq5LUjQx8oDWzNTa472FvvS7E061NixYttLYXT4aMasWAnJz6A/LyQppFhX/p5+L4ELsJeMumrvjVSNjNgBbO1cqChfp4nk5PjB0W4eeHndVypF8ZtRdYa9mzS8ecpMiINS6WFqexHw7BcDAIwVscUnoYH++zaSDxP7iZeAYt45MSnoNxWxvqMnvqszmYGRcFe3nszmnRfNbUiWM8BVZlyKjdmKlUvtGlbdvIAHeX6e62VgdcFOYPsNkRLQwMryIEV4/uxzMghNoTvz+WyMgQJ/+hvanRA3cbqzMR/j5ftGuZ0Wnu3Lm2OHVVYFOGjNoPxthLCaGhbnEhQV0Sw0Nnhvl4rowK9Ps1NTZqQ1pc9EZ8aqL0+Bj+X7if93fOCrOPyHAWKXSbvI/PxxHdt8i8ScNFjhami6MD/RbHBQVODnR16toqJSXyu08/bSqwJkPGfw9kcC/+888/ZsoRQ8LGjh7Reu7MdzotmDOr83uzZnTURO/PmcP/GzVkSEpcaKCftVFTVwvdhs42uroujyO6z0X3pRdckiMj3X9ctcqN3FhdgQ0ZMp4PkMHV3b59e4MTJ/IbnzhxggifpWnv3r1N8Eku3mtKpfLlFi+8gM2R2IWMzwoRvYsTfZchQ4YMGTJkyJAhQ4YMGTJkyJAhQ4YMGTJkyJAhQ4YMGTJkyJAhQ4YMGTJkyJAhQ4YMGdWLF174f28tqpKus3G5AAAAAElFTkSuQmCC;" parent="1" vertex="1">
                    <mxGeometry x="670" y="420" width="60" height="60" as="geometry"/>
                </mxCell>
                <mxCell id="19" value="&lt;font style=&quot;font-size: 18px;&quot;&gt;ServiceX&lt;br&gt;&lt;/font&gt;" style="rounded=0;whiteSpace=wrap;html=1;fillColor=#99CCFF;fontColor=#333333;strokeColor=#666666;" parent="1" vertex="1">
                    <mxGeometry x="337.5" y="580" width="170" height="60" as="geometry"/>
                </mxCell>
                <mxCell id="20" value="" style="shape=image;verticalLabelPosition=bottom;labelBackgroundColor=default;verticalAlign=top;aspect=fixed;imageAspect=0;image=data:image/png,iVBORw0KGgoAAAANSUhEUgAAANsAAADaCAYAAAAv3zflAAAAAXNSR0IArs4c6QAAAARnQU1BAACxjwv8YQUAAAAJcEhZcwAAFxEAABcRAcom8z8AACK6SURBVHhe7Z0JWFXV+ocbNOcJkXmeOczzLIOCCKKIOOCEQyo4A1amFqWWltpttDTN1Cul1r16K8e/1/GWFjabaSXOKWiKOYLy/ddvn7X1QFqWydnI9/b8ngN6fJ69Vu+31x7Xuo9hGIZhGIZhGIZhGIZhGIZhGIZhGIZhGIZhGIZhGIZhGIZhGIZhGIZhGIZhGIZhGIZhGIZhGIZhGIZhGIZhGIZhGIZhGIZhGIZhGIZhGIZhGIZhGIZhGObmEFHzDRs2WFm1aWxr1bixrYu1iY3WYn3ffTbWTZrYbF671kFsr4XcdIbRPlu3brUdk/NweGZqcvfBffuM7RARNsXJzKTQwdSk0MnC9EmtxcG0tYjJk8nto6eOzxk+qX9m936dYqPiUmMjvOfNnm0qm8Uw2mHFihUPLl78pufUKY8XZKWnrQ7z1e3V2duUulianXIyNz2NOGsw6ra5Wpr/4uNkfyrcz/tQ++CAHTEBvq/1SU/LnjNjhs+sJUuaiVHvftlUhjEeQsTGo4cPSc9I6bywQ1TY12E+uotCXHKxMCUn87bkamWmj6UGY2WubJuTWVsSxUe+zvbk5+pE3o62x/3dnD6JDPBdlhIfO6Fw0qRw0c6GsskMU/sUFha2nJg/tkuPlKSPIny9KiCvg2kbRVxni3Z1LmKU02+7CArQw9aKIvy8f8ronPTGuNzhGW+//ro1j3KMUXh4QFanjJROa8J9dBfcrS0UQR1FFGlrSKzV3Gw71YJzsWynFJy/q9Pp2NDgnaOHDs77cudOR9l8hrn7rHnppUZjRozQpcTHvBjqrbvkaWetjGg3k9ehnQnZt21NdhoMtgvbV3O7DbcfOxA3MWL7uThSTFDAFwnhoY+at2rEBcfUDqMGDGibmZo8Xpyffekizn1uVmT2ovggNGTGd1zFyKc/R9JIxPZguxzNTMimTQuyatWcbE1aKiOzYVvU4LsY6Vwszb/Q2dsUpCXGOPIhJXPXCQ8IcIn0813p5+x4GYVVU1AUGEY6HIKJgqTE6EhKiY+l5NgYzQTbkxQThXMy8rCxFIXWimzbtLzlSKc/PG5L7taWFUEebl/26pIyctWqVVaySxjm70fszRskxsQkeDs6fK6ztVb2+Kqc+HRop79AEunvQ+NyhtMbr7xMSxe9Re8sXUJFSxZrJtief769iOa/9grNmj6N8kfmUrfEDqRzsCXzZo3JvHmTajsRfRtNlcL0d3Gi2JCg/2V179pH9McDsmsY5u/l+PHj7QZm9c71drT/UbmQIGVEIKdd21YU4etFkyfkU/Gnu6iyspKuXkWuajLYvsuXLtOP+/fTMlF8wwb2V3YU+kNM/QWfau00b6ecw4n2V8UEBxRNnTrVa/Pmwgayexjm72Pbtm2+o4YPecHfzfmE4UUR/ahmIn5uS0P7ZdGnn3xCFRVXxI6/7lBWWkqfF39GixfMp+zePcnbyV45HHZU2nVjhENQjOE+XiVD+vctnPrII66yexjm72P9Rx9Fjc8dvjBI53bKsNhQaBgFcNVu+hNT6Ndz56TCdY+zZ8/Qug8/pFHDhpCvswNZt2x2vZ1qwaGtvs6OlQnhoV8M7JGeJf5ZY9lFDPP3sHHt2ghRbPMDPV3LDIsNVx/xc4SfD81+9hk6e+aM3tw6SsWVK7T1v5toQM8M5WkTtE8/csvDSREXEQ876wsdIsLnPze9MFj8swdlNzHMnbNhzZrwcTnD5t2q2KIC/OmFmTPo9KlTemvrMOfOlSsXU9I6xCu3BqxFcPioFhuKD79H+Psc6pXeZeqyZcv44WXm7+OPii3S31cZ2e6FYgPHjh6l56Y+TeIc9Te3BnAoiXt2AeLv4sKDP8MjXfNmzmwlu4ph7oz6VmxVVVXK4WTO4Gz9+ZsY3ZQrlHJ0Q3A4GejpVp6ZmrwiL3dYvOwqhrkz6luxgV9On6aV7yyjzrHRZNGiabVzN7QZv+MGfoiXR2lGSuKUz7d93k52F8P8depjsYGDB36ipydPpGCdh3zWs9X1glMi+yHI031TdmbmgFVFRfx0CXNn1Ndiq6iooF0f/49GPzxUaS9GuOuFJoK2K+/FWZieD9F5/HfcsGEj9uzZbS+7jWH+PPW12MDFCxdpycIFFCXaaNO6RbWLJUrEz7gB7mZtcSk6yP+TXt1SZ4wfk5t0ls62kd3HMLdPfS428EVxMU0cP5aCPd2V2wGG529q1Asood66U+nJif/O7JYyNCkpyi8zLdHxscfG2s2ePc0WmVlYaMe5jcwstHtx5ky7wkcftenevbtZ3tChJjvXrGkp/nfc24/J1fdiu3DhAu3YuoUG9e6ljGJ4jajm1Un0A4KLJj5O9uU6B5u9vq5O65PjohYNz+73yoQxo18sGD3yxfGjRrzE+ePkjcx5uWDsyFdHDOr/fOe49gXdUzqNeGryxN5r1qwKqKqqaibVvPeo78UGUHAri5ZR9+REpd14Q0Dth2pFJ4pQGfnE33naW4uRzvNCx6jwstSEuJOpCbEnU+Lbl3L+OKKvSrt0jDvVMSrsaJCn+1fiiGFnYnTEhqT2kQvSOsY9NnTAgJSioiJzqei9AxebnrKyUuWB5c6xMcrIZmfSShnlflN08nc8aaK+tCrO6Th/Ieg/9KNIlcg1J4t2lUGebme6Jnb4v4ez+w8vKBiJC1L3zitPXGw3OH7sCC1duIB6pHQSBWdC1q1bKP1QrdjUiL5RRzr0G+fPR3n7Av0ogh0c+hOH6qLgLsaHhXzdKTZquo+7g7tUte7DxVadU6Wl9P7ydyln0ACKCvBTRjezpo3IqmUzUVg3+odzd6IWoL+rE4X7eh2MCfJ7JrNrsk7qWrfhYvstly9douJdO+mZwieoU/tocX5moxdB7HnVyY7QP8qoxrmjKCOawQ4MP6u/+zg7UGSAz9FunTtOWrJkrpnQtW7PEcPFdnPwNvr+7/fSqvdX0vQnp1BWelcK9HAl61YtqF2Th8iieRNltMOzlZy/Hhs8DC5cU4tNLTgUId6g93VxJHFIuTE7q1f6kCFDWkht6yZcbL9PlfjvwE8/0qr3VtC0J6aIw8ts6pGaLEa8KIoLDaboQD9xuOkrg585txO13/C4HC6UYMeFIwZcMFGLDgWHz2Avt59Ff88dkZ3tILWtm3Cx/TF4U+D8+V+VaRYOlZTQ9s2blcmFXp49i2ZMfUo53Hz2KeRJzm1G7bdHxo2htI4JytVJHKKr/iHqz77O9tfCfL0+HpKVFSG1rZtwsf15rl27phReyYGfaJ841Pz+uz30/V7kO85tRu03zBHz75UrldnQ8BSPpXIh6sZTPBjpMAOar7PDj727dOm7Y8eOunsoycXGGJurYuf18fbtNKBnD+VQsuZVX9wS8HGyPzwwM3PK9o0bnaS6dQ8uNkYLlJ48qZwTB4nRDedq6ugGB+FlgLtz6eihQ17d8NFHwVLdugcXG6MFzpWX00uznsf6C4p38M+w2DD72/iRwxdsWrcuUqpb9+BiY7QA3p6fM+NZxbebFRv8hKfwVapb9+BiY7QA/IJnXGx/UGyV16ro7JWr9PPFSjp8voKOXOBw9IEP8AJ+wJNbwcV2m8VWXnGVvvrlIv3nSDktPXCGlpWcoSJOvQ88gA/wAn7Ak1vBxXabxXbiUgV9IDq08KufacTOIzRy1xEa/elRTj0PPIAP8AJ+nLhYIY35LVxst1lsR0UnFpX8Qrmic9M2H6BuWw5QxtYSTj0PPIAP8AJ+HBWHlbeCi+02i+2YKLZ3D55R9mbdt5RQD9HRvbYd5NTzwAP4AC/gxzEutr+n2JaLzhz72VGlg3tuK6E+2w9y6nngAXyAF/CDi42LjXOXwsVWAy42zt0KF1sNuNg4dytcbDXAxo8ZMfSWxRbu603PT59Gp8rKZLf8Fi42zs3CxVYDtdgCPFzKDF/eQ2Px9DWKbdYz03lk4/zpcLHVoHjnzvBxI4bN09nblFk0b6wUGF7YU+e+T4yOpPmvvUrlv7PMLxcb52b5M8WGI6fnpk2lcB+vWxYbBoU1q1fX3WI7ceRI+MuzZs1Lbh9d5m5jqcyVaNGiCZk2bqjMKjV62FBl8cBLFy/KbvktKDa+z8apGXhw2/fZDJ76xw4fL5GqxYYVYv1cnJRi27xhQ90ttoqKivA933wz742XXy4b2LMHuViYUdtGDcjWpCWlJMTRssVv05lfTitTAdwKw2JLF52bsfXATTufU78CD+DD7RRbeXk5vb1gPqUK51Bg1q2bK58oPBxlBbg7lz2enzfvu6++qrvFVlVVFS4y7/DBg2XrPvyQZjxVSBPzxtO0JyYrhYZ5Nv6I46LY3jt0libsPkZ9dxykATsOUfbHnPoeeAAf4AX8gCe34vLly/Tl57tp8iP55O1oR60evE+JyUMPkqedNfXqmlr27tKl80RR1v1iEym7evWqMkHpRXHIeEl8YsFA8eeyO27N6SuVtKP0PC344TQ9t+ckzdpTSnO+49T3wAP4AC/gBzz5PTBX58Z1a2lovyzlwhzWPMc5XE72QHpr/htlB0tK4Om9UWyyzX+aK9eq6NTlSio5f4X2n7us5AdOvY/qAryAH/Dkjzhz5hf6bOdO+tfyd2npooW06r2Vyhp6R48eKausrORiY5i7QaUY6VTgp/S0ThdbmMgbaIxsF8NoDvgpPQ2T6tY9xMaHirwuUirbxTCaA35KT0OlunUPsfEh5eVn3zx54sQpETp54mc68TOHo43AR72XJ07BU/gq1a07iJ3F/fv372+59sPVGcuLlq56e8H88sUL36RFb87DlR8ORxOBj/ASfsJT+Apv4a9UWdvs2rzLYvTwIemdYqKe7hQT+UGXjvEHunSIr+iamEBpHeNJ/M7haCLwEV7CT/H7AfgKb+EvPJZKaw+xN3hg2uTJtiMGDRyR2jFhfbCn+1msHoJnINUF/jgcLUa/BoCJstoNvIW/8Bg+w2upuHaYNW2a4+B+WRPjQoM+9XK0u4BnIbGkKhpja9LqepTF2zkcDcTQS3gKX+Et/IXH8BleS8WNDyp/xYoVdkOzsnLjw4K/8HawU/YSeO4MD3tyOHUp8Bb+wmP4DK/htyZGuOLi4qYTxo7tmxzbfpOHrVWFskj4zRogh2sOR0uBlzcbGOAxfIbX+WPG9IPnUnnj8fqcOdZig14Vx7q/ulqZKRtpuNHKO0Piz9Aww2Gbw9FClIITfsJTQ2/hMXyG151iY16D51J541Bc/J+mBTk5CSE6j80eNlbKi6FOBhuM42A0xMPOiiL9fZS1ojvHxSifHI4xo3oIL+EnPFXO26S78Fi/MqkVhejct8Bz+C7Vr33mzJlunZnaebSvi+O3OLlUN1TZWHlxxN/Nmfqkd6WnJk2k119+kebPfVX55HCMGdVDeAk/4Sl8rTnCwWtfZ8c98By+S/Vrn06Rke7BHm7T3a0tD2DDXOQGYgjGcTDexh7QK5NW/+t92rd3Lx05fJiOHT2ifHI4xozqIbyEn/AUvsJb9VRI9dnN2rIEnsN3qX7tY9umjZejmenzTmamBzHkqhuH42BsdGxoEP3j+ZnKa+kMo1XgJzyFr/AW/qrFBq+F44fgOXyX6tc+diYmOntTk+dEsZUYFptNm5bKcJyenEjLFi+is2dvPaEPwxgb+AlP4Su8hb+GxYbBBJ7Dd6l+7WPRvLnOpnWrmY7t2lYrNlzlwSr8aR0TlGfQSktPymYxjPaAn/AUvsJb+FttZGvX9iA8h+9S/dqnT1qaV/uQoFle9rYHsXFqlDkixUa3Dw6k56dPpaNHDstmMYz2gJ/wFL7CW/hr6LPw+xA8h+9S/dpn1fLlurEjhs0M9/UqwbGueiVHvVEYrHOnKY9OoJIDB2SzGEZ7wE94Cl/hLfyFx/AZv4f5eB2E5/Bdql/7bNy40S5ncHZBsKfbd9gjqMXmKIvN18WRCsaMop9++EE2i2G0B/yEp/AV3sJftdjgdbCn6154Dt+l+rXP3Llz26TERg/wcrApVs/XlGLDBou4WJnT8IH9ad9338lmMYz2gJ/wFL6q7qouw2vh9254Dt+l+rXPt99+2zw7q1cPX2fHT6rd1BY/4458u6aNqHtyEn39xReyWQyjPeAnPIWv8Lamyz7ODrvgOXyX6tc+YjsbPvP0E4mB7i5bMdxe30ARbDQmwuwc156LjdE08BOewlel2Aw8htf+7i7b4Ln4akOpvnGYPWNGgL+b83oXyxsbiGCj2zR8QGkE5uqruo0JWRmmtoGX8BOewteaxQav/dycN8Bzqbzx6JvR1z7A3WWVt4MtueIGoByC8cgL5vVPjIqgdR9+QBVXrsjmMYx2gJfwE57CV/VRLXgMn+G1GEz+A8+l8sYjRKezSIgIXRGFp6dtLK+fXGKjTZs0xAt4tHzZUjr/66+yeQyjHeAl/ISn8FUtNngMn+F1Qnjoe/BcKm880hISzNM6xL0VExxw1cPWqtrGtmv6kHKjcPGCN393wUOGMRbwEn7CU/hqOFjAZ3jdJSH+bXgulTceISEebQM93J/zdrQvc7Uyv34lBxtt3qyx8r7Qa/94gQ4fOiSbxzDaAV7CT3gKX9Vig8fwGV4HeLg9D8+l8sYjNTq6TXRw4JMB7q6HsXHXz9nERlu2aEqh3p70zJNP0HfffiObxzDaAV7CT3gKX9ViU87ZhM/wWox6hfBcKm88Zkyc2CZnyKApnePbl2CtK/VqDjbaqmUzCvRwpYl546h4107ZPIbRDvASfsJT+KoWGzyGz/B65ODsJ+C5VN54jBkzpmX/zIzc+PDgYncby6uGewbrVs0pwM2ZxueOoI+3byO++M9oDXgJP+EpfDU8MoPP8HpAZveR8FwqbzyGDx/etEtSh96hProNblbml9VzNmw03gvCSo+Ds3rTxrVrqOp3lvNlmNoGy0vDS/gJT9X3MOEvPIbP8LprYkKf/v37N5PKG4/ly5c3mTRhfLfOcTH/EXuCS4YjG954xSyzXRM70Mp3iuja1auymQxjfLAaLryEn/AUvtYY2S7B68fzx6XDc6m88di/f3+j2c8900FUf5G7reVF9bEttdhwkom78+8sXcLFxmgKFBu8hJ/w1LDY4DF8htcvzJjWEZ5L5Y3H5s2bGxROeiQwLjR4rquVxa+Gh5Hq1GAdIsJoyVsLudgYTYFig5fwE55Wm11LfMJneD11YkGQ+PqDUnnjITbi/skTJjiH+3nNcLU0L6/5qg3mVPdzcaJX5symq5W/v8g4w9QmlcJHeAk/4al6CoTAY/gMryfm5bmIr2tjGan333/fskvHhCfdrS3PqCObGsuWzcjB1IRmTn1K2ZMwjFaAj/ASfsJTQ2/hMXyG16uKiqyk6sZHbHfrfhnp+eK497STWfWnpi1aNFWu8kydMokuX76sbyXDaAD4CC/hJzw19BYew2d4Lb5q/HtsKmJjGkQE+A4QJ5WlLjVHNqXYWtCkgjwqPcmzbDHaAT7CS/gJTw29hcfwGV6Lrxr3PbaahAX49ojw8y4LdHNRTjLVE02rVs3I1qSlcuMQs8/i3gbDGBt4CB/hJfyEp/BVdRcew2d4LRXXDn17pGekJycdiw7wU0401ZNN69bNlXn4cgYNpOJPd1FFRYVsLsMYD3gIH+El/ISn8FV1Fx7DZ3gtFdcOqR3jOiWEh30e6OF6zXBks2ndguzatqKh/bJox7atdOnSJdlchjEe8BA+wkv4CU+rjWzCY/gMr6Xi2iE+JqJ9ZIDfBm8n+0pnC1FosthsxcknbhZmde9KH6z+N509e1Y2l2GMBzyEj/ASfsJT+Kr31pTgMXyG11Jx7TCof+/IbslJq0N0HheczNsqd+Cx8bh/gZuFmNr57QXz6cSJn2VzGcZ4wEP4CC/hJzxVRjbhLfyFx/AZXkvFtUPuw9lBPVI7Lwn28jjtfJNiS02IpQVvzKWfjx+TzWUY4wEP4SO8rFls8Bcew2d4LRXXDpldk3VJUREv+Lo4HsZQrJ6z4XgYjUmKiaRX/zGH5/1nNAE8hI/wUik24alSbPBWBB7DZ3gtFdcO6cnxzrEhgU94Odjtw0arcWinX+o3ws+bCic+Sj/s+142l2GMBzyEj/ASfsJTQ2/hMXyG11Jx7TBt2mT7gT17TAjSuX+jXtHRFxsaYkIBbi6UPyqXp0dgNAE8hI/wUnUUvqruwmP4PHNmofHm978Vq1evNh+RPWBYqJfnZ1j8W13IXm0IXs7LHTKIvv6SZ0dmjA88hI/wslqxycBj+Lx+/Xozqbh2KJhV0Cw60LeLh63VJmVhRBF1T6Hc4DZvR/16dFduJDKMsYGH8BFewk/1SEx1Fx7DZ3gtFdcOhYU9H8ofObxDgLvremy0YdAYi+ZNKCWuPX28fbtsLsMYD3gIH+GlMhjUcBYew2d4LRXXDmL7H/pq9+728eEhazDBpXrpH0FjMI86JsLcummTvrUMY0S2CA/hI7w0LDZ4C3/hMXwWX9VksT2wa9cut1Avj+VOOP6Vw7LaADQqKsCPNqz9SGkswxgTeAgf4aXhwKDcthL+wmP4LL76gFRcW+Tl5ZlE+HovwhUedxvL643Ap2njhhTh50PLi/5JFy9e1LeYYYwA/IOH8BFeGnoKb+EvPIbPUm3t0bNnz+ZdExPmJYSHkpeDbbW1ic2aNqJQbx3Ne/UVKj1xQjabYWof+AcP4SO8VC+OwFd4C3/hMXyWamuPLl26NO2WlDAnLiz4slJs6uVUWWwhXp4096UX6cTx47LZDFP7wD94CB+rFZvwFd7CX3gMn6Xa2iM8PLwJ7rqH6DxK3W2trjcCn1i0IMjTnebMeJZKfvqJF0dkjAK8g3/wED7CS0NP3W2s8BByKTyGz1Jt7ZGcnNwoOiAgL9Dd9Qc3G8sq9SIJGoHXzv1dnejxgnza/emnPNMWYxTgHfyDh/ARXqrFBl/drC2r4C88hs9Sbe1RWFj4UO/0tNz4sJCvPeysr10/8RSNwKIFPs4ONC5nOG3fsoUq+Y1txgjAO/gHD+EjvLw+sglf4S38hcfwWaqtPebNm9ewX4/0/nHhwdvEYeSVasXWqjl5OdpRzqAB9H/r1/Gyv4xRgHfwDx7CR3hpWGzwFv7CY/gs1dYePXv2fDDMx7Ozt7P9ey5W5r8qQ7MsNkwXhiV4+mZ0o1XvraTLPD0CYwTgHfyDh/Cx2mIaIvAW/sJj+CzV1h7YuLFDhyZ2iol6RzTknDqyIXg5D4sXpCbE0ZKFC+jihQuy+QxTe8A7+AcPlcU05EujCHyFt/AXHmu62ERbHli8cGF0/4zuC72d7M6q62sj9m1bKw94xoWF0BuvvEwXzp/Xt55hahF4B//gIXyEl6qj8BXewl94LL6uzadHgNi4+3MHD3aK9PcuFHuNk4bz/uOGIYbrcD8femnW88oq/QxT28A7+AcP4aP64AUCX+Et/IXH4uvamN//VhQUFJhFB/nmu1pbHPvNIhtiL4IV+KdOnkTnysv1rWeYWgTewT94CB8NH0JWFtMQ3sJfeCyV1i7nzp1rN2xg/zydg80xw3M2BMuomjdrQgWjR3KxMUYB3sE/eAgfDf2Erzp7m2PwFx5LpbWLaE/jnEGDHvawsz5seM6G4J5GuyYPUd7IHNHoc/rWM0wtAu/gHzyEj4Z+wld4C3/FVxtLpbVNry5d0v1dnQ7oxFCNRqiXVjHrLF7Wyx08iA789CMvIcXUKvAN3sE/eGg4CzI+4au/i9MB+CtV1j6dY2ISYkOC9ofq3PV7DHk4qSxgIPYm/Xtk0I6tW3gJKaZWgW/wDv7BQ/ho6Cd8hbfwV6qsfXp06hST1iH+m5hAv5sWW1Z6N/rvxg087z9Tq8A3eAf/blZs8BXewl+psvZJiYsLiw8N2Rzo6VqJRqjDNFYLweMxvbum0ca1a/heG1OrwDd4B//gIXw09BO+wlv4K1XWPv6urn7ejvbvethanUMj1OBSq7U4Tu6W1JFWFi2j02VlshsY5u4D31YW/VPxDx7CR0M/4Su8hb9SZe0zKDPTJy0x4Z8h3jql2NRbAJjmGc+idWofRfNfe4WnImdqFfgG7+AfPISPhn7CV3gLf6XK2ufx/NEeA3tnvh4d6H+iZrFhaZ748BB64bkZypUhhqkt4Bu8g3/wsGaxwVd4C3+lytonKTjYNsxP95jO3u4bNEKNUmziODkmKICeKXyC9n/P8/4ztQd8g3fwDx6qxaYGvsJb+CtV1j7ZPXtadIyJGu3r4lhs2BjM8YDj5CAPN2We9S9375bdwDB3H/gG7+AfPFTnyFEDX+Et/JUqa58VixZZ5I3OHRkTEvgpGqEO07jEir0JXtrD8qo7//c/2Q0Mc/eBb/AO/sFD9ZK/6id8hbfwV6qsfdatW26SN2pU36hAvy1ohDoXiVpsOgdbGpzVmz7ZsUN2A8PcfeAbvIN/hsWm+glf4S38lSprn+Li4qbjc3OTQn10Hxg2RnmlQQzdSFrHeNq0fr3sBoa5+8A3eKc6qN5fU/2Er/AW/kqVtQ9RccO5L70UHh0UsNywMWrBYRbaQE835fV0hqkt4Bu8M23c4EahGfgJX+Et/JUqax/Rrvv37dvn1zEmYqlaYGrD8DPmVxcno/TvlSv0vcAwtQB8g3dtGt7/GyfxCV/hrfiqtl8arUlVVZVVRIDPXLy2ULNhbRs1UOZTf//dd/S9wDC1AHyDd/CvppPwFL7CW6lw3WHz5s0NPO1snnW3tiA3K/NqDcO7RH4uTvTma6/SBZ74h6kF4Bl8g3fwz7DY4Cc8ha/wVipct4gLDS6M9PO5hqVUHc1ujHB4lwhXhCYV5NOeb3iNbebuA8/gG7yDf+qOH17CT3gKX6W6dQvRvvt7d+2anxgTWSqOk6uwGr9abJg+zEXsTTrHxdArL8yhgwcO6HuEYe4C8AuewTd4p05fBx/hJfyEp/BVfL1una+pZHXv3qdDZPgnXg62VwynSNDvUfQrPGL+vgVzX1M65OrVSuVt2msi+ORw/kpu+FOpeAW/4Bl8g3fqTh/Bn8FPeApfpbp1j2effjqiR1rKW6Ix5diDOFvoG4n5+tBoy5ZNyVXsadARkybkK/P5LV30Fr2zdAkVLVnM4fylwB94BJ/gFfyCZ/AN3sE/fbHpRzb4CU/hq1S37rFv3z7rnKEDc4N17nvRWCfz6nsVBI3FRJlY8THMR0eJ0ZGUEh9LybExHM5fCvyBR/AJXsEv/c7+hnfwED7CS/gJT+GrVLfuIY5/G+QO7OPbISp0aYCHa7mLpWik+oiMDPY0dm1bKU9h464+9jqu1hZKJ3A4fynCH3gEn+AV/IJnht7BQ/gIL+EnPIWvUt26SWysfePsXhnpCZEhm7AelofoiJrHzUrjxe/oHOyF8EQ2h3Mn0Y9m1e/xqp7BP3gIH+El/ISnUtm6zcaNG1tldksZGRcessfP1emS2uiaHWH45xzOneZWbuFneAgf4SX8lKreGxQWPmb3cHbfUdGB/v/1sLW6rDbesDM4nLsZ1Tf4Bw/hI7yUit5b7Nq12SIpLqa3OCF9M9DT9WsfZ4eLmHNdeRBUxNVKnK8hOG/jcO4k0iXVLXgG3+Ad/IOH8FGqeW8SGxvbYEDv3p4ZqZ0LYkL8V/s6O+z1tLMudbU2PyX2PKcR0Tkczh1FdQlewS94Bt/gHfyDh1LJe5/8/Fzb5Nio8OT2Ud0H9+0ztkNE2BQnM5NCB1OTQicL0yc5nDuJ4pHwCV7BL3gG3+CdVLB+UlVV1eKDDz6wtmzT2M6ycWM7Z6s2thzOnQQewSd4Bb+kagzDMAzDMAzDMAzDMAzDMAzDMAzDMAzDMAzDMAzDMAzDMAzDMAzDMAzDMAzDMAzDMAzDMAzDMAzDMAzDMAzDMAzDMAzDMAzDMAzDMAzDMAzDMAzDMAzDMNW4777/B80jV9OnuzPrAAAAAElFTkSuQmCC;" parent="1" vertex="1">
                    <mxGeometry x="670" y="570" width="78.36" height="78" as="geometry"/>
                </mxCell>
                <mxCell id="22" value="&lt;font style=&quot;font-size: 12px;&quot;&gt;DB ヘルスチェック&lt;br&gt;ロジック&lt;/font&gt;" style="text;html=1;strokeColor=none;fillColor=none;align=center;verticalAlign=middle;whiteSpace=wrap;rounded=0;fontSize=14;fontColor=#000000;" parent="1" vertex="1">
                    <mxGeometry x="90" y="483" width="120" height="30" as="geometry"/>
                </mxCell>
                <mxCell id="24" value="&lt;font style=&quot;font-size: 12px;&quot;&gt;Store ヘルスチェック&lt;br&gt;ロジック&lt;/font&gt;" style="text;html=1;strokeColor=none;fillColor=none;align=center;verticalAlign=middle;whiteSpace=wrap;rounded=0;fontSize=14;fontColor=#000000;" parent="1" vertex="1">
                    <mxGeometry x="630" y="480" width="140" height="30" as="geometry"/>
                </mxCell>
                <mxCell id="25" value="&lt;font style=&quot;font-size: 12px;&quot;&gt;ServiceX ヘルスチェック&lt;br&gt;ロジック&lt;/font&gt;" style="text;html=1;strokeColor=none;fillColor=none;align=center;verticalAlign=middle;whiteSpace=wrap;rounded=0;fontSize=14;fontColor=#000000;" parent="1" vertex="1">
                    <mxGeometry x="343" y="485" width="165" height="30" as="geometry"/>
                </mxCell>
                <mxCell id="27" value="" style="endArrow=classic;html=1;fontSize=14;fontColor=#000000;entryX=0.5;entryY=1;entryDx=0;entryDy=0;exitX=0.5;exitY=0;exitDx=0;exitDy=0;dashed=1;strokeColor=#808080;" parent="1" source="8" target="4" edge="1">
                    <mxGeometry width="50" height="50" relative="1" as="geometry">
                        <mxPoint x="150" y="370" as="sourcePoint"/>
                        <mxPoint x="200" y="320" as="targetPoint"/>
                    </mxGeometry>
                </mxCell>
                <mxCell id="29" value="" style="endArrow=classic;html=1;fontSize=14;fontColor=#000000;entryX=0.5;entryY=1;entryDx=0;entryDy=0;exitX=0.5;exitY=0;exitDx=0;exitDy=0;dashed=1;strokeColor=#808080;" parent="1" source="10" target="4" edge="1">
                    <mxGeometry width="50" height="50" relative="1" as="geometry">
                        <mxPoint x="170" y="400" as="sourcePoint"/>
                        <mxPoint x="280" y="320" as="targetPoint"/>
                    </mxGeometry>
                </mxCell>
                <mxCell id="37" value="参照/設定" style="text;html=1;strokeColor=none;fillColor=none;align=center;verticalAlign=middle;whiteSpace=wrap;rounded=0;fontSize=14;fontColor=#000000;" parent="1" vertex="1">
                    <mxGeometry x="90" y="130" width="70" height="30" as="geometry"/>
                </mxCell>
                <mxCell id="54" value="" style="group" vertex="1" connectable="0" parent="1">
                    <mxGeometry x="390.00000000000017" y="70" width="60" height="60" as="geometry"/>
                </mxCell>
                <mxCell id="52" value="" style="shape=image;verticalLabelPosition=bottom;labelBackgroundColor=#ffffff;verticalAlign=top;aspect=fixed;imageAspect=0;image=data:image/png,iVBORw0KGgoAAAANSUhEUgAAANoAAADaCAYAAADAHVzbAAAAAXNSR0IArs4c6QAAAARnQU1BAACxjwv8YQUAAAAJcEhZcwAAFxEAABcRAcom8z8AAGmISURBVHhe7V0FeFRH1y7/V6HQFgtx3bi7uysxAoQIrsHd2RYvUrQUKVJaSksFKtRbaItDkZLiFhyChOA6/3ln76U3m00IZBOSct/nOc/u3r137pkz58ycsTMvyJAhQ4YMGTJkyJAhQ4YMGTJkyJAhQ4YMGTJkyJAhQ4YMGTJkyJAhQ4YMGTJkyJAhQ4aMZwTGWN3t27c3OHEiv/GJEyeI8CklXDvR+NixYw137dpVX6lUvkyP/Z9A/3sSondxou8yZDwfgMIfyc83HTtiRMh45cjM92bN6Ljg3Xc7zp8zs4OUFrw7i1+f886U3OED+iYmhAX5Kho1cjJuVN/JQlfXuULUsKFz/RdecG7bIsXt/OXzrg8fPmwqsCFDxn8TZGAvJYSGusWFBHVJDA+dGebjuTIq0O/X1NioDWlx0RvxqU64nhQZ9nuIl/s3zgqzjxS6Td43b9p4oaV+00UVIbp/kUmThovcrC0Wp8RGLm4eHzc5ISK4a4fsVpHTpk1rLLAmQ8Z/A+T2vdGlbdvIAHeX6e62VgdcFOYPbIz0H5IxMGtDvXLJykCXE92L+x8IhO8VJoWeDv90tVY8CPJyOxMfFvxlRmJ8m06dOhnn5+fDJZUho3aD3LX6PTt2zEmKjFjjYmlxGsZja6TPrMjILHSbMIumjRm1UvxTncTrZCj8fmsyuKchMjL+LltjA+ZkYQq6GujusjMzrdm0qRPHeAqsypBRO/Hjjz/WnzZ+fGh6fOyXvi6OD+1I0WE8MBwof3UT3isasJu1goX5ep1JT4wdFuHnZ0Ts1lFxLUNGLcOYkSPt22dlTg5wdT5ubYiWhQxMamT0nSs/WrYqIqQvNWzxN9xRauHue9hbrw31cs8NDQ19TWBbhozahXYtWyaE+XhvcVaY37No2ogpSPEfGRlX+ia8dTHTaVRlxN1PtfeC+DUyOGeF2VV/N6clbdq0shTYliGj9kCpVNaLDvTvQf2hC3AZeUsmtCy8FRMMAC2LnakRszczZvb41BI5COkhfdMmDZhJ4wbc6ERDE1s1R7rPz8Vp66DePZJOnz5dT2Bfhozagf7du5v4OTuOsTLUu4aBDFHBQWIL4+vsyFJjo1lWeirLbp6mVcrJSOefSD/Y0405mBtz45LywY2NPr0d7Q7mdWg7aNWqFeYC+zJk1A7EhQdYOpoaT1ToN7kuGhpvycjIQJ72NmxI3z7sp+/WsLW//MzW/fqLVun3337ln0h/6cL5rE2rDOZqZfGoNRX5ATmamRyP9POZ1D47w0FgX4aM2gFbvQbmCr2m4xT6TYvFIXYoNfpN+B4TFMA+W/Exqw5cvXKFzZs9i0UH+XMeTMmNBA8guI8WTZscN2n4xtv6r70mG5qM2gWzBq+YmzdtUsrQTJs0ZDZG+iwpKpx99cXngilULW7euMFWfrycNU+M43wYN3qjhKEpdHWOm+k0ftu0cWPZ0GTULui98oK5aaMGpVs0MjRMWieEh1Zbi3bh/Hk2d9YMFhMcWKJFw3fiDxPYxyOD/GTXUUbtQ0qor7mTuek4SwPd4hJ9NOofYfQv0N2FLVkwXzCFqsWJggI2euhg6hfa8v6hueC+cn7ot4+T3fG8zu0nffrhh7Khyahd2Llzp3lKbPQ4GyODYukkNZTb4I363H2cMflt9vDhQ8Ecqg4Fx4+zkYMGMHdb69KGBqN3czk+YnD/SZv/+EM2NBlPDlLiV7p0adHAx8rqDWWvXm+Qzr0o/FXloHeZ53VoN87exKhYHOUTSbd+Xd5PenvsmGoxtHJbNOIt2MOt4M3hw6bs2rDBSWBfhozyMV+prNe9XTuTAd27e6fGRqZ4OFhl2xobZPm5OWS1TIxL6NOpk1tmZrJhv379XhUeqRKQAVkM7Jk3wd60tKHpvfYqHxSZMn5cjTA0f1eno4P79h67/tdfbQX2qwTESp05c+a8lhoZ2cRFoaerW7++notCods6KUkHOxzof3lzam1A/saNjTvktE5Njo6YG+Hr9bubtcU26iPtIoXaSa7aThdL8y1+Lo6/RAcHzspMS0iMjnapLzyqdZDSKAb17lmmoWGY/1kbGicyNlcriz2ZyUk93n//fUOBfa2D2KizYsUKm7xO7VtG+vkMszU2nGjU+I3JjubmE2NCgkZ3yclprxw+3A33CY/IqImYoBxq1SE7s1dEgO+3/i6OV73tbZi9iSFXJAxGgLBNxEVhxrwc7K4Ee7mvigj06Tmsf387IQmtghRGJzs9tT8Z+BVpH62mGRrfSmOou9XdxrJVdlzcGwL7WkXXru2sU6OiWscEB04L8/X60cPe+oCVod5pU51G52yMDc94O9ofCfP2+jPMx2tukLtLbpvM5o7E9kvC4zJqAqhAUFOadMxuPSomOOCAo4XZXa5AwqZJfBdH/bjB0TWQs4XpnUAP15OtmydPWLHiAxshOa2CDL0ltaaFNsSLqNigmmJoVgYqQ1Po62wy122Y4mlgoNW1jitXrvzf9EmT7NPiY9/0dXLcaWNscJ1kf5fKBhtRBR5g6FRWhnr3bY31b7hYWuyNDwuZMmPKW97bt2+Xja2mYNmCBRYdc7NHRwf673W1VvCCE1esow8iFqhIWDFvoduYQfldrS1YgLvTkZgQ3xFWZIVCklqDTr2Xk4iPC9joKeWhphmahV6TjaY6ryeZvfBCXYF1raBfz56u2RnpM4M8XA/ZmRhx70JBshfLBWWFT95XJL6s9HWYLXkhXva2BVGBvrOiQtzthaRkPEsohw5VdM7JGhYd5H8IRoa+EApMVGheiPQb19WNjv8msjM1pD6K+d/BPu5d+3bubCAkXWk8fHjwFQ87m070rkvihLVIGHXEavrqGnXkw/uDBzLip5ShQdmtDHX/crYyy0ry9NRaixbq42wcHxr6ZqiP53m466j8NFV8JYj/r8NdfkcL05P2ZkZvmurqKoQkZTwLrBLdxaCAg84Ks4eWeirjkRYmvkOxuHJpMkLhfirQ+0GertuyUpO7HTlypIHwiqcG6fZLysH9fCL9vedRH+16TeijjRoySPNgCJGdieFRf1fHCckREVqZR0uLjTUIdHPuQ5XfX9gCBNdQWi4gXgEKJL0OQsVEFQC5lzqHya0dZWnYyERIWkZ1YuG0aVad2uSMjAkM2Ist+Sgc6V4r1NIoQCw1otqa7/Uy02nIDBu8xgtcdFlAuA+K4GJl8SAmyH9jz84du/7yyyY94VVPDNLrlye8Ncq7dXryFDLeQ2Ro90Vl4oZN3zGHRn0RNnfmDJUlVDFOnTzJJrw5mvm7OvP8QhZi/sETGcN1bwe7XQmhwSNnTB7vQsb/ipCdJ8aGDRvMenXq1MvP2WEzVX63NXkT4AEtuuEb9bks8FtaJrxiEp5R6DXdq9DVGWlp3NRKeIWM6oByyBDTTtmth8cEBx50tVJodEnQWsDIsPGxRVI865fXnbVKSWLOlubMhApWunodxA2B0vB2sGXx4aGb22S2yPH09Kxwy3b27Nn6A3v1smyVkhJA78lKjAiZFezlftDdzoobsdTQ8G5cS4wIY59/skIwharF5UuX2IdLFrPkqEguL+NGrz/KO3hCH9JFYU6G6Ph3WlzUtLwObXOTIiO9MxITjcjoKjzfuGjRoqYDenbPS4+N2UoV1z31ssF3lA0+Xags/FwcmZuNJecJ5SLeV4r0mh600NUZrjBoZCq8SkZVQjW62Gp0dGDAATIahF17pMQi4bdRw9f5UH5GQhz79KNl7PChQ+yXH35gXdvkwk1iBq/XK6UAICick8L8hq+zw7cBXu7JpKOPndP59NOFjYcPHhCfnZH6TqiXx28uCotD9qbGhdSpv29jrF+q9TSkd6MV7pfXjW3esF5lCVWMu3fvsh3btrE+3brwfCL/Ik8g8IglYTbGBvfIDb/g5WB31MvB9psof+8h/fPyIqmV0hWyWyYWzVzUtHfXTh2pAlznbGF2h49mSmQMQv7RgnmRC9shK5ONGTmM5XVsT31Ha966qZclSBgxfkAt2wFyI0fLbmQVY+Sg3tYdc7NHRAf574eiohDV3UXUlsZkZOjkt0hKYB9/sJSvXAfu3L7Dfvj2G9alTQ5zNDfl6w1xv7ohgMhIi6hF+rR/77xIerTUEPOpQ4dMBvfvHR0bHNg1zNdzSpiP15pAd5dT4MvWyIB4Uw3AqCsO3tfoxTp8x/Ny4q3wgoq36kDx1avsvVkzuVIbkQutzhvkiWswEAdVKIT7zgrzfB8nx6/iQoNnZFL/tV1Oq4DVq1e/LojhERAbMjU+JglzZNSS3TRv2qh03ps05CEVHC1MWfcO7diPa75l/+z5m296HdK3N/O0s2H61HeFIUrLhE/JcILhNt1PxjZSoaNjLbxahjZh0KiRaVxYEBlZAB9dLMtdFFsyuIsfLl5MinxBUDMViq8WUQGvYW1btmAW9DwKVWqsIBgJ0vZ2tCtMi4/5OLd5alJWerpZ5+xsg4Rwf7PWGan+3drmDkhPiP0s0MPlELk+9+Giqp4tyZOU0CfB+3Bvv+5d2b69/whcVR82/vkn60EtCJRd77W6fBlYeTzz/4iodWMxIQFHIgN834/082vTpnWGT0pMjEnfvp0NOuXkWMRFhDQjN3kJucRFQgtUgmB0MG70ldtTS7bmq9Xs9p3bnCdUgFs3bmRD+/Zh7jZWVIavcVmp8yWmS9cPW+rrjJDdSC3DXF/fjDrDo+3Njfc5WZg+tDH6t88jEloPFKQ1uT/NE2LZ8qWljUwE+itL31/ImkWFM0uqOWGcJQtVcCPJYN2sLS8He7j+Sfe+mxwXNTrM22O2h63VL2Tsh50tzYoczEy4K8rdJOJJXTlAuAZ+MRCDe3t26sg2/Pk7u31bpWjViWvFxeyXH38gGcUxvfqq1gO8qfPNfxOJn6gcXCzN6NO40MHcdK+vk8OP0QF+U3JbNB/VKjlxoZ+r8wYrQ91CTRUg0odBw1AQv+TLzz5lRUVXBI5UuHXrFtuyYQMZW28yNkvirW6pChAET4U+H1LLtg9uJHRDUBMZlQFcBAvUXnAZqADVR7DgYqATrf/6q8zB3IS1a92SrfhwGTtz+rRQhJpx7MgRtuDd2Sw+LJi7NDA2FKzUZRELGnE2qNN+keigu61lIW+9iAf8LyqpunKB8B8UGUrTtN4rvF/Wq3NH9vtvv/E+07PC9WvF7PMVH7Oc5ul8cAjuGlo3Ta2INC9wB1GZ8H4stYie9janQrzcD4R4ul+FjB4ZptpzkIFp44YsKTKMLVk4/5Errw60bOizDunTi1FlRmVaj5eLtExA3I0kg4NOcN2Q3chKoY6RUWNjDOtS4R0SBSwtSHxHTYk+GdzJru3asDVfry5VW5aFY0ePsJlTJ7PYEGHXMaUFxRDTFwkFjVFCfHIS/1NTKhCeRzpQWrH/R30WFuLlQf2QXmzT+j9Joaq/JVPHvbt3eN8IgyNkLLySAv8YEYVhYPhfXRZS2YuygFxE2UjvBeF+k8aq/ha5/GzuzOns3LmzAgeacZu3bGRs1LJhNBJeiib3VuJGHoKOWBkZGdPj8mLkJ4Wpnp4FXAMS5D4uWA0FCUXWrf8K1X7W3L9H1KeKGhnw4OEDVnDsGJv9zhQeKAdpQsnUCxW/RbeQ/6f2v/Q+8ITRM+4mUsuXFBnOlEMHs9Wff8YO7NvLXaSagps3b7A9u3ex5R8sYf175rGoIH+eD7TA6CdpcgNFEmUBYwSp34drmBQ3JYNFQKAFc+ewUydPCG8uH7du3eQt29B+fXjZoowhV2n6IFEnyND22RgbKjOaNbMQ1EdGRWD8xhtWlgY6wy31mh541HpICAKGS4FRQ3LluKuBzvTTumOHDu5n0ydP4q0OVmzASDQVrDpBuaBMqHWbvPIif9bJwoxFB/qxNi2as9FDBlNfcSnL372bPSSjrqlAv23Lpo1s8YL5bPjA/jweZLifN++joh8Hw4PXoKnPpIkgOz6i26QRiyPXHJPyFTUyEXfu3KYyRZ+tDy9jpKfJjQShErQzNT6YFh87XKlUypPaj8PatWtf9HW1NadONVoyuIsP1Q2NKzcVOFoNdJrhYmyhAoHL8bSAERzYt4+NGjyI+bu5cFcILhRcFigN3leC6JpqqJpcGipkKCQGOfzdnFnn3Gw2f84stuH338lNOsdbsAcPaq6Ribh//z61cDf5dMPm9evZzCmTWVbzVL6SxMnclMtEdIuRd8hAXSb4z5RcRcjOxsiAKhz/CrmLZQFlupUqAJQxyhpljndpaj0dzIwfUot8qH1261FYmkePy25kWRg1bGBgVJDvHGdLs4NYtwghSg0NtRkKEwty3amzjBEq9HngalQWULT8v//mtW/L5CRuOE1ffUXVwgm1qUiY7EUtb9igPgYEWJuWGWzyuDHs808/4S0Dau87d+4IKdc+3Lt3jx0/epSt/+N39sUnn7Bxo0ayjKR4PnCCvGNgh7cw1JKrZPIal1GTui/xlh2DRZDJB+8vZCeOHxdSfTrA2FDGfDSSyhxlDx2QtmwwPOzEcLNRwE3dS5XdqHkzZ8rnCKiD5FlXOWJEUEazhEWB7i7FzgozjSNYcF/g1kHgg/ugJduo9YGFc2fP8GVRIwYO4GG648NC+GABIlaBAohCvD14TEasbJigHMW+Xb2anTl9Skjhv4cjhw6ylcs/4q5wLrnECJMX5uvFgjzduDyCPFxZpL8v749mpaewEYMGkExWscuXLgopVA4oY5Q1yhxlDwOHLkh1A60aRqQxshsbFHAQS/RGjBgg99lEkBz/N2f6FN+0hNilfm5OxY7mJqX8cNFdRG2Kkaih/fqq3MUqGr27fv06n4PbtWMH+5QUbPrbE9n4N0fzRbnjyLBmTZ3Cvv7yC7Y3P59duniRByf9LwOu9fVr19h5coV37fiLrf5sJXt3+jvs7bFvcXlMGvMmm0fu8nfffE1ewW52/vw5rcsEZY0yR9ljUhu6IHUj8an6zk/HeYAdHVQRKmU3UkBGsxirVqlJUwM9XM/DyNCSoXYSjQxGh6FyuGoQMPz1zRsq1yd7EsCQjhw6xFdx7Cfa988/fFoAy5meV1wtKuKjtQf37+PyQP/25IkCdqOKKxyUOcpeXEECnYBuSCtmGB8+0bJFBwXsww6P6ZPGPL+bR0ludc6e3VU/PSE2N8DNeR+MTNPKCgy3w1XAyNPgPr2qxF2UUXuAsscACXQBOsHdSLUpGXyHG4m51ejggAOdcrJ6KPv0aahUKv9PUL/nBySzl6ij7ZEeH/Oug5nRTQx6qBsZaiesWkDthVoMo2HPYtmSjJoF6AB0QWzZoCNiSyYSvCKcsIq4MFGBfp91bpMdM23atCoNL1gjgdh+Iwf3y4wN9v+Nmv6HqIFEIYnuIgY+vHC0EdVemMCsLndRRs2Hyo1ULdfyFLbYlOVGksd0KjUuenyMn19jQf2eH3SMiWmcGBU2wMfZId+aDA0r5kUBoTaCkDDCxCejyVWQWzIZ6oBOQDcG9urBN5HyeU2JV6Rq1fR4ZR3m4/l113atn781kf4uLrr+bi7jXCwVJ3ktJAgIwkHNhDmbDlmt2I/ffSv3yWSUCSwIwG4ErHNFn0zaX8MnuiRYUODr5LBp5ttvh9Mj1RYSvkagWUSEXmxw0FQfR4fzqHUwECIaGoSFGqpb+7Zs25bNKonKkFEGrl27xr7/9huWEB7CmtZ7uUR/DcaGVSs+Tg47Plm2rMWThGX4T2BAt2662c3TJoT5ep/CFnqxj8YF0xSr3puyyAA/vpzpQjXuQpZR+4AoYrt37GDN42NZ41f+V2Kdqmho/i5OO1d+sjyTbn9NUMHnAxOHDm3UpkWLfqHeXn9Ti/YQLVkJ4ZDhiavf35s1g50+9d9deSGjcig4dpTNnTGdr+DBvsQSI5CkS6jEqUX766PFi9Ppdq0GiK3xUCqVdbu2bRsW7Om20s7YsMRokcrYVCHR0F/DKZXz58zm6++eBzygGvravQfs/K177MzNu+zczXvlEu7BvXjm3oOqjxFZU4DdGliJMm3ieBZLOoINqWjNUFGLeoQ+Gna/e9har5v81lv+9Nhzd1pNne0//9wgNiRgsKetdZGDqTHvn2EJjdTYsBIcRoiV4NPfnsQOHzzIHty/r5J0LQdM4i4Zxq37D9mN+w/Y5bv32Ykbd9m+q7fYnxeusVUnrrKVx6+wzwuKyiXcg3vXX7jO9ly5xQ4V32YXbt9jNynN25T+PTLc/5r5YeHz9q1b2LAB/ViAmwvXlxItGdcfHW5k1N+/6+vitBQxTgTde/7QtV276MTI8F/crBU3sf1COswPEkchLZo24ZGjsLB1119/CeKuvYARHLt+h20g41h1oogtPXKJzTlwkU3de4GNzz/HRu46w/pvP836bDvF+tJneYR7cO/IXWfZ2D3n2KT882zW/kK27Ohl9t3pYrbl4g3+Lrzzv4L1f6xj/Xt0J5fQni8wxgAadEV9Hg0DbaHeHgfbtGg+sEuLFpWOQF1rsWDBAuMenTt2ign2/4OMDaeMPBqBFEns0GJtm5uVgo0cNJDt/Gs71WrPLu7GkwIe3SVqZY5cu8P+unST/XCmmC0m4xr79znWY+splrW+gKX9foylrjtKdIyl0/fmT0h4Bs+Kz+duKGD9/zrNJpLh4V14J94NHsBLbfQy+YbQzZt4TExsskW8GHQxpO6iqDMYZKPWrDg5JnLe9MmT/deuXft89c+kINn9b+7cubpD+/TpnRoTvdXezPiOygUoLTi0bKaNGjB3a0s2rH8/tnvXTvbgQc12IxFWH32nQ9dus29PXWXTqMWC8nfdfJK133iCG0Pmn8dZxh8ljQa/WzwhqaeBa60pbbwD78I78W7wAF7AE3gDj7UB2EC7eeN6HucES68ebb7VYGQgJ4X5rVAvj19aJsU1g5FREvIq/u9XfW/eMSenvZeD7WrqwF6BG6DesoHQZ9N/rR4Ptjmsf1+2Y/tWVSnUQJy7dY/6TTfYR+TCwSUctOM0a0NKn0ItTtJvR1ny2qO85YFBtPrjODc4bVJLShPGh3fgXXgn3g0ewAt4Am/gEbzWZNy4fp3HguyUm8WDHWHDKbwcdSOD3ljoNsbG3UIfR7uVSRGhqbmpqU0ENZMBtMjLey3Cz6uZj6PDp84K84uY0YfwpMLEdwgTa9sQd3/EwP7cjXyW4dukuH3/ITt78x7bffkmH6hQ7j7HWxQoO5Qeyt+KjEAkTQYiEv7H/RWhiqQlEu4XDRC8gUfwCp7BO/JQk4C9bWt/+omHx+O7OcjIoAOiToh6gYoZAVo97G0u+Ls4fhTm4RHLXnhBbsU0oUVo6GtDB/aNaZkUv9Tbwa4IIQVEQUoFCzcS5EZu5MhBA9ihAweEYnl2uEOdnl2krIsPX2LDd53hrloOKTLcOPS/REMr1xAkxvO0hDTE9DS9C/eAF/AE3sAjeAXP4H0n9eOQl5qCHdu38aCzPIz76/V4uUt1AcQ9IL0mLNDdtbBtZuby3h06RCYlae+st/8ksEzmnYkTo1omJX4Y6OZc6IRd1yRMTcbW5JWXWIS/D/tw8aKnDgKjDWBU7/vTxWzKP+dZZ1JaKDHcNShyWQoPwn9wHdG6YCCkGT2TQC4ePlvSf3DzOm46wamDGonXcQ/ulT6LtB65pcK7NBH+A4/gFTyD98mUB+QFeXqWwIqPi4WFbNF7c7FWkW+HURmUmodDfXoMfPg42Z9u1Sxp0ZypU3FewvM78PEkgLHNnfVOREp0xCJXS8VZWyP9B+qT2hA6XAknhRnr2jaXbdpQPSezSFF87wHLL7rJllBL0GvrKa68LajFAIkti7pyo0WBcsMQ8IlrbclYOm8+wfK2nuTD9UN2nOFD9TP2FbL3DlzkNFeNxOu4B/fiGTyLNJAW0kTa0nfh3VJeQOARvIp84xrygjwhb8jjswAWk2/843ce3RmeDVozafnzyWhDPWZtoHeXPJujGUkJc8cqR4TQo7K7+CQggdVLi4lxdbNSjHZRmB9yJP8bxiat0URjQ0zGVZ+t5AVUXSi8dY8PmY/bc5aP6kGJy2tFuEITiS0YKGv9cW4caEU+PHqZpwfX7cDV2+zotTt8AvvUYwj34F48g2eRBtJCmkgb7xDfJ/JWFn8ib8gL8oS8Ib0Lz2Cw5OrVIt6aIcoxyhxRj8Vyx29EvsIQP9YxpsdGDhvSr5/riRMbn7/NndqCh5WVZUxw4HgPe+v96PCqd4QRgsyB/Pd5s2dVedwKAMucoNiYaB668wzv7ySR6yW2BpoUWHTPMMcFt284PTd93wX2gTCpvJ0MpOD6XXbtbuVbD6SBtJAm0sY78C68E+8GD49za5EX5Al5Qx6/pLwiz9W5xAsx+hGMx9pIjy+tkpY7DM3e1PCmn7NjfsukhJELZk2RI15VFiTzOu+9955DuJ/Pu+RC8APupIaGAxpsjA14pKqqDvuGETksc1pEblVvai1ENxCf6kqLa1BUtBJoVdBC9Nl2ms3cX8h+O3uNHSdjuIH1idQXqQr9RZpIG+/Au/BOvLvf9tOcl9bEE3jTNEiDvEjzBlcSeUbeq2tUEgeVICAtYkWqD4DA0HCYfHJMxISRg/s6Cqoio7IguddJT4zvGebtecXVyrxEp1j/dTI06gyPGjKYxyBEJ7oqgNp804UbfMCj25aTpKAql6wlKSomhtUVFQqMeSv8HkatAp+zOn+dr8y4erf6J9rxTrx768Ub7ONjV3hLBd7AI3hVryiQJ+QNeURekWfkHTKojpYNOzYQO7Phi3VKjzRS2TtZmu3p3rEdVuQ/f0F3qhJZzZt3iwrwu4KVIVg98q+hvcp30SJu/P69e6skBDdaBSgoljOhJRCVT6qYImH0DtRmwwk2aMcZNudAIfuZWpPT1JeqKThLfa6fzxZz3sAjeBX51pQnsVJB3iEDyAIyqUqgReuY3Zo1eun/NBqai5XFrreGD06kW+XBD22hqKioUXpc3BgPW+s79iZGj4wMxF1H3qIN4jEYtW1oqL23FN5g4/aoJp8zflf1YdRbANXInWp0D8Puk/IvsF/JwM7dustX0VePw1VxgCfwBh7BK3gG73zARK0SQV6RZ+QdMoAsIJOqbNnKdR3Jo3G1URzp061z7wsXLhgIaiKjMkCYsGF9+wZH+vmsoL7YQ6nAQdi+jn7blAnj2JUrl7XqOqI/sqnwOimiyshQ46v3Z0RFRI2PgYY+20+Ra3aZ/X35Fit6Bi7ikwI8glfwDN7TKA/Ii3pFAkLeIQPIYiLJZNOF61XWZzt75gzr1aUTj+2vvqYRhuakML+cFh+zdNjAvoGCqsioDHJzc5u0Sk4a5O/qvBchDtRHn+A6ImLWB+8voOLRXqFjr1h+0S3eL8kiJYP7VGrQgNfyKpcrd8NxNnznWfbVySJ29ubTuYlYSnbp0iV2/NgxHnJ8986dfN/V+t/X8fPf/lj7Gyd8xzX8h3twL57Bs0+7HA08g/cRu87yvCBPyJt66wYZiG4zZAMZQVbaBqJEI9y4t4MdL2esbZQamr2p8b0Ad5d/4iOCO9HtsvtYWTSLibGKDvJf7u1oe0dqaBA2hn2tDfVZ88Q49tP3a1QlpCVg4AAjbd02n2TpVMurD9+L7hQUD8uYxpM7tZncKb4iXkijIkALfP/+fb4KYtuWLfyQDbTO2G/VpW0uy0xNZtQ3ZcEebizUx5MTvuMa/sM9uBfP4FmkgbSQ5pO07rgTvMMlRF6QJ+RNk5uMa2j5MEACGUFW2gbWOOKMg+zmabxrgKjE0grWjvrlrlaKu2HentMXLpyhJ6iLjKcBVohkpabGeznYbHOywAEYKiFD2BgQweJiP1dnNl45iseC1xYQGgDzZL22nSKlKt1vgeKp+jPHWd6WU2zO/kI+QIDd0k8CHGuEVemIeTF66GAeNg1HJOG0FhzogUWyyKdO3ZdYg/+9wAcGQPiOa/gP9+BePINnkQbSQppI+0mPToIriLwgT8gb8oi8So2Nt+SCXCAjyAoy02a7hooC4SvGjhrJV4bovPrSI0MDWRPhepi3x0+jhg+OX/3++6+rtEbGE2P21Kk2zWNjxzlamJ5GCyYVNFozrH9LT4hlP//wPQ87pg1gwvfHM8V8SB5rCNFfERVMNDIon6hkS49cZvuLbrP7FWw9sOXj+LGj7E9yAWdMfptlpjRT7a+i/GAjI7YC4TuMCIQWnE9nCJ/q38X78AyeVW2GbMTTRNp4B96Fd+LdFQHygjwhb8gjhvk1tWyQDWQEWUFmxVruk96/d4998uEyfiAiugjSHfiiPgR7eRxv3zpzytgRI57fUAWVReuUlNSIAJ+1DmbGt6FMj4RMrRqUCZ99u3dhJwoKtDIIAqcv/8otPqqGGlucsJUql6omp5Zs60keguAYuU0V7aNcvnyZ/fbTj0w5dAhLiY1iXg62/OA+dPb5gYfkHnFDod+ikalXMFISDY4bGj2DZ5EG0kKaSBvvwLvwTrwbPFQEyBPyhjz2oLwiz8i7VBaQDWSE65AZJrSfzHF+PLCGtX3rVjjVk5c58ivmHeXv42R/NzY08LfmcXHugtrIeBKQjF+MCvQd6uNsfwlCFgUMglLhM9Tbk707fVqFa+rH4eSNu3yrSLuNJzQuq4LLhEGCnPUF3LU6WFyxKMo4JxpHDr07fTqfhPV2tOc1NIauxXgXYt60RUgTaeMdeBfeiXeDB/ACnioC5PHdA4U8z8i7+uAIZARZQWbor0GG2sSZU6fYezNn8j4pKhFUIMif2IVwsjBlnvbWR5Miw7N+/vnn5zcuyNOA5Ftn3szJlmE+noudFeY8lJgoWBBcRnSQ8zq2Z3+sW1vpsOGog9E3+f70Vb7cCMqD2lrqKoluJBRu/J7zfODjce4iWlkMTHz/zdesd9cuzM/Z8ZGr96jFkuQLhN9ibc1DpeN3GVTi/zLSwjuk7wQP4AU8gbfHeQLIIwL8IM/Iu+guinKBjMRBE8gOMoQstdWu3b1zhx/X1bZVC2qpsR/t38XFnCiP9mZGlxPCw2aPGz7cTVAhGRXBqiVLGg7q2yuXDG0jDIorlER5mtR9kddkOHMaB+NV1m28SYqx6zKG8i9w5dHcLzvGUuk6FueKo4uPA/pFSxbMYznN05iLpQV37eDWiW5vCYWR5I//J/4vfi+LhHsePSdJSyRcxzvxbvAAXsATeAOPj8N1yivyjLxDBnxwSCIfkCgzyBCyhEy1hcLCC/zIXgyGYfJamk9UHrYmhncjfH025qSlZQoqJKMieHvcOI/m8fHLfJwcCiFU0bUSv5vqNORnKWMQRBvAiBlcRmx8xByRel9EnFPChO43p4oqNLq4e9cONmXCWJYUGcZ5x34qKLuoIDw/+v+2RtjAiP1VHrZWzMfZ4Zanvc0xTzvr7b7ODuuCPd2+D/f1Wk0VzxcgfMc1/Id7cC+ewbNIA2mJLRzeIX0neAAv+A7ewCN4fRyQZ+QdMhDnDqUygsywcgQyhCwhU23h7r27bNmi93kwXWyVwqCPmB/kEZWxm7XlpbiQoNkrli79bx8UT/Ko0yUpqV5kpHeT2OBgA3dbW0OTJk0eka2JiWGAu7thZnKyYY8OHQx79Ohh2Dk72yAuLqipg4NxY2dT00bednZNxowZ6dgqpdkQXyfH/eibicLEJ2ov9DtIwdiowYPYvn/yVSVRCWAcY/eVm3yiFsqj7jLie9q6o6wj9UGWH7vMzt4qvw+CCeO9+XvYyMEDedxBS72mvF+hyU0UNy+Sojy0MtS94WBucjHcz+tA88S4b9MS4t7OSk3uNqBXXsbHixdHbNu0yXfv7t0eIHzHNfyHe3AvnsGzSANpIU2kLZWf+J1XVujrEG/gEbyC58dNdiPvkAFkkfb70VJyguwgQ8gSMtXWPDaW1e3cvp1HP3O1suBdB/U84dPfzXln13Y5A5XDBjiFhnrqQKccjI0bQ8c6d842GEQ616FDpmFyVJShVD/xPSLCVy8xKKhR29DQmrs7m2RRZynVJFRDtgrxdp0S4u3xubut1SoLPZ1VVLtyon7WqgA351VpsdGr2mW2WNUxO2tV69Rmn0QH+s11UpiOtzE2VHra2UwO9vJc6efstNfBxPg2FFEUJghuA4ScHB3JPv/kE3algiNo5QEBaRCcpuuWkyyZDKqE8qB1I8VBuAAEJsVSpcfpDoIFYd0lhqQRSAYBPlFBSPOhUgzVpCtOzvFzcTocFej3CXXoR2anJWd0zskJ6NOtg+1kpVL/8uXLDShZhEt7FM4a33EN/+Ee3Itn8CzSQFpIE2nbGhnw90kVE8QrLeINPIJX8AzeywPyDhlAFm03Yt1n6flFyBCyhEwhW20B0zcY6sdkvW69Vx55OaI88dvO1PCmr5P9P5EBPp8GerhOo7y/aWtiNCbS329uTvP0zzrnZq/Kap66KjYkcJWbtYLrpblOI/6dvISlYX5eo6MCfBOUAwfqC6KuUajXIikuqFl05DgqsJ/IwC75OtvzmgdrEGEsIDsTA+btYMsoI2QoEYwMjsWGBMBNum1nYnjWylCvwMnC7CL6D45miBNScjc1vsPQ4Pr07NyRH1Re2fDg6NptuHCDR4JCR7+5Wt8D7lAKKc6gv87wxbdFd8p/38mCAu6K+TjaM6MGr2vsi/GWjQg7DqhiORnq7fUjVRwjB/fvHb1z404jQaZPDaSBtJAm0vZ1dDiJ/qzq3aUNHjyCV/AM3k8UHBNyoxmQAWQxeMcZLhupmw3ZQYaQJWQK2Vay+1wC2zZvYtnpqY9aZPUKjLvfpHNYkkd0xdpA74SNof4p6oLcSggLYenxMSwxPISFeLrxCg6T3ujf4rs3tewedtYFpKNfhPn5DG8WF+enVCprRoAfPz+/Vy31moQRo4vJR77oaG5yB2cH2xrrc5cInVfR0OBbw5e2NzHkcyIgzPPgmhgPBM+oniu5uROETjwUNNzPhy14dw67roUJakxOf0SuEFqsUqsfiEQlwnaSczfvltuaYQQPgwvo90CB0VKoVxQg5I2M7I6LtSI/PiT4nUG9e0dOnTpVZ+XKlS8LYq00kBbSRNotmyW+E+Thkm9vZnJHyoeUL5FX8L54/ns8L2UBMoAsMOQP2UBG6nKDLCFTyFYbu8ZFnCg4zmZMeZtFkA7A0PiqfrW84FPUI/E61zvSNdJP0jsj7klwPaP/QPgu6qGDqdFt0uVCPzfXRbGhgWH9+vV7tuERKN9127VqFeCoMFlENcc5nApjY6QK6c1rbYkARMJ11EJilFnUpriG/5DhskbPcI9uvZeZs8KMhwTP371bJflKABOyOBBi6t7zfMQMa/fUlQU7o7Hq4dezxeVuCYEL+/033/B1eeAXnXX12ha/0aJ42FsXxwT5fxfu79MhKyPDmR7XmoGpA2n369HDOTUupkNsaNB3VGMXgwdNvIkDDORa8byU55ZDFpAJZAMZqVdS4g4AyBbzcNpadHzr1k22a8dfbEDP7uQhGfEKQlMgVXEgSPwN/YGuiTqH/Er/x3eus0QwOBy6QnTO08FmUfd27QLo1c+u3zZm5Ej79PjYKa5W5udEAxEZ1xbBFcCQtP7r9fhwfl6HduxPzJvdqfwi1svkAq05fZVH7VWNmJU0tGZrj7H2mwr49hFs2ixvZgjzPH26duHD5hjRA99iHngh0m8UoKe9TXGz6IivBvbo0Zweq7bCw7vwTnLvvwIP4AU8lVBG+g3ecawx8oI8lQXIAjKBbCAjyEpqaJAlZArZfnPqKpe1toCy/2bVl7xSc6AWCjxr6gdXhiAXGJ2Lldk56Dh0XRBl9SMlJjIr1MczH62Meg0CUrVeVHugBhFqESmhYDVdU7+OmhaLR3t06sA2/PE7u3nzpiDyygErzhGHHi6OOEEtNTTsLcNpLdsulj8xffnSJTZ3+nTm6+zIR0RRY6q7M8iTp4PtVeqQfztqyJDmy5Ytqy+IsdqAd75F7wYP4AU8lSgz+g7eVaO6jjxPyFtZgEwgG8gIspIamjiBDdki9Li2V/dfOH+Orfx4OcvJSEfsEK4nOOxC1BlNuiVSCR0T9FL0qkqUGV2DbkPHoeuCGKsXlNeGUUF+Y12szO/C3+U1gFBo8HPBJGoacbU5p5f/jzWp+xJr+urLfLNm03qvCJ9SeoWPKOH+hi/V4b4zBk6wTg/7r3CaiLaw/fJNftwRYmaUUJI/sfKBWrONJ/jxRwjnVhZu3LjO1v78E+vQOpMKTdX6SgtMHHzwtLMpQkumHDY4nRUVNRLEWO3Au8EDeAFPUh5FQh6QF+QJeUMeywJkAxnxcHuC3EQ5QqaQLYIBQdbaxvlzZ/nZ1aOHDmKJEWGkd035cjOuX490rDRBv6BnuBd61vjl/zEDyjN0VhwbEPWZjwqTjkPXixir9nKrs2zZQit/N+f3eOEIBiYSaggYSJCHK0uNi2ZpcTGcUmKiWHxYMF+zFunvyyMM41NKuBbu580/m0VF8NHF5UsXs6OHD6uGCLUEnBX2w5mrrMvmk3ydntTQMGqG/gVWQSByVFE5nXkc66ocNoSP2CHfvDUT5ICCQuE7mhnfRv+ob17XjE8//fSZxx0ED+AFPIE36dYjkNiHQZ6QN+SxLEA2kBFkBZlBdlJDg2wRzBWyrorz2e4/uM8O7NvLliyYz3p07MANjuuQr3cp3RIJAym4BwseVHoZyQLcnLnO4hw+UQ6cBLlA15cvXmxN4qvWDab/F+rv5WRnarSIK5OEMfxGB9XT1pq9PW4M2/P3LvbPnj2ccIDgzz98xz5b8TH75MMP2Yply/inlHDtoyWL2VdffsH+2rqVHTl8iLsv2liZLwL98uPXb7PFRy7ymjhZrX/BB0aI3tl3gYdpK68fj/4iVsZjbg8KKiosPkHoVwa4O+enxEV0nD9pUo1Z8ApewBN4A48ivyLvcKmQJ+QNeSwLKlne5bKCzEBSQ4Ns220s4LKGzLU0JlICOLoLo6SIF/PH2rXs0+UfsY+WLimlWyIt/2Ap17N1v/zM9XLHtq1szMjhfEWOccM3HskBBN3Gb+h6pJ+fM4muWiNu/U+3fn0XamoXEzMPMW/xqIDg9xJhzgJGpQ4YTHHxVVZ05Qof1cKnlHANW9hvV3KRcHnAEkWctDn277MsF3NnpByioeETtXLWnwU88CiOvC0L4lAztqHADVH38zFP5u1oX5jRLPGdvt3bKwTZ1RiAJ/AGHsWTe0RCXpAn5A15LG/zKGQEWUFm0nlIfKLSyll/nI3dc5ZtLLzOZV/VwNrXSxcvldItkVBxq4+orvn6KxYfGsLQokF/RWMTdPshdN2oXj1XElu1noH9PwtdXWdiYBGYEA0NhYNaHfMVGBFCbIuaiDv3H7LVJ4v4HisoBBbIirUwOvD4RKBTRPktbxDkOyqczJRknl8MIIiFg0+4Ia6W5nfDvL1+HNS/fyRVMK8IsqsxAE/gLczX60dXKwvVaauSPCBPyBvy+O1Xq4VclwZkBFlBZlIZqr6rDC9vy0m+Cxuyr4lADBboLPILHRYrTdHQiBbZ6Oq6kNhqjqFhIjq3RfMaa2i3xBqYWjO+hEhQCrEGxuEQk/+5wI+hLU8t5s2a+ejkSbFgQMJczH1/V8cDydHhIzFxLMitxgG8pUZHjvR3czpAPD8A72I+eHlS3pBH7JIoC5ARZAWZYVkWZCjKFASPAQa38NDFGnuONnQVOgvdrTWGJrZo6379RchGzcKF2/f4SBnvvBOJCgHlwDB1500n+CERZY02opG7SO6tcuhgUsRGzLCB2kgjuR6W+rq3IwN9PxvSt2cEyasmR2iqk9elfVCQl/ty6vjfUvH+b16QN+Rx5OBBPM9lNfCQFWTWZbMqtr/U0CBnHCWFqZTzJPuaCOhqrWvRarKhQU+wUgHRdqEQ6oYGhYCbU178C0yYItJUt3ZtuHuFuIPIv0iQh725yaXE6MhRmzdvNhZkVmOxcOGnjQM93AZQuRXihBZpXpA35BGRtpDnshYKQFaQGdxxyFC9RcMwP2QO2ZfnJTwryIamZaA/gbgWY/8+V8rQMMma8NsRftTRzss3y+yfXbl8iYd1Q8Qpvt6OFBH5R78GhNGrcD+fA5lpyRl0+0uCzGo0kmIiUsP8PPd72lk/ygfyhLwhjwjnhzwj75oAWUFmfbef4jKUTv7DPceSLDGmSHn93mcF2dC0DOyKxkETI3ed5bEapcuuoByojXGg3+HislcyFBw/ymMoIrwb8ivGL0H+0cfxdXG82Twpdk3nnExfQV41Ht3aZvuBZ18Xh5swMlHRkDfkMczHi+cZeS8LkBkOzoAM1Q0NsobMIfuK7EyvbsiGpmWI8RqxWkHspEMZ4OrwZUP0idMzEf2pLGCDZL+87jyWojidgfzzVoAIgWJSY6Mn9W7XDhOctQK9u7azTo2PngTekQexRRPzh7PCkWfkvSxAZuPyz3EZQpai+wgZQ9aQuRj/saZBNjQtAxsRPz1+hQ9FSw0NigFqs7GAH1V74nrZy65279zBurTJ5fmEEoqFAsIEp5PCfFNccGBbZf/+NXa0UR3gFTyDd+kCBOQNebQzNeZ5Rt7LAmSG89cgQ1GeUkODzCF7bW4G1RZkQ9MyzlFtip2/WAirydBwogrOhcaRtWUB8e4RiltcmCrW/iAoqbuN5c8dMzPivv7665qxabACwILj9lmt4sG7+kofsVVDnpH3sgCZQXY4VVSToUHmkD3KoKZBNjQt43GGBiV5nKFhcXNkoB8PyS0WCEh0HYM8XL97f9688Jo4SV0WwOuShQvDwLvUdRTLFXlFnpH3sgCZzSPZobKSDU07+E8b2tzHGBpWEQR5uvH495oMLdzf5+utW7dis2C1FkplAF7Xr13rRob2uZgfkZBH5BV5Rt7LwhlyCRceUkUSgyxF2eITAyK9yXX8hFxH3FfTIBualqENQ8MqApzogi0WmgwtxNvjsyP796NQahX27tpl4+fqtELMj0jII/KKPJe32gd9L8Tqxwkzmgwtb6vqnILy+r/PCrKhaRlVaWgiQVmhtIKsag1QOaCS0OQ6VsbQ8B27rXEdLV55I7rPCrKhaRlV6TqKBPcLbhjdWqtcR7i7cHs1GVplXEfR0HpQi7bs6GWtx+bXBmRD0zIqYmjaGAzBwEJtGwzBAI48GKLZ0BS6Td43rl/fiUQlG1pF8DhD09bwPobKn0VckKcFpiIwJVHVw/tf1FJDo/wvFAytejd+1lZDkyesNUOesNZsaIIsHnrYWn3SOikpaObMmdXqpdRaQ6u2JVjx0ZOwrEmQV40Hloth2Zi8BKukoWHtKgL2xAYH/DTxrdEtDh48+IYgsmpBrTW06llU7MAXFWOhriCvGg8sgFYtKnaUFxVLDA3dA+w8T4mJXD935vQORUUF1RoJ6/9ee+EFeyqEBbXN0MRtMtiyga0bqGmlhqaNbTLYaoItJ9h6IsirRoOy9BK29GBrD7b4iPlAnrS1TQZbkrA1qbZtkxENLS0ueuO82TM7nTiR31gQW9UjNDT0RUdzc1cbI/0ltc3QUMTixk9sRpQaGlwd1MaV3fiJzZMkg0Jsply4cGH1FcxTAptTsUkVm1XFshRJWxs/YWi1ceOnaGipsVEb3ps1o2O1Glp+/trXRg0Z0IzciTU84KRQ+9UGQwOwnR7b6qEQ2GYvNTQohFZCGejp3EJ4gLwuuUEkshodygDhFhB2AeEXOO+SvGgjlAEMDXJG+AiEkaiJqJGGdurU3iaL5s3tkh4fuxlMiIUjGpoYnKe8OZdnCQSIQaAYsZMuNTQohNaC87g5HUDgm5oenAcBhBBIqCqC8+CzBf1GICQEREJgpJqI9b//znJbZpQKziMaGlzHBXNmda52Q8NL0+NjNmkyNLFFK28VwbMEQp5h9AsuIpRBHHlUfVd9Yii60uHmrCzuIpRbjQ835+31I0LjgWdpHpAn5E0b4ebgUiLEX20LN/dMW7Tt27c3mDB6dKuYoIBf4TqKtSAKhw916zVlcaHBPBosgqEWFxeza8XX+MEEiAy7fctm9te2rWzH9m2lCNcxKfr3rp3s5IkCVXWpZWDQC8E8EdQTAVTVa2A5gKqq0tRGAFV4DDyA6t9nedDaqh5wPH3qJD+1dBvpmCb9AkHHQIcO7Gfnz51jZ06dYssWv8/iQoJ43qHDjyockgN0HLo+dvSI1tB9QXxVj7Vr19Z9a9Cg8CB3ly95wQhMccboO3x6N3I3cPTPR0sXs89WrGBffPIJW7JwPhs3eiQb0rcXGzagHxs+sH8pwvWh/Xrz/s/cmdPZrz/9yAqOHSNDLRZEWXnIIcH/WyHBEfn66KFDbO0vP3F3fsSgAWww6Zgm/QIN7d+X6xmmKxCzH4daYmALc4U43EOUAyfhO3R91KD+kdB9QYRVD6VS+X9ff77cjjr7C6WDISKhNrSi5tbL3pYfWIFDLaIC/fhcDI4D8rS34TVlWST+H+jhypIiw7nhwU27eLHsUyifFPIhF9V9yEVxlQRPvXDhPPtm9ZdscJ9e/FzzQDfnEjpUHuFgC+hkiLcHP4rXygCHaJbUZeg25ANd/3LFCnvoviDG6gH5929EBwcOc7NWXBaPbSrZsjXhh13wI3KEY3R067/Cj3IybPAaH83C8UClCNfpfxw8iGdBOGwuu3kq+/iDpezsmdOCiCsP+dim6jm2CTL+i2StTdy8cYPt2b2LzZs9i2WlpzJnhTnXLyx+xhFMXMdEnVInQf+4jtEzevXrMhxkWKolI4Juu1opLkPXcTC/IMbqRUZCQlyEr9cPTuYmt3k/TcooEa6hM4naEYQCRWv3JITnYLA4ZC41Npp9uGQRGdsZflhGZfGsDiLEYYD/9YMIW5EsIdNcku2Uf3AQoXYPLfl75w42duQIFurtySsF8A16Gh0DlZADygzXiJwtTG9HB/r9AF0XxFj9GNa7t15CWFieg6nxXktiSt3QtEVYmYCWEILEeVafrVjOLhZeEET+9Hh2R+tG/ueP1sWQPmTab/sp9nnBFVaoxfmz4qIiNn/WLBbs4c4Pi0crBd1QN5anJaTDiXSaWrO97bJb5kHXBVE+G2Q0a2blYWM1llq1QxgataUCFJmE4cG/RT+O9+WETIh9GV4DCQpZ4h56FrWMmHGR4EbiervWLanj+7Mg9qfHMzss3s66GP0jHOCOg9zp8f/cYfFY2wiZTvrnPMu/cktr82fFV6+yH9d8y7LSUvjyMHg7Cn3NBoaV99Ap1WoXUe9KHhYv6p2ol9BHexNDqjDN6dNor5PCfNTkyWMtBXE+O6xcufJ/2RnJDiFe7mPcba0P2JsZXyPG76LGxICIeuYxJ4HzqOk+TrbGhg9wv0Kv6R2FflPqmKuexX24HwIQn4WAUIOhxp005k1+1lVlXchr1Jn/iGpluI/qyoLvqJXxfc6BQnbuJlq1soHD8JYsmMeSIsM431wJJPzju/jb3szkTpCHS37LZonvDOrfOxITx/Pnz9da+HCkhTSRNt6Bd+Gd6nyIv0Vewfvi+e/xvJQFyACyeJdkAtlARqXkRrKETD86epkVlzOY9KT4Z8/frE+3LlwH4OlAJ8R8cBLyRXr0wNJA9w7p1W0LPR2uV6R3DzEhjQYBOijqGAjfbag/Rp933WwsrwV6uh0IdHMZqt+woRm9tmas7CFG/i+jWYxVYmRYtr+b8zRfJ/vf/Jwdj1JtcMZCV6fAXLcJJzKgAi9724KYIP+C9PiYk+kJsadiggP+cbexWkuC+NbaQP8rF2uLtdQ/OEs1L3e11I865a4CdWTbtMxgm/78g924XnZHvSKAnW64cIMpd59jOTiUUE1poEQp646yQX+hVbvGisjdLA8nC6hPMmEsH7EzaoC+ZWmXBi0KPjGs7uvocDLM1/vH5NjIkV07tg1btWpVQ0GsTw2kgbSQJtLGO/Au6btFAm/gEbyCZ/B+ouCYkBvNgAwgi8E7znDZiJWRaGSQIWQJmUK2lasKS+LnH75nUQG+DGdQq/et8J17Qno69yi/e5wtTddQq/aVaaOGq6gRWJcYGXq4eWL86dS46ILYkKACD9JF6KWZTuMC0sEzEf6+R6OD/H9LjAid1jojLTslNtRcEGnNAsmhTm5uK/tkMriEsJARXg524xS6OkrqrHKyMzVWRvj5KDtkZSoH9+391vD+fd/q0i67f6ivV461gUGag4lhcpCXa05McOD4cF/vda42iqu2xvolFIMrBdW+EX7ebNbUKapJ7UoCGxGx67rrlpMsmRSnRO1MHXqxdp6Uf579ffnWYxUHE6ajhgxi/q7OnFeMaKm7alAKkK0RRrUsmJ+r45FgT48Pgzzd+2PVf/d2OQE9OnWy6d+li87ZXbvqU7Kl3Etcw3+4B/fiGTyLNJAW0kTaeIf4PikP4Am8gUfwCp7Be3lA3iEDyALLrSAbyEhqaJAhZAmZamuTJzyXC+fPs7kzpsP1Zk3qvlgiP1RR8wUCjuYmhfT/Kh8Hu36B7o7plrq6yXr1Xk4M9/fJ7dO187DhA/uPHdy7p7JTTo4yjHQRemncuKEy2MNjXNtWGSN6de2UPX3SGHt6ZU1en6pq3XJycupnJSY28nNwaGzaoEEjkZxNTRslJgY1Gjq0e6O5cyc2mjZtWuMhQ4Y0iI6Orm9sbPxqqJlZXXzPiIlp3D4zIy3C3+dPNxvFQ6w0EYWKGgsuA2rozrnZbOvmTbwgKgN0vXZfuclG7DrLJ1wx+ljC2IjSSHk6bjzBlpObefZW2cP9wN27d/kGyZGDBzIfJ3uqYVUDOppqYHxyt8VI/6GlQdPrVBldCPP13J+RFL8mPT52EnY9d85qFY8YJOvWrXNfv369JQjfcQ3/4R7ci2fwLNJAWkhTkwuO76IcwRt4BK/gGbyXB+QdMoAs0n5Xq5SIIDvIELKETLU1QX3v3j2+eAFlji4HvBoxT/i0MdRnzgqzh2Henl8P6NszIjQ0tGGGn9+rZqRTpJZ1c0ivpiuVDaFzcydOJB0c2igxKOiRbsb4+TXu3r17oylTpqBSq965smeJb1eu1G+RnDTBy9H2OFdQuAQSJTFq8BqfaPzsk4/Z3TK2bjwJsOt38WFVBKcMtGISdwgE5UHt3Wf7KfbNqSLq3D9eg3bv2sFdMfR7wLs4cioqPM8PddKRJ9UAkDAySTW2r4vDbex2RmgBxPEI8nBdE+Tp9gUZxXIQvuMa/sM9uJc/I7rclBbS5GmrDRaAB/CC7+ANPILXxwF5Rt4hA8hCugoEBJll/H6cyxCy1OZOalQAs9+ZRpWCAy9/qYdAfXtsTbrvZqU4GuPvP4Rur77VG7UdmPPp1b1zDHVKv3cwM+IjRxAoFywpD5/Ipppt7KgR/DT+Bw8q1+G+SUqEjYtYgQ6lwYiZVIlQW2OBbCpdH7HzDNtSeINdr8DCveNHj/DBhWxMqlIHHiNlmDDV1HcTiRsH/pP+X4Hfj54Tr0kI1/FOvBs8gBfwBN7A4+OAvCLPyDtkIC4WlsqIy4wqKcgQsoRMtYEHD+6z0ydPsv553Yn3Bnyer0TeyPCsDXWv+7s4rkyJiooUVEhGRUDyrbN27VqdpPCQ2X7ODljGxGsyUbnQosEvb5mSxL789BO+UqAygErcJsX4/vRV1mvrqUcT2FJlaikoEzr64/ecZ5tJ8R63Wxh9C4zgff/N16x31y7Mz9mR18Yi8dZazTi4wahfx/dyfmt8RrgutgAigQfwAp7A2+NGbpHHLRdv8Dwj75ABZCHKRXQZITPIDjKELLVjZoxduXKZrflqNctIjOerPjAgJs0jyM7E6FxyTNTQ7774osafsFoj0TIlIS/cz/MY9cnuSQ1NVFIsBB0zYhgrvFD5CWwAwT3h9rSjPkjS2qNceUSF4kpFv+EyQeHm7C/kO4YrAiyK3rxhA3t3+nTWISsTq/qZ/uuv8hXyqKF53tSUp7KENJE23oF34Z14N3gALxVdqI08YigfeUbepYMfIMgIsoLMFpHstB0gdf++vWzkwAHcbYSRie63WKl42FhSN8J9X7vWLZvR7bXihNUah/atWwRFBvotszM1uiJObotChsAxLN0xqzWfX6ms+wg8oHoYE6yIKYI+B+bWpEuzQLgO5crbepItPaIKcY3J74rg8uXL7Dfq1CuHDuEr47G4FfM6GJjACge01HDtsOGyrBZPStIWC8/wSVxKA2khTaSNd+BdeCfeDR4qAuQJeUMesZ8MeVbvu0I2kBGui0fnQobaxC8/fs+aRUVQHlX5FCsl/kn5J5fxRnp8zGed2mQ6Cmoj40mBUaLowMCutsaGh0u4TkQwNL3X6rKkiDC2auWn5a7LexJgEhvxL7DqQXQXpcql6q+p+my9tqkObthfdPuxbqQIzP0dP3aU/bn2NzZj8tssM6WZaqc25QeGghUa+M6VSlCsconu4YZGz+BZbqj0HWkibbwD78I7KzrviLwgT8gb8thSqFw09csgI8iqvDgrT4tr14rZIupHetjZMN36dUtUOqrvOhju35oWG921X79+1bcp87+I1NhY/wA3l9/hJqJfJgobymXc6HU+rzKgZ95j54CeBBgx+/JEEVcyGBTv/JOiSY0NNTmUDzHl4VphgS36Jk8C7LX7dtWX5M69w0YNHsiDlCLiFELZuVoreH4RIKfJK/9jDV+sww+bAOE7ruE/3IN78QyeRRpIC2kibbzjSYA8IC/IE/KGPJZaNUPXVC27qrKBrCAzbbZl9+7eZbuoTAf16clsTQz5KnvRyEDIt42RAXO3tVnaKTPTUalUviiojIynQe8uXUyz01Lmhnh5XIZwRRdSdJvgt2OoH+HQtLGqXwRW96PP0W3zSb52DwonKppobLgG9ylnAwZIzvEBEsQtfBIuwPP9+/f5wAQiTSEfUyeOZ/3yuvEVMKnk9kX4+bAQL3d+ogsI33EN/+Ee3Itn8CzSQFpI80nkgTvBO0YXkRfkSRzkUG/JcA1rQ3FCDGQEWWkbWNe4eP48FhcWzI0KLbVoZCh7LKnCVp/Y4MBRlM9aE369xmL96tWv9+vetU2oj9d6EjIOHHgkcBCG+tEXwaqByo4+SoE+Sn7RLTbln/Msi5QL82vq/TVes1Ntj0GC3A3H2fCdZ9lXJ7Ei4ukGBDBfdIlcYLRCmEDG1vstGzfwXc6Ia4Fjk0D4jmv4D/fgXjyDZx836VwWwDN4x2Qz8iLOHaoPfkAGkAW+QzaQUUX7qE8CrAQZPqAfX/GBHd+oVHmZo4KlytbZ0vxWXGjQlq5tslsLqiKjMiCZvzhy0CDrUA/3mY4WJvcgeKmvjs17mKSd+OZodk5Le9VEwI3aVHidTco/x/dWQfnUjQ2EGh/9FezLwoQuto9gqVKRlvssVQHwCF7BM3hHS4W8qLdiIORdVakUsIkkk00Xrj+xu1xRnDl9mnVt14bpvvrKo50FoqGhsnWxsjjTpmXzyTOmjMfhEzK0hSh/3z6B7q53sH4PtZtobBi6hqFhrd6hAwe0MvooBbaEwJ3CqBoUDKsfNLlTqPnRZ0F/BqfSTMq/wBffnrt1l92ughq/sgBP4A08glfwrOp3lm7FRDcZeYcMIAvIpLytQ5UFDK1TThZr/PL/Ss+dUdk7WZj8k9epTUu6VV4Jok2kxsd0jgkOvI3hagyESA0NrRwCr+zfu1frhgbwlREXb7AJe86z1qR0qPFF90mdUOOjVWiz4QRf4Y5BhV/OFpNS15zgoeAFPIE38AhewTN415Qn5BV5Rt4hA8iiIitjKgMYWsfs1mRo/1eWoe3q36NTrKAeMrQBxGto3iz+zWAvt7uuluYlWjQM8SMM91vDh/J+ijZdRylQe2+6cIP3SzAIICofhr6hgFLFRAuAUTnEzMBvHP7w8bErbCspKAYOrj4DlxLvxLvBA3gBT+ANPIJX9RYaeULexEoFeUbeIYOqbMlEwNCwiLjJKy+VMjTuOlqaH+7aLqdnQUH1Hjzxn8XmzZvfGDNyaHJscMDX9qZGD6Tnd4HQR0OL9s6kCeXuCtYG0B/BpCxG2nrz+SXV0Dc+1RVVNWigcsVarz/OA9jg6CKcIYbIUQjTdoNahXtUMVSF3iJNpI134F14J94NHsALeAJv4FG934m8SPOGpVXIM/JeVX0ydZw7e5b17tqZGTdUTeA/6pfTJwZDqI92pXlC7GcDe3WPqfboVP81zJ4woUluRnqryADvVdQ3O0st2cNHo09EED6iGSFc2NKFC/h2iqoGavOj1DIg2jFaBSiqpuVaUqWFwibTPRgswYmYCM82fd8FHngUUX63X7rJCsgYMFleWSANpIU0kTbegXfhnXg3eAAv4Em9chAJeUGekDfkEfNkyHN1tGQiMEUxZuRwxO3gHgy6C6KhodztTAzveznYnAn2dFsW5OYW1aKaj739zwBbZdq0bNkmyNP1O1tj/Rvqw/oQPpYZQejJ0RHsh2+/FYqoelBI/RzEKxy356wq3BopJ9wsPpigQXlxDYT/cR8I8TZwTNRkcslwSATS20kGcuDqba7YCOeGI2tBp2/e5RspQfguXsc9uBfP4FmkgbSQJtLGO8T3ibyVxZ/IG/KCPCFvSO/CM+hfXr9+na38eDlLi4/lZYw9aNLyBwkGV+htZ/tJSnREsylTlLqC+sioCL7/4gsD5YABvRNCQ9bbmhhe17QyHTUchO/jaMdXQuzZvVsooupDMblle67c5AuR4V5hmwhaAz4qCVJTZpDokkGh8YlrOFgDwVzzKI2+207zVgSnZ8LVw7nQOIR94aFLfN0hCN9xDf/hHtyLZ/As0kBaSBNpS9+Fd0t5AXHDE3jmrTIR8oI8IW/I47MABrUwuDV66BAe21OPugjqOoDfqHCdLEyvxocE/dm9Q4duzyz+Ym3DkN69TTNTmvWKDw3a4mlnfV8UplTA+C0uoG3RLIH9sOZbHqznWeHY9Tvse3LTMFiAjY8YvXucewaStiKp647yo6QSflN9Yg0hQijA3cPQO9LFgAQI33EN/+Ee3Ct9FmlJWzBN7wbhP/AIXsEz0kVLiLwgT88at27dYl9/+QXfoArvRdNOB/xG9DVvqnATIsI29enaueuWtWv1BXWSoQ6S64u5LVqYJkWG9gtwdd5qa2xwV91dFAULgWNQJCY4kL07Yzo7e/aMqmSeIe5Q/2XXZVXrNnzXGdaVlBbLmLC6AkqvadBBqvCc6H/cUxkSW9KyDAz3gBfOExF4BK/gGbzD/UReagqOHD7EB7qig/wfLbx+1F+T6AQqZE97m4eJ4SHbWqeldLIiBRFUS4YUwwb2dkkKC5vg42i7h4zsDsKKq9deMDxxZXt0oB+bP2c2O3P6VJXMnT0NMCKHPtRuMjgEp0EkKEzwSg3tkVFJlF8T4X+pAaF1kpL0v4qkJRLuFw0NvIFH8AqewXt1jSpWFAhVgW1QE5SjWLCnG5W9qqItoReC14MQ3k4Ks7uOFiabnRTmvQcNGmQoqJcMYGjv3p6tUpq9E+DidBzrFsUaSipMXOPbSMiFwELT92bN5Ecn1VRgUnj9hRt8YAKBRDGsDsXGqB9G9OCuPXLvSPk1GUhlCEaFtPEOvAvvxLvBA3gBT+ANPNakyXRNQDiDXTv+YlMnjOdeDCpaGBs+seD4kcGRjuAa1ka6Wlv8lRQdPrJ7DTwyq9qBrQ1z5rzjmNs8bXaYj9d50cikBsZrKy7Y1/nv6KAA9u7M6ezcubNCMdRcwANDANH8opvsC2o1EIcehz5gsAI7kuG2wSjQwqCvJBJ+S1svkcQWTNN/0jRgXPiEscGw8C68E+8GD+AFPIG3GuQllgssRDh65DCbOWUyiw0JJD3BYYllhPIjHXJWmOFEohMtkpN6dOnSpR6pW80OIVeV6NWrq0O7zJaTycgK/g3yWbqzyzc0Nn6DH/+0YO4cdurkSUH8tQNY3Y4h8sPFd/gxtBgyX3zkEhv79zm+5wtHz8I40OKAREOREvpTMCZOav+B8AyWUWGlBwZEYHwYgcS6RLwL78S7wQN4qYoV99WBE8ePsdnvTCFd8OdGhoBD6t4P5toQExTGFh7g/W3L9MQEwdieL5C86uTn5zdum9WiS7iP10FnCzPe3KsLTGVgDbjAyLVk7783l4zshEritRg4KwyjejgFExPfGLKfdaCQByYdS4YxctdZ3vpgHgxuHk5s6SkM24PwHdfwH+7BvXgGRjWR0nhn7wV+TjcmmnG6Kd5VFeeTPSscOrifzZs9k+uEnYkRD59n2qRBCTcSIfcwYOblYHsuPiRw1qAePZ6//hrJ6uUPFy8ITo2L/sDB1Oi2ONsvCgnfRT/cxUrBV3F/u3oVn8T8rwDtCVoVxEvE8bQXbt/jh25gmdN6boBX2crjV7ibh8EK9KfmHbzECd9xDf/hHtyLZ/As0jhPaWHpFdLGO2pn21U2Hj4keZ0/z1atXMnatmrB7IwNucejrkMwNBeFOSJ//dqva1dXevT5ch8RobhHpw7dIvx9t0MYFtSaiQJCrYSRRRiZo7kJ65SbxX5Y8w0rKnp282TVCSxzwk5nhAY4c/MuO3fzHidEl8IKEBC+i9dxD+7FM9W5RKom4PLFi+zbr1axbm1z+QkwcCOlXQ/oFubYnC3Nd2QkJCRW69G4NQFxcXFNQ30933K3tS7gzb1QE6EWgqDw6Wlvw7q1b8vWfP0VtWTXBNHKkFESN2/eZL/8+ANrmZz4KHqYtGWDsVkZ6e30dnbIUvbq9Yaggs8HFAqFrrWx/iQrQ70zojDwCSODC4DaCXuRcBYWVgfIkFEejhw+zOOmUDeE65A4EsmNjOuW7k4HU+PsOB+f58vQ9OrX1zVu/Poks6aN1AytMTN4ox4LcHVik8eOqXWjizKqH+fPnWOfLv+IRzKGdwRDk7qP8JbsTQx3x4aH5n44c+bzZWhOFhZ6DhYmU2xNDM9bSlxHCAgh1LCLemCvHmzDH7+z27flFk2GZiBC9ccfLGUZSfFYxc9HqEsYGZG1oS6OxtrWPisriR55vob406KjdaOD/CZ5OdqexdFC/65pVPXRQF4OdmxYv75s66aNZGzaPWxcRu1HYeEF9uGSRaxFs0SNRsZHHakSx/ysp63NN+kxMXb02PO1QXTSkCEN2rVu2TXEx2MbjuCVLh6GcDDiiFggOIZoaN8+bMuGDeyObGwyBGB9K1oyGBn0BYcpYqSaD6wJesT7aWRsXvY2p6MC/CfgPDRB/Z4fsO3bX1IOGuQR7uf9ro2R/k2xjyYlCEr/tVd5aGsY2+b16+WW7bnHQ1Z0+TJb/sESlp4Qx8+dhpGpu4v4DU/J2cL0TlSg32ed22THTJs27VVB/Z4vzJ8/v16Qu3uOi6XFPjT9Yj9NSmjZsOfM3daSDe7Ti23ZuFFu2Z5jXLpYyL74dAXLbp7GQwyKLZlUZ/gUEVXSCJMeExxwoEvbrB5KpbLhcx1XJDIoyCYmJHCys6XFMXHuQ9q6wRWA742462jZhvTtzY8cul3FQ/7YdoMoTLt27OBRgX/54QdOOKz8j3W/sb35+Txk9fOGSxcv8p3s639fx3776Scuk19//JFHTf571052vgoXeqPM1/78E2uX2bKEkZVyF+nTjYwsOihgX6c2OSNxJrWgbs8v8vPzX54w4S1vbwe7yea6jQ+QsZWKcgUDhACxns3NxpIN7deXh8KuCjcSBysg+tKGP/9gi+a9x4YN6MeX+LRMTmKtiNAnaJ/Vip80uvqLz9j+f/7hQWRu3LhRZWHuniVQ4SBvyOOe3bvYpx99yEYPGcw652ax1mkpXC6Zqcn83LWRgwawZYvfZzv/2sZP9rmvxUBJKGuUOboQaKnQpVAf+FBV1DpYF/sgJijgIPGkXLVihQk9/vyu2peCFPSVIBcXGwvdxsMVek0OWen/W0NJCTUYlti421pTy9aHj0beuaNdY/tr61Y2QTmalCiVRfr7MG8ne+ZoYcpPM4F7i7B2TgpT5u/mzBLCQ/mk+njlKPbVF5/zY5H+S0BEsQP79/G8oWLJbZHOYoMDmJ+LEz+aF1uaRLk4Kcz4ofPYK5aTkcamTZzADVMbQBmjrFHmOL4JHo70wAsQjA7uoqol8z9E5TJCOXSovA9NE6xMmloqdHVGKfSa7oXw4BKou5HY9IlzshBebii5kZvW/8lu3bopFMnT42pRET/1v19ed+Zlb8tD2OHwDBg33gkXRST8Rr9Rp+5L/KhXHBuVlZ7KJo55k63+bCWveU+eKBBSrl2AcZ04fpzkup59/MEH7M3hQ3neoMBNX32ZNaU8G5cjEz1qaSA3XycHavkGsb+2bWX37z99ywZ3EWWMskaZo+zxrtLuog42esLI9nbOzR41b+ZMS0GtZGhAHUvDRiYKfRibziES4sOy3EicaOlObiT6bNyNrESfDaev/LhmDT+0z5JaU6Rf4jBAqi1F1wSE3/weKnCQOMKFZWNhPp7UymWy92bNYDvIhcJC6Jo+Ugr3EOsFz545zTZtWM/PVUM/KNDNhUefQt6QRy4Tyu8jmYhyoU9RJpAZWhzcCxdvWP++bPfOHU/lRqJMVS0ZGRmVNcoc78A7pfoAInfxIbW2h9pntx4lu4sVhKVxUytLA53hlnpND2ga9kdthpYGrQlGI4f06cW2btz41McVoWPfrV1b3sHGec8wHmlhlke4D4Wvqs3r8k9HCxO+QbVtywzeIuAw+5occgHxOD54fyEbPqA/y23ZnEUF+HG3EPLFIBTyhDxqyr8mgkzQ6qFP7UmuHowNBwo+Cbi7KPTJUMbgBWUubclg3CDuLgb6H+yU3Xq4Uqm0EtRIRkVgqqdnQS3baCq0fY8KUU35UXsiHLgH9dlQIBgdfJKtNFisvHXzJr4YFa0Ramv4+VIjw/cStbeEpLxI7wVfiDcJVwvG2yIpgU0dP5bzhz1UNQFw504UFPAwfcphQ1hcSBBvuWAcMBLkoaw8qkiUh0rZRflI78N1DFrgpNaRgwayndu3U2X4+BB26ApsppZ1aD/qk1HZoozBjzofkC1azeggv32dcrKUCxYssBDUR8YToI4h3EjeZ9M5DOHy1k2tMNH6QDFQq2FLzXfffMWuXi0SiqxsYIRwy6YNrE+3LnzaALu71QtTJN5XNNB9SPRA+CzRd5SSqGDgS+zfWZNCYF8dRi2XL13Czp4+LXDxbICTQPf9k8+mT57EEsND+UAG8sRl2UgV5x55KJm3f+XO8y+VCRko/13i/n/LB26kOxnbsP79+BQANm2WBbjZvCUjI0OfDK0p0kBa0nTBH5ZWUZ/scEdyF1csXiy7i5WBQkfH2tpEf4SDmcl+jPiJtacodBQwRqCwXAv9iXatW7IVHy7jc2DlYdOGDbwlw3QB9/3VanB8tzbQ44UZ4OZ8PjLAd12Yt8eqAHfntZ72NucRegE1Ku+fqLWCUgK/UBacO42+C47CXbbofXbm1KlnsusZMxA4Q27iW29Svlx43tHygje0TprygLzxvpGuDt+Ggv6Sj5P92UA3519JLl9G+vts9na0K3IwNebloS4LGBpaNkSURiz9I4cPCtyUxJ3bd3hLhq6ABxkZBqTU3UWR8A5yb/fHhQWNeHvMGGtBXWRUBu7u9mY+Lk6jvR3t96HTa02CV69xoexQaLQezRNiqeVYzFd2qwMdf+xdwllqGLaHEpg3Le2WwICczE3vhHh6HMhMTZ43pE+fNsP79Ilvn9kiJzrYf1agh+tGqnGPOJobF1ElwOMJorWVupjqaaKfgdo5JSaKrVi2lF2u4pNvNAEV0LxZM1mwpzs3MPXWQsqvWKGhQkGL7GaluEKVzP5AN9dfEiNC3umY1Spr3FujYvvlde2aGBG22M3K8gDd/4BXhpI08R2GCs8j0MOFzZk+jQ+8SIGBD6xn5aOLZMjoG2rqF1oZ8M+HCr2m+8jwR+s3bGgmqIkMbQARjLPTU0dgZMnFykJVw6opCFw/1IBo+VokxbMPF5c2tqOHD7EZk9/mB63jXlVNXtooYDT+rs67e3RoN+TdGTNcVq1a0nD79u31sJQnJyPDQjlkSETblhl940IDVoZ4uh8hnu6pntXcKmArkMgfFA5zUls3bRK4qj788O03LJUMHfLDnKQmZRYJckBrQhXSvRBvj2MZifEfZ6WndGyZlOTRIinJdNKkSQ1Onz5db/bs2U0G9O7tFODmNtzGUP+wpZ7m9OCWQq5RQf48uvT58+c4TwiQuo1kwQc+yI3HNilN5SK6pnSduhI6IxQGdU0F9ZChTSx+b4Z157atR1Dndz/6ZCgIqaJAKaDMUGTUfBiE+Ji3HJd4gaLzP/udqVj/xp9Fba7eMqJ1w3+uVoojKdGR47777rsy52P++mu9YefcrKikiNBuId5e7/i5Ov3g42hbgBrZiVoA8CNNX/zd8MU6PEzDrKlT+JxVdQD9MrirE99U8glmuGXSfIO4G6zbmIdpI5f6ga+zwwF/V6fVoT5e05Jjo3sM69cvvKCo7EP/urRubRfq4THN3UpxCu+AYUiNxYK+o/8HuVMLyKNMr1+3jv303Ro+hO9FMoGLCYMs4S7Sc2I61JLtV+jrjESXQnitjKrAqlUrTDpktVRGBwYcdFaYP+AFqGYs+I2WA4WNlg3LhjC8jMjGCLyJe9RXFqAgQXYmBhjpOhMfHjK9d+fO3sJrH4s5c+bo9+3aNSU9PnpKkIfbb562Nsepz3gdI3nq74EiOZgZ81YNoRqqA9evXePvateqBecBrZmULyg2Tk0l17vYxdriUKi3x5pWKYlvDurdO3LTpk16lMRjBxronpfeGjDAt1l42EIfR/srjpRHTQMkqAztqK+HKZDuHdrx1TWY9Ifrr16WuB9pgD8rfb1DZGRKhUEjuSWrDpDbZoo5k5jgwIM4pK4sNxJkT4WNwxHSqd8W6u3J+xvipKv0fvTxMLIW7OFWSMr40bC+fQOpNXtFeGWFsH79+te7t89SRAV4eyVHhncI9/P6ljr13NikCoR3431Bnm7sg/cXVMsaSWz3n/3ONL6sDK0W+qYiP5AdjxSlML8R6uP5eWZqak5SRIRH7y5dTIm3J9paguV0U5TKiNZpKUt9nRyuoLIT3yG+D7KADGA8KD8s54InAXdRvEcktLJIg/rmpxwtzN6UjayasXDaNCuszI4JDNgLNxKFou5GonDhpmAeBhPRcEtgfPweiWuCgketSf2swtSY6GWzp06NJt2sVFiyhw/P1h/ct0fbuNCgP3AqjtTQwBdqb0wKz5o2pVoM7SS5zZg8x9FGXNFFOYCIH1Lmy34ujt/lZrVqAWMRsvFUoNfVG//WqMhIf78PHc1NzuB94sCKVAYoL7TuMDBeBmplgk+44OTCno8NDXw3LsjHQXiFjOoEltpgDgUrtTEaiU44ClBae4oFCgPDp/p/IBgZPX8pws/345yMNBiZVvYtXb582axlctIYGyODYnVFw5pA8DRl/LhqMTT0T0cNGcQX5aobGvJvZ2qYH+Tp3qtNmzZGAvuVAjZZNosOj/Cyt1tuZ2x4CyPF4iS3+F5812SEIsG99nN1vpaWELt02rRJfpQN+ejcZwWs0O6ckzUMK7axSgAumVgbPo54IVNhu1qa3wnx8vg+NTo6Pi8v7zUh6UqDFOP/gj1cs630dS9C0aTv1iVDQ00+edzYZ2poGDQCb1aGultcbcxSQ0NDtRZgFLHus9JTWpGLv87JwuwO3MPHlY1Y+aEl83d1uto8KX7J2BEjgirbysrQAhbNnavAEhzqXO+DscEFQeslGpJ6QXJFo/8x90Wd8IfRgf7rWiQk5FTFIQhk+M3pnRcw0CDl41m0aKOHDmae9rYaDc1Cr8lGw4avNiOWtbrd/6fVqw3zOnfuEOHv+7O7jeI6JrX5+0j+4OGRp0E8qcqrCfWjDRi5sQXUr/5AOWJIiJCUjGcN0qM6K0Q3MjjggJOF6R0oEQYh+KiXaGz0CSMURwLdbCxvJoSHbunRsV2nmVUQ7w98BXm5t6d3XhQmWh9RTTM0hb7OZmtj3TQXPb36AvtaAb26zvLlyxsN7N0jKzk64htqUS9Tf/AWlcF9jPBioAPznjZG+g/p2j1bE8MbLpYWe+MjQqbMmTLBV27JaiAmKIdaUcvWA8FY/F2dTyM2JFotjLLxuRiqOeH3Y0Ag0MPlUGSg34Kc9PTmH86bZyAkoVWQkum0z249lBSpqCb00TQZGjc2Intz452xwb7tlMr+OgL7WsX27Wt1enZqFxEdGjAoxMt9aUSAz9akyPCTKbFRhfFhQSdDvD32UHn8QsY4NzLQp01m8+aOxPaLwuMyahqOHTvWsFfnDjFpsdETQ308v/Z1dtjgYmXxl4O58Q43a8vtfq5Of4YHeH/WMjlhZI8uHbyEx6oEpCiKQb17TrA3NSpWTR/UTENDJYClVd3a5g5atWqFucB+lWDzwc1vdO/cOaBLh7bd+uXljRvUt+c0MsBxWRkpA/r16Ja1atVKN2L3+Q2iU5uwZMmSujk5abrtWre2nj19SljfvLyMjMS4zJGDB6RPnTQ2oFVKinmXLq111q5dW6U1JhmQxYAe3ceXZWiYeqjOwRBNhsb7rMRbgJvzseEDB4zftG5dlQeyWbly5ctYyjZFqdSdMWO8nnLAAN1+HTs2XjlnzmvEqjyyWFtBilz/YWHh6/RZrXH9rly5Yt6mZcY46oeUGt7HlnysXpk05q1qMzRNo46ioQV7uBW8NWLY5J1btjgK7MuQUTtALat5qJ/POCtDveJHAzKCcmMJlGrCemq1GZpy6BAeD0WTofm5OB0f2LvnpF+++06eFJZRuxDq62puZ2w0TqHftFicR4Nio2+G71jrt2LZB4IpVC1Onzwp7EFzJh6a8GVoKsNXzVu52Vgdz0xNnjReqZQNTUbtgt4rL5ibNmlUytAwUY1h7bT4GB7KrTpw8cIFHqcyMTKUG9e/6wpVLa2tidFxH2fHSXFBQbKhyahdMGvwirl50yalDA2DIFjcnBQVXm2GhiCoKz9ezponxnE++N4wbmiYS9NlCl2d4xa6Om+bNm4sG5qM2gVbvQYaDU10HbGr4LMVHwumULUounKFzZs9i7+TG7tkpbxoaGY6jWVDk1H7EBceYGlvajzRQrdxsRUpt2hoGIwAYfMnou9i4+PaX35m6379pUrot59/4qevIFYjon2hj/bvdAPxRTzZGhse94PrGBEhG5qM2oX+3bubBLg6j7E11r+hvtYRhoZPX2dHlhobzaMB44SUqqBWKc34hldnhRk3MBj7v7yodi+4WFsczEhKGKRUDqnSCWsZMrQOpVJZLyUmqq+Po911KDkUXFRy3rKR0sPg4LphxzE2qWLIX2uE9IgQHx/vM9MpueEV1/Bu7IT2drLf2ik3K2n+1/Ofr6NnZfw30Dk7MzkywHePq7XinrhK/d/WBMrehCs/+m1VSaVbMqFVpWtUCVwNdHNZ0rlNGzlevYzaiV7t2ztQqzbNy8H2OB8QUVN2KD9v3Ujpq5LUjQx8oDWzNTa472FvvS7E061NixYttLYXT4aMasWAnJz6A/LyQppFhX/p5+L4ELsJeMumrvjVSNjNgBbO1cqChfp4nk5PjB0W4eeHndVypF8ZtRdYa9mzS8ecpMiINS6WFqexHw7BcDAIwVscUnoYH++zaSDxP7iZeAYt45MSnoNxWxvqMnvqszmYGRcFe3nszmnRfNbUiWM8BVZlyKjdmKlUvtGlbdvIAHeX6e62VgdcFOYPsNkRLQwMryIEV4/uxzMghNoTvz+WyMgQJ/+hvanRA3cbqzMR/j5ftGuZ0Wnu3Lm2OHVVYFOGjNoPxthLCaGhbnEhQV0Sw0Nnhvl4rowK9Ps1NTZqQ1pc9EZ8aqL0+Bj+X7if93fOCrOPyHAWKXSbvI/PxxHdt8i8ScNFjhami6MD/RbHBQVODnR16toqJSXyu08/bSqwJkPGfw9kcC/+888/ZsoRQ8LGjh7Reu7MdzotmDOr83uzZnTURO/PmcP/GzVkSEpcaKCftVFTVwvdhs42uroujyO6z0X3pRdckiMj3X9ctcqN3FhdgQ0ZMp4PkMHV3b59e4MTJ/IbnzhxggifpWnv3r1N8Eku3mtKpfLlFi+8gM2R2IWMzwoRvYsTfZchQ4YMGTJkyJAhQ4YMGTJkyJAhQ4YMGTJkyJAhQ4YMGTJkyJAhQ4YMGTJkyJAhQ4YMGdWLF174f28tqpKus3G5AAAAAElFTkSuQmCC;" vertex="1" parent="54">
                    <mxGeometry width="60" height="60" as="geometry"/>
                </mxCell>
                <mxCell id="53" value="API" style="text;html=1;strokeColor=none;fillColor=#FFFFFF;align=center;verticalAlign=middle;whiteSpace=wrap;rounded=0;fontFamily=Noto Sans JP;fontSource=https%3A%2F%2Ffonts.googleapis.com%2Fcss%3Ffamily%3DNoto%2BSans%2BJP;fontSize=14;fontColor=#000000;gradientColor=none;fontStyle=1" vertex="1" parent="54">
                    <mxGeometry x="14.959999999999809" y="15" width="30.09" height="30" as="geometry"/>
                </mxCell>
                <mxCell id="57" value="ヘルスチェックAPI" style="text;html=1;strokeColor=none;fillColor=none;align=center;verticalAlign=middle;whiteSpace=wrap;rounded=0;fontSize=14;fontColor=#000000;" vertex="1" parent="1">
                    <mxGeometry x="337.5" y="120" width="165" height="30" as="geometry"/>
                </mxCell>
                <mxCell id="60" style="edgeStyle=orthogonalEdgeStyle;curved=1;html=1;exitX=1;exitY=0.5;exitDx=0;exitDy=0;entryX=0;entryY=0.25;entryDx=0;entryDy=0;strokeColor=#FF8000;" edge="1" parent="1" source="52" target="17">
                    <mxGeometry relative="1" as="geometry"/>
                </mxCell>
                <mxCell id="61" style="edgeStyle=orthogonalEdgeStyle;curved=1;html=1;exitX=0;exitY=0.5;exitDx=0;exitDy=0;strokeColor=#FF8000;" edge="1" parent="1" source="52" target="16">
                    <mxGeometry relative="1" as="geometry"/>
                </mxCell>
                <mxCell id="65" value="&lt;font color=&quot;#000000&quot;&gt;依存/呼び出し&lt;/font&gt;" style="text;html=1;strokeColor=none;fillColor=none;align=center;verticalAlign=middle;whiteSpace=wrap;rounded=0;" vertex="1" parent="1">
                    <mxGeometry x="-20" y="530" width="90" height="30" as="geometry"/>
                </mxCell>
                <mxCell id="66" value="&lt;font color=&quot;#000000&quot;&gt;正常性確認&lt;/font&gt;" style="text;html=1;strokeColor=none;fillColor=none;align=center;verticalAlign=middle;whiteSpace=wrap;rounded=0;" vertex="1" parent="1">
                    <mxGeometry x="180" y="530" width="90" height="30" as="geometry"/>
                </mxCell>
                <mxCell id="67" value="&lt;font color=&quot;#000000&quot;&gt;依存/呼び出し&lt;/font&gt;" style="text;html=1;strokeColor=none;fillColor=none;align=center;verticalAlign=middle;whiteSpace=wrap;rounded=0;" vertex="1" parent="1">
                    <mxGeometry x="270" y="530" width="90" height="30" as="geometry"/>
                </mxCell>
                <mxCell id="68" value="&lt;font color=&quot;#000000&quot;&gt;正常性確認&lt;/font&gt;" style="text;html=1;strokeColor=none;fillColor=none;align=center;verticalAlign=middle;whiteSpace=wrap;rounded=0;" vertex="1" parent="1">
                    <mxGeometry x="475" y="530" width="90" height="30" as="geometry"/>
                </mxCell>
                <mxCell id="69" value="&lt;font color=&quot;#000000&quot;&gt;依存/呼び出し&lt;/font&gt;" style="text;html=1;strokeColor=none;fillColor=none;align=center;verticalAlign=middle;whiteSpace=wrap;rounded=0;" vertex="1" parent="1">
                    <mxGeometry x="570" y="530" width="90" height="30" as="geometry"/>
                </mxCell>
                <mxCell id="70" value="&lt;font color=&quot;#000000&quot;&gt;正常性確認&lt;/font&gt;" style="text;html=1;strokeColor=none;fillColor=none;align=center;verticalAlign=middle;whiteSpace=wrap;rounded=0;" vertex="1" parent="1">
                    <mxGeometry x="748.36" y="530" width="90" height="30" as="geometry"/>
                </mxCell>
                <mxCell id="71" value="ロジック呼び出し" style="text;html=1;strokeColor=none;fillColor=none;align=center;verticalAlign=middle;whiteSpace=wrap;rounded=0;fontSize=14;fontColor=#000000;" vertex="1" parent="1">
                    <mxGeometry x="490" y="200" width="60" height="30" as="geometry"/>
                </mxCell>
                <mxCell id="73" value="ロジック呼び出し" style="text;html=1;strokeColor=none;fillColor=none;align=center;verticalAlign=middle;whiteSpace=wrap;rounded=0;fontSize=14;fontColor=#000000;" vertex="1" parent="1">
                    <mxGeometry x="180" y="170" width="60" height="30" as="geometry"/>
                </mxCell>
                <mxCell id="78" value="インターフェースの実装" style="text;html=1;strokeColor=none;fillColor=none;align=center;verticalAlign=middle;whiteSpace=wrap;rounded=0;fontSize=14;fontColor=#000000;" vertex="1" parent="1">
                    <mxGeometry x="230" y="320" width="170" height="30" as="geometry"/>
                </mxCell>
                <mxCell id="79" style="edgeStyle=orthogonalEdgeStyle;html=1;exitX=1;exitY=0.5;exitDx=0;exitDy=0;entryX=1;entryY=0.25;entryDx=0;entryDy=0;strokeColor=#FF8000;fontColor=#000000;curved=1;" edge="1" parent="1" source="52" target="13">
                    <mxGeometry relative="1" as="geometry">
                        <Array as="points">
                            <mxPoint x="490" y="100"/>
                            <mxPoint x="490" y="440"/>
                        </Array>
                    </mxGeometry>
                </mxCell>
            </root>
        </mxGraphModel>
    </diagram>
</mxfile>